<?xml version="1.0" standalone="no"?>
<!DOCTYPE svg PUBLIC "-//W3C//DTD SVG 20010904//EN"
 "http://www.w3.org/TR/2001/REC-SVG-20010904/DTD/svg10.dtd">
<svg version="1.0" xmlns="http://www.w3.org/2000/svg"
 width="564.000000pt" height="748.000000pt" viewBox="0 0 564.000000 748.000000"
 preserveAspectRatio="xMidYMid meet">

<g transform="translate(0.000000,748.000000) scale(0.100000,-0.100000)"
fill="#000000" stroke="none">
<path d="M2900 7116 c-106 -30 -147 -56 -340 -211 -69 -55 -170 -133 -226
-173 -180 -128 -240 -212 -232 -326 5 -74 27 -123 81 -177 54 -54 108 -80 178
-86 60 -6 90 5 192 66 l37 23 0 -835 0 -834 -102 -6 c-281 -15 -412 -117 -395
-309 9 -99 63 -167 163 -202 81 -28 220 -36 635 -36 457 0 478 2 558 60 163
119 140 376 -43 465 -43 21 -74 28 -152 32 l-97 6 6 736 c4 405 14 873 22
1041 20 407 19 593 0 652 -37 108 -148 152 -285 114z m186 -55 c57 -35 64 -66
64 -293 0 -111 -7 -345 -15 -518 -11 -241 -21 -1369 -15 -1716 0 -8 37 -13
113 -16 89 -3 120 -8 152 -25 102 -54 143 -150 118 -274 -9 -49 -95 -132 -153
-148 -34 -9 -162 -11 -525 -9 -532 4 -548 6 -621 70 -48 42 -64 77 -64 140 1
106 61 179 178 214 35 11 108 20 187 23 l130 6 3 888 c2 791 0 888 -13 893 -9
4 -38 -9 -69 -29 -29 -19 -76 -47 -105 -62 -49 -24 -56 -25 -106 -15 -131 27
-230 168 -195 277 23 71 77 129 208 225 70 51 188 141 262 201 183 148 259
185 375 186 42 1 69 -5 91 -18z"/>
<path d="M2787 6882 c-23 -25 -21 -78 3 -102 45 -45 120 -11 120 53 0 20 -8
41 -18 50 -25 23 -85 22 -105 -1z m73 -38 c11 -12 10 -18 -4 -32 -16 -16 -18
-16 -31 2 -11 14 -12 23 -4 33 15 17 24 16 39 -3z"/>
<path d="M2683 6800 c-101 -22 -320 -193 -401 -313 -28 -43 -31 -90 -7 -117
33 -36 54 -32 114 24 119 111 149 137 236 202 155 116 180 149 138 186 -26 21
-44 26 -80 18z m47 -54 c0 -8 -51 -52 -112 -97 -62 -46 -155 -124 -206 -173
-70 -68 -95 -87 -104 -78 -30 30 68 150 207 255 115 87 215 130 215 93z"/>
<path d="M2456 4415 c-173 -36 -257 -121 -195 -199 27 -35 49 -33 133 13 59
32 87 40 165 49 107 13 141 30 141 70 0 15 -4 32 -8 38 -25 37 -132 50 -236
29z m196 -53 c20 -20 0 -27 -113 -40 -87 -10 -110 -17 -159 -47 -69 -42 -90
-44 -90 -11 0 44 52 75 185 109 38 10 164 2 177 -11z"/>
<path d="M2400 3533 c-14 -2 -59 -13 -101 -24 -42 -10 -115 -22 -162 -25 -60
-5 -87 -11 -87 -19 0 -21 69 -117 117 -163 177 -171 507 -267 737 -216 26 6
28 5 21 -17 -4 -13 -19 -49 -34 -79 l-27 -55 -75 2 c-90 3 -150 16 -249 56
-164 66 -392 27 -579 -97 -184 -123 -331 -332 -386 -551 -28 -113 -24 -327 10
-460 50 -199 149 -393 263 -517 l25 -27 -27 -11 c-15 -5 -31 -10 -36 -10 -25
0 -177 -58 -251 -96 -346 -178 -233 -413 267 -553 645 -180 1606 -156 2160 55
156 59 251 125 285 199 72 156 -77 294 -428 395 l-72 21 60 92 c206 311 293
630 260 942 -31 284 -123 432 -335 535 -119 58 -273 100 -367 100 -41 0 -99
-9 -150 -24 -91 -26 -165 -41 -246 -51 l-53 -6 46 65 c85 123 129 242 155 425
14 100 13 101 -85 101 -105 0 -105 0 -99 -178 l5 -147 -35 70 c-46 90 -92 143
-166 193 -95 63 -247 95 -361 75z m192 -34 c128 -27 249 -123 307 -241 38 -79
49 -120 30 -114 -8 3 -68 17 -134 32 -238 52 -480 145 -596 230 -47 34 -69 42
-69 24 0 -17 90 -77 188 -125 107 -54 313 -123 457 -155 131 -29 138 -32 90
-41 -235 -46 -589 86 -735 275 -23 31 -41 59 -38 61 3 3 43 10 89 16 46 5 109
16 139 24 109 27 190 31 272 14z m528 -21 c0 -7 -7 -53 -15 -103 -16 -100 -45
-196 -80 -265 -22 -43 -111 -170 -119 -170 -2 0 15 42 37 93 l42 92 1 175 c1
96 3 178 3 183 2 13 131 8 131 -5z m-586 -516 c34 -16 99 -59 145 -96 136
-109 254 -167 364 -180 48 -6 57 -5 57 8 0 11 -9 16 -26 16 -39 0 -142 29
-188 52 l-41 21 40 12 c36 10 236 106 260 125 31 23 149 53 225 58 178 9 414
-82 538 -210 185 -188 213 -641 63 -1018 -85 -213 -309 -533 -457 -653 -68
-54 -174 -102 -278 -124 -97 -20 -181 -11 -276 32 -80 35 -179 55 -280 55 -45
0 -61 -3 -58 -12 3 -8 32 -15 79 -18 62 -4 71 -7 54 -16 -39 -23 -129 -44
-185 -44 -170 0 -427 135 -615 324 -186 186 -306 406 -356 651 -16 81 -17 306
0 375 73 305 292 554 569 644 134 45 269 44 366 -2z m248 -58 l57 -6 -26 -39
c-28 -42 -27 -42 -93 9 -68 53 -69 55 -30 49 19 -3 61 -9 92 -13z m288 11 c0
-7 -136 -74 -182 -91 -21 -7 -38 -10 -38 -6 1 4 15 24 33 44 29 34 38 38 102
47 39 4 73 9 78 10 4 0 7 -1 7 -4z m942 -1684 c163 -68 248 -149 248 -236 0
-225 -651 -414 -1425 -415 -700 0 -1324 153 -1425 350 -66 129 46 242 335 339
66 23 127 41 136 41 8 0 28 -14 45 -31 86 -91 257 -209 394 -273 153 -70 265
-83 385 -42 38 13 74 21 80 18 16 -10 85 -11 91 -1 3 5 13 5 23 -1 10 -5 21
-7 24 -3 4 3 35 -5 69 -18 136 -52 346 -15 499 87 69 45 150 126 220 219 l40
53 93 -28 c51 -15 126 -42 168 -59z"/>
<path d="M3441 2699 c-82 -25 -114 -70 -134 -185 -8 -44 -19 -89 -25 -101 -7
-12 -12 -45 -12 -73 0 -48 3 -54 49 -99 46 -43 71 -84 71 -115 0 -8 -14 -12
-46 -10 -34 2 -53 -2 -75 -18 -34 -26 -37 -55 -9 -91 11 -14 20 -39 20 -56 0
-32 29 -71 53 -71 7 0 26 -13 41 -29 27 -29 89 -51 141 -51 14 0 34 -6 45 -12
25 -16 68 7 88 46 12 23 11 31 -6 59 -11 17 -20 45 -20 61 0 16 -7 35 -16 42
-15 10 -16 23 -10 85 8 79 21 100 95 144 74 44 93 106 55 187 -8 18 -22 64
-31 103 -19 86 -56 150 -97 171 -39 20 -132 27 -177 13z m152 -22 c18 -8 38
-21 46 -31 12 -15 11 -15 -14 -2 -35 18 -64 8 -90 -32 -24 -38 -29 -39 -43 -7
-24 52 -97 58 -128 9 -9 -13 -18 -48 -20 -77 -1 -28 -8 -53 -14 -55 -14 -5 -5
66 15 113 33 80 156 120 248 82z m36 -56 c27 -27 44 -92 32 -122 -11 -27 -14
-20 -11 32 1 22 -5 43 -15 53 -25 25 -59 0 -63 -46 -3 -31 -6 -35 -28 -30 -28
5 -31 29 -9 72 14 27 51 60 67 60 5 0 17 -9 27 -19z m-152 -30 c23 -33 31 -81
15 -81 -5 0 -9 13 -9 29 0 33 -18 61 -39 61 -26 0 -46 -32 -41 -67 3 -18 2
-33 -3 -33 -5 0 -16 -3 -26 -7 -15 -5 -16 0 -12 45 9 94 69 121 115 53z m-17
-25 c0 -8 -4 -17 -9 -21 -12 -7 -24 12 -16 25 9 15 25 12 25 -4z m170 -11 c0
-8 -7 -15 -15 -15 -8 0 -15 7 -15 15 0 8 7 15 15 15 8 0 15 -7 15 -15z m68
-70 c-1 -17 8 -46 20 -65 57 -90 34 -148 -80 -206 -27 -13 -47 -29 -45 -36 4
-18 -54 -29 -117 -24 -65 7 -96 23 -74 38 10 7 10 11 1 14 -6 3 -30 19 -53 35
-69 50 -81 111 -37 195 14 26 25 33 73 43 78 15 159 14 227 -4 32 -8 60 -15
62 -15 3 0 5 26 6 58 1 50 2 54 10 27 5 -16 9 -43 7 -60z m-177 -349 c64 1 66
0 61 -23 -6 -32 -45 -46 -101 -39 -52 7 -67 18 -73 51 -5 22 -3 24 21 17 14
-4 56 -7 92 -6z m-193 -48 c8 -8 15 -8 27 2 12 10 18 10 31 -1 31 -26 -1 -170
-42 -186 -23 -9 -44 17 -44 54 0 23 -9 46 -25 65 l-26 31 22 23 c25 27 39 30
57 12z m203 -33 l47 7 -14 -73 c-7 -39 -15 -73 -17 -75 -7 -8 -110 24 -123 38
-11 11 -13 27 -8 65 l6 51 32 -9 c17 -5 52 -7 77 -4z m70 -87 c1 -7 1 -21 0
-30 -1 -10 8 -31 20 -47 25 -34 21 -53 -15 -76 -20 -14 -28 -14 -45 -3 -12 7
-19 17 -17 23 2 5 12 40 22 78 17 61 32 86 35 55z m-156 -48 c22 -11 52 -20
67 -20 31 0 33 -4 17 -49 -11 -32 -12 -33 -58 -26 -81 12 -111 42 -89 89 14
31 14 31 63 6z"/>
<path d="M3456 2461 c-16 -3 -31 -12 -34 -20 -3 -10 1 -11 19 -5 30 11 107 12
137 1 13 -5 22 -4 22 2 0 11 -64 31 -95 30 -11 -1 -33 -4 -49 -8z"/>
<path d="M3670 2367 c0 -8 -10 -23 -22 -34 -78 -71 -188 -71 -265 0 -12 11
-20 24 -17 28 9 15 -23 10 -36 -6 -7 -8 -10 -16 -6 -16 3 -1 9 -2 14 -3 4 0
21 -11 39 -24 18 -12 52 -32 76 -42 25 -11 50 -27 57 -35 24 -29 89 -9 90 28
1 13 83 77 100 77 14 0 13 13 -2 28 -16 16 -28 15 -28 -1z m-95 -116 c-8 -13
-55 -15 -55 -2 0 5 12 11 28 13 32 4 36 3 27 -11z"/>
</g>
</svg>
