<?xml version="1.0" standalone="no"?>
<!DOCTYPE svg PUBLIC "-//W3C//DTD SVG 20010904//EN"
 "http://www.w3.org/TR/2001/REC-SVG-20010904/DTD/svg10.dtd">
<svg version="1.0" xmlns="http://www.w3.org/2000/svg"
 width="564.000000pt" height="750.000000pt" viewBox="0 0 564.000000 750.000000"
 preserveAspectRatio="xMidYMid meet">

<g transform="translate(0.000000,750.000000) scale(0.100000,-0.100000)"
fill="#000000" stroke="none">
<path d="M2680 7064 c-213 -48 -390 -139 -613 -317 -185 -147 -231 -207 -244
-316 -18 -153 120 -275 309 -273 64 1 151 52 373 220 121 92 273 152 382 152
128 0 309 -96 342 -181 15 -40 -12 -170 -51 -248 -49 -98 -183 -229 -333 -326
-289 -188 -526 -348 -601 -409 -222 -178 -343 -367 -397 -616 -28 -130 -31
-423 -4 -519 37 -135 108 -196 248 -212 187 -21 208 -21 355 -3 218 28 843 28
1022 0 104 -16 133 -17 177 -7 136 30 228 142 228 277 1 103 -55 175 -189 242
-78 39 -219 79 -309 87 -88 8 -580 -11 -785 -30 -85 -8 -158 -15 -162 -15 -29
0 23 144 83 235 51 75 155 181 232 233 24 17 168 108 318 203 354 221 480 323
599 485 80 108 148 280 170 429 13 93 13 261 -1 327 -52 251 -310 478 -649
568 -110 29 -397 38 -500 14z m347 -35 c121 -13 243 -48 344 -99 360 -179 481
-427 402 -820 -37 -186 -106 -320 -236 -456 -113 -118 -192 -179 -441 -336
-327 -206 -348 -220 -408 -265 -86 -66 -169 -151 -220 -229 -52 -78 -98 -201
-98 -263 0 -49 -14 -47 189 -26 202 21 633 38 776 32 280 -12 494 -137 495
-287 0 -46 -39 -127 -81 -167 -68 -64 -152 -77 -314 -48 -114 21 -818 21 -960
0 -118 -17 -227 -19 -348 -5 -207 24 -257 104 -257 408 0 346 85 559 307 773
112 108 185 162 476 353 385 251 419 278 501 385 109 142 158 333 105 417 -62
101 -278 194 -412 178 -111 -13 -244 -67 -344 -141 -29 -21 -97 -70 -151 -110
-189 -139 -266 -153 -393 -72 -80 50 -106 131 -77 233 27 94 322 334 543 441
199 97 381 129 602 104z"/>
<path d="M2667 6949 c-10 -6 -22 -20 -26 -31 -6 -16 -17 -20 -58 -22 -98 -3
-332 -142 -506 -298 -128 -116 -166 -197 -114 -246 13 -12 30 -22 38 -22 8 0
68 51 134 113 101 94 145 127 277 205 86 51 178 112 205 136 36 33 53 41 68
36 26 -9 73 7 85 30 37 69 -35 138 -103 99z m61 -61 c-4 -27 -33 -36 -42 -13
-8 22 1 35 25 35 15 0 20 -6 17 -22z m-113 -47 c5 -10 -172 -126 -309 -202
-54 -30 -114 -78 -191 -151 -62 -60 -116 -108 -119 -108 -3 0 -6 14 -6 32 0
68 296 316 483 404 70 33 130 43 142 25z"/>
<path d="M2056 4911 c-50 -55 -96 -373 -76 -521 12 -86 65 -207 107 -240 51
-40 133 -12 133 45 0 14 -18 61 -41 105 -56 113 -66 166 -51 287 7 54 22 131
32 172 11 41 20 87 20 101 0 58 -86 93 -124 51z m78 -56 c-1 -11 -11 -57 -23
-103 -28 -106 -41 -245 -30 -319 6 -35 26 -91 52 -143 24 -47 42 -91 39 -98
-2 -6 -15 -12 -28 -12 -50 0 -109 119 -121 244 -12 114 23 369 59 439 13 25
53 19 52 -8z"/>
<path d="M3120 4503 c-28 -14 -36 -25 -38 -51 -5 -52 17 -68 101 -76 210 -20
279 -36 367 -83 155 -83 140 -78 169 -62 33 19 48 60 35 96 -31 88 -263 179
-484 189 -99 5 -120 3 -150 -13z m195 -33 c173 -25 331 -84 380 -142 23 -27
24 -33 12 -46 -13 -12 -27 -7 -113 41 -105 59 -140 68 -309 87 -55 6 -115 14
-132 16 -52 8 -41 30 21 45 44 10 62 10 141 -1z"/>
<path d="M1417 3504 c-168 -17 -272 -37 -384 -74 -316 -104 -407 -209 -362
-422 15 -71 42 -120 83 -155 l34 -28 11 -170 c26 -399 80 -953 112 -1133 11
-64 22 -130 25 -147 4 -26 0 -33 -35 -54 -96 -58 -93 -209 4 -267 141 -82 521
-133 899 -120 365 12 669 80 723 162 7 12 16 44 20 71 8 73 -21 135 -79 164
-23 12 -44 22 -45 24 -2 1 4 50 12 109 8 58 38 353 65 654 72 781 61 708 111
750 52 44 78 104 86 197 14 176 -71 263 -355 360 -247 84 -595 114 -925 79z
m473 -9 c196 -11 367 -49 543 -119 125 -51 139 -59 190 -115 41 -46 68 -113
53 -129 -3 -3 -6 1 -6 10 0 27 -68 94 -127 125 -199 105 -540 173 -867 173
-223 0 -506 -43 -691 -106 -170 -57 -236 -96 -282 -165 -14 -22 -28 -38 -30
-35 -12 12 45 110 84 147 86 79 336 169 555 199 110 15 335 28 413 24 33 -2
107 -6 165 -9z m175 -98 c231 -38 432 -106 523 -175 89 -68 114 -195 56 -288
-16 -26 -40 -54 -53 -62 l-23 -16 7 91 7 90 -46 16 -46 16 -108 -89 -107 -89
-18 56 c-10 30 -29 72 -42 93 l-24 39 34 51 c35 52 52 108 41 136 -9 23 -53
12 -127 -31 -44 -25 -65 -33 -77 -26 -34 18 -229 60 -307 66 -108 8 -249 -8
-374 -44 l-104 -29 -39 26 c-47 31 -148 44 -148 20 0 -25 39 -105 66 -137 l25
-30 -26 -38 c-14 -21 -33 -62 -41 -91 l-16 -53 -28 23 c-16 13 -67 56 -113 96
l-85 72 -45 -19 -46 -20 6 -103 6 -103 -41 39 c-46 43 -72 106 -72 170 0 59
49 140 108 177 105 67 350 141 560 169 168 24 569 21 717 -3z m-170 -162 c44
-9 104 -25 134 -36 l54 -19 56 34 c31 19 69 38 85 42 29 7 29 7 23 -31 -3 -21
-22 -62 -42 -91 l-35 -54 36 -65 c28 -50 38 -82 42 -130 2 -35 2 -71 -2 -81
-6 -16 -8 -16 -26 1 -27 24 -53 5 -40 -30 5 -13 10 -52 10 -87 2 -53 -5 -79
-37 -157 l-39 -94 -65 -18 c-35 -10 -65 -18 -67 -19 -1 0 4 13 13 30 8 16 15
48 15 71 l0 41 46 -37 c54 -45 67 -42 20 4 l-34 33 34 66 c19 37 42 70 52 74
14 6 14 7 -4 7 -12 1 -27 8 -34 16 -15 18 0 61 37 111 31 41 29 47 -9 39 -32
-7 -33 -7 -15 12 23 26 22 31 -7 26 -37 -7 -61 12 -97 74 -67 118 -150 179
-255 190 l-53 6 16 23 c20 31 2 32 -44 4 l-32 -19 -21 29 c-27 38 -40 38 -40
0 0 -27 -3 -30 -30 -30 -19 0 -28 -4 -25 -13 6 -14 -63 -39 -71 -25 -3 4 -10
6 -15 2 -5 -3 -7 -9 -5 -13 3 -4 -14 -27 -38 -50 -40 -39 -45 -41 -84 -35 -29
4 -42 3 -42 -5 0 -6 16 -11 35 -11 19 0 35 -3 35 -7 0 -3 -13 -27 -30 -53 -34
-54 -67 -75 -105 -67 -27 5 -27 4 -22 -39 4 -39 3 -42 -14 -34 -25 14 -29 13
-29 -9 0 -11 18 -35 41 -54 39 -34 40 -35 18 -42 -21 -7 -21 -9 -6 -20 9 -7
17 -21 17 -32 0 -11 8 -31 19 -44 10 -13 21 -34 25 -46 4 -12 15 -25 26 -28
13 -4 19 -18 23 -53 2 -26 8 -56 12 -68 6 -18 0 -24 -36 -38 l-44 -18 -22 29
c-27 34 -28 41 -6 65 16 18 16 21 -1 46 -105 162 -112 405 -14 544 l19 27 -31
43 c-27 36 -60 100 -60 114 0 2 17 4 38 4 25 0 54 -10 84 -29 l46 -29 78 24
c170 54 366 65 539 29z m-283 -57 c14 -22 16 -22 41 -5 30 20 47 23 29 5 -21
-21 -14 -25 46 -31 105 -9 180 -61 244 -168 43 -73 70 -99 102 -99 18 0 19 -1
1 -20 -18 -20 -17 -20 13 -20 36 0 39 -6 15 -32 -9 -10 -18 -29 -20 -41 -4
-26 -11 -33 -40 -41 -20 -6 -21 -4 -16 36 3 24 10 44 14 46 5 2 3 10 -5 18 -8
7 -17 19 -20 26 -5 10 -7 10 -12 1 -3 -7 -14 -23 -24 -35 l-19 -23 -1 36 c-1
113 -63 197 -163 219 -30 7 -61 10 -69 8 -7 -3 -21 -29 -31 -57 -10 -30 -24
-51 -32 -51 -8 0 -15 -4 -15 -10 0 -35 53 20 69 72 11 35 14 37 44 32 60 -11
92 -24 121 -50 36 -34 52 -73 61 -151 4 -35 11 -63 15 -63 5 0 18 12 30 28
l21 27 -7 -110 c-4 -60 -6 -141 -5 -178 2 -108 -37 -174 -123 -207 -59 -22
-225 -50 -257 -43 l-34 7 30 7 c24 5 26 7 7 8 -33 2 -84 30 -79 44 6 19 43 20
81 2 31 -15 37 -15 65 -1 35 19 57 20 67 5 9 -15 -7 -28 -52 -44 -37 -13 -37
-14 -10 -15 33 0 96 57 96 87 0 15 -2 16 -10 3 -6 -9 -21 -14 -40 -12 -17 2
-42 -4 -56 -12 -22 -15 -27 -15 -55 -1 -17 9 -47 15 -67 13 -28 -2 -38 1 -40
13 -4 22 58 33 74 13 16 -20 38 -17 59 6 22 24 35 26 35 4 0 -10 -6 -14 -15
-10 -8 3 -15 1 -15 -4 0 -14 21 -12 39 4 12 10 29 12 64 7 49 -8 61 1 28 19
-25 13 -34 13 -26 0 4 -6 -6 -7 -27 -2 -42 9 -134 9 -176 0 -21 -5 -31 -4 -27
2 8 13 -1 13 -26 0 -10 -6 -19 -15 -19 -21 0 -6 5 -7 10 -4 6 3 10 -4 10 -15
0 -12 15 -37 34 -56 31 -31 32 -34 12 -34 -36 0 -122 27 -166 51 -67 38 -85
77 -86 194 0 55 -4 144 -9 197 -9 107 3 157 48 208 24 27 67 60 78 60 11 0
-71 -119 -88 -129 -28 -15 -4 -33 36 -27 l36 7 -32 -22 c-47 -30 -42 -42 15
-37 72 7 138 56 168 124 26 59 37 71 24 24 -12 -42 9 -40 48 5 29 32 31 33 35
12 3 -20 4 -20 11 5 5 16 5 35 2 44 -5 13 -14 6 -42 -30 -19 -25 -37 -46 -39
-46 -1 0 -1 18 2 40 8 60 -10 49 -42 -25 -36 -84 -78 -121 -163 -141 -27 -6
-26 -6 11 33 35 37 52 67 25 45 -19 -15 -88 -32 -88 -21 0 5 4 9 10 9 5 0 28
29 50 64 22 35 56 76 76 91 19 15 33 30 30 33 -4 3 -16 -4 -29 -15 -12 -11
-34 -23 -50 -27 -41 -10 -103 -71 -133 -132 -23 -48 -26 -63 -21 -118 l6 -64
-36 8 c-20 5 -52 24 -72 44 l-35 35 39 -6 38 -6 -16 24 c-23 32 -22 62 1 55
26 -9 76 27 112 81 73 108 155 173 217 173 22 0 24 2 13 15 -11 13 -8 15 14
15 19 0 26 5 26 20 0 26 14 25 32 -2z m-609 -218 l97 -83 0 -99 c0 -68 6 -115
18 -151 11 -34 15 -67 12 -97 -6 -43 -6 -44 -17 -20 -23 52 -42 136 -37 157 9
32 -24 44 -45 16 -16 -20 -17 -19 -53 21 -26 30 -39 38 -48 30 -7 -8 -8 -19
-1 -37 14 -35 23 -35 16 1 -6 26 -5 26 30 -13 23 -25 33 -45 29 -55 -27 -63
-28 -70 -16 -82 9 -9 12 -6 12 18 0 17 7 39 15 50 8 10 15 26 15 35 0 9 6 22
14 28 11 10 15 4 20 -31 14 -110 19 -124 70 -188 29 -36 61 -77 70 -92 18 -27
21 -28 113 -28 52 0 93 -3 91 -8 -33 -75 -64 -123 -83 -128 -13 -3 -52 2 -87
11 -77 19 -125 63 -188 168 -45 75 -98 120 -173 148 -47 17 -48 29 -2 19 51
-11 46 12 -7 38 -34 17 -38 21 -20 22 13 0 36 -7 52 -15 43 -22 47 -2 9 46
-41 52 -29 63 19 16 21 -21 41 -34 45 -31 9 9 -12 46 -22 40 -4 -3 -18 5 -29
17 -18 20 -23 42 -31 148 -20 246 -19 241 -2 226 9 -7 60 -51 114 -97z m-135
-70 c9 -114 9 -176 3 -189 -7 -13 -6 -24 4 -37 24 -31 18 -43 -20 -41 -32 2
-35 4 -39 42 -3 22 -8 116 -12 209 -6 176 -4 185 36 186 13 0 18 -29 28 -170z
m1670 146 l28 -14 -8 -89 c-5 -48 -35 -384 -68 -746 -33 -362 -69 -718 -81
-792 l-22 -135 -34 0 c-32 0 -34 2 -29 28 37 183 77 526 120 1042 31 364 56
679 56 703 0 21 3 21 38 3z m-52 -13 c-6 -22 -21 -263 -17 -282 2 -12 0 -13
-12 -2 -12 10 -21 10 -39 0 -21 -10 -20 -8 6 19 15 17 25 35 22 41 -10 16 -19
14 -60 -14 -42 -28 -41 -29 -20 25 13 32 14 44 5 53 -10 9 -18 5 -38 -18 l-26
-30 6 27 c5 19 3 29 -8 35 -12 7 5 26 77 85 97 81 113 89 104 61z m-194 -211
c-13 -58 -3 -60 30 -7 37 60 51 57 25 -5 -11 -27 -18 -52 -15 -56 4 -3 24 6
45 20 53 36 63 32 23 -9 -37 -38 -34 -56 5 -35 42 22 40 3 -3 -25 -21 -14 -45
-37 -53 -51 -7 -14 -21 -30 -31 -35 -10 -5 -18 -17 -18 -25 0 -34 -62 -200
-87 -232 -33 -44 -213 -131 -213 -103 0 5 -16 31 -36 57 -34 44 -35 48 -18 58
33 19 103 44 144 51 31 5 39 12 45 33 4 15 21 61 39 102 28 64 32 85 30 140
-2 36 -6 75 -10 88 -5 16 -2 22 10 22 9 0 20 -8 23 -17 4 -10 17 -28 30 -40
13 -12 23 -29 23 -38 0 -8 5 -15 10 -15 6 0 10 3 10 6 0 12 -34 64 -42 64 -13
0 -10 15 13 67 24 54 34 47 21 -15z m159 -239 c-51 -616 -123 -1258 -144
-1279 -2 -2 -25 41 -51 97 l-47 101 10 92 c17 148 22 267 25 531 l3 250 32 93
c17 51 31 99 31 107 0 28 135 164 149 150 2 -2 -2 -66 -8 -142z m-1171 127 c0
-5 -11 -10 -25 -10 -14 0 -25 -4 -25 -9 0 -5 8 -7 18 -5 9 2 23 0 31 -5 12 -8
13 -12 1 -25 -11 -14 -10 -19 5 -36 10 -11 15 -26 12 -35 -8 -18 -37 -20 -37
-2 0 7 -11 28 -25 47 -28 37 -31 60 -13 78 15 15 58 16 58 2z m798 -2 c16 -16
15 -53 -2 -67 -8 -6 -19 -25 -26 -41 -7 -17 -19 -30 -26 -30 -17 0 -19 41 -2
58 8 8 8 15 -1 25 -16 20 11 41 40 32 14 -5 19 -4 15 4 -4 6 -18 11 -32 11
-13 0 -24 5 -24 10 0 14 43 13 58 -2z m-1158 -88 c0 -5 -2 -10 -4 -10 -3 0 -8
5 -11 10 -3 6 -1 10 4 10 6 0 11 -4 11 -10z m-47 -40 c5 -4 -6 -7 -22 -6 -18
1 -31 6 -31 14 0 14 36 8 53 -8z m32 -149 c33 -429 97 -983 130 -1128 5 -20 1
-23 -24 -23 -34 0 -32 -6 -65 150 -37 171 -86 617 -119 1071 l-4 46 38 -15 37
-14 7 -87z m269 90 c13 -25 13 -31 1 -47 -11 -14 -17 -16 -23 -7 -7 12 -4 83
4 83 2 0 10 -13 18 -29z m-229 -31 c10 -11 25 -22 34 -25 9 -3 25 -22 36 -42
11 -20 38 -62 61 -93 l41 -56 6 -279 c4 -154 12 -330 18 -391 l11 -110 -51
-99 c-28 -55 -51 -97 -51 -94 0 3 -9 55 -19 115 -25 135 -53 384 -86 754 -14
157 -27 297 -28 313 -4 32 3 34 28 7z m687 -55 c0 -5 -5 -11 -11 -13 -6 -2
-11 4 -11 13 0 9 5 15 11 13 6 -2 11 -8 11 -13z m-288 -50 c18 -14 15 -15 -35
-15 -54 1 -54 1 -24 15 38 17 36 17 59 0z m605 -70 c17 -20 31 -37 31 -39 0
-2 -29 8 -65 23 -64 26 -64 26 -37 38 37 17 36 17 71 -22z m-431 -10 c3 -3 -1
-5 -9 -5 -8 0 -40 -11 -71 -24 -32 -13 -58 -22 -58 -19 0 3 9 22 21 43 l21 37
46 -13 c25 -8 48 -16 50 -19z m712 -163 c-1 -266 -22 -592 -40 -623 -5 -7 -35
-15 -71 -17 -58 -4 -62 -3 -54 14 34 76 68 204 78 286 18 160 -15 311 -87 394
l-33 39 76 36 c42 20 85 44 96 52 11 8 23 13 27 11 5 -3 8 -89 8 -192z m-373
160 c8 -5 9 -13 3 -22 -30 -48 12 -120 70 -120 33 0 70 30 70 57 0 27 53 -30
84 -90 51 -101 67 -260 39 -374 l-5 -23 -25 20 c-81 64 -176 -41 -98 -107 21
-19 37 -24 62 -21 21 3 32 0 30 -6 -2 -6 -10 -28 -18 -48 -11 -32 -17 -38 -43
-38 -61 0 -96 -67 -61 -117 14 -20 12 -25 -36 -77 -53 -58 -69 -67 -69 -39 0
30 -41 63 -78 63 -48 0 -72 -24 -72 -71 0 -28 6 -42 25 -57 l26 -20 -38 -13
c-21 -7 -65 -13 -98 -13 -60 -1 -60 -1 -57 27 5 37 -45 87 -87 87 -28 0 -61
-28 -74 -63 -3 -7 -17 0 -38 20 l-33 32 22 18 c12 10 24 30 28 45 5 22 0 33
-24 58 -17 16 -38 30 -46 30 -20 0 -13 38 14 85 13 23 23 30 43 28 15 -1 27 2
27 8 0 5 -6 9 -13 9 -21 0 -49 36 -45 57 4 19 10 20 43 7 14 -5 9 4 -17 34
-40 44 -48 65 -23 56 43 -17 104 41 90 85 -16 52 -77 77 -126 51 -18 -10 -19
-7 -19 49 0 72 17 157 36 189 13 20 20 22 64 16 43 -6 51 -4 74 19 14 15 26
33 26 41 0 8 15 19 33 26 43 16 222 24 274 12 24 -5 41 -6 38 -2 -3 4 -28 14
-56 20 -58 14 -165 9 -244 -12 -49 -13 -51 -12 -77 14 l-26 28 65 20 c49 15
81 19 127 15 34 -3 75 -2 91 4 37 11 126 14 142 3z m90 -33 c55 -27 58 -60 6
-88 -50 -26 -108 32 -85 84 14 30 24 31 79 4z m-685 -65 c26 -4 48 -8 48 -10
0 -2 -5 -14 -11 -27 -7 -17 -8 -31 -1 -42 6 -12 5 -32 -5 -64 -8 -26 -15 -90
-16 -146 0 -88 3 -108 27 -165 36 -82 40 -169 12 -219 -19 -33 -20 -33 -77
-29 -32 2 -62 8 -66 12 -13 13 -21 139 -29 443 l-7 292 38 -19 c22 -11 61 -23
87 -26z m193 16 c10 -11 16 -21 14 -23 -2 -1 -28 -14 -57 -29 -50 -25 -53 -25
-62 -8 -15 28 -12 40 13 61 29 24 69 24 92 -1z m-119 -92 c-18 -12 -29 9 -21
39 l7 28 12 -30 c9 -21 10 -32 2 -37z m134 37 c0 -24 -47 -49 -72 -38 -20 9
-18 11 23 31 52 26 49 26 49 7z m-70 -325 c40 -40 16 -100 -39 -100 -34 0 -49
15 -57 60 -6 26 -3 36 11 47 27 19 62 16 85 -7z m685 -105 c29 -28 31 -42 9
-73 -21 -30 -77 -30 -98 0 -21 30 -20 54 4 78 27 27 56 25 85 -5z m-45 -227
c0 -13 -48 -98 -56 -98 -12 0 -23 52 -14 74 11 30 70 50 70 24z m-767 -24 c12
-4 14 -17 10 -59 -5 -43 -1 -63 20 -107 38 -85 103 -124 242 -147 87 -15 187
3 266 46 67 36 156 126 199 201 l35 61 61 6 c34 4 69 5 78 4 9 -3 41 -53 73
-119 l58 -115 40 3 c45 4 55 14 55 55 0 37 29 36 75 -4 27 -24 35 -39 35 -66
0 -45 -13 -67 -53 -92 -44 -27 -244 -75 -404 -97 -177 -24 -578 -24 -753 0
-155 21 -331 61 -380 86 -41 21 -80 64 -80 87 0 29 31 79 59 96 38 22 39 22
49 -15 8 -31 11 -33 53 -33 l44 0 55 107 55 108 47 0 c25 0 53 -3 61 -6z m80
-82 c19 -17 22 -44 7 -73 -24 -45 -60 -5 -60 66 0 28 3 33 18 28 9 -3 25 -13
35 -21z m472 -77 c32 -31 32 -58 0 -79 -34 -23 -71 -20 -89 6 -21 30 -20 54 4
78 27 27 56 25 85 -5z m-293 -62 c21 -19 25 -73 5 -73 -24 0 -117 31 -117 38
0 4 7 18 16 30 18 27 69 30 96 5z m984 -137 c-20 -47 -83 -77 -233 -111 -352
-80 -850 -79 -1198 2 -162 37 -210 67 -231 143 l-6 25 23 -21 c39 -35 82 -53
191 -79 201 -48 322 -59 623 -59 285 -1 372 6 565 45 125 25 213 56 247 88 33
31 40 18 19 -33z"/>
<path d="M1339 2733 c-13 -15 -12 -15 6 -6 11 6 27 13 35 16 10 4 8 6 -6 6
-12 1 -28 -6 -35 -16z"/>
<path d="M1920 2732 c40 -20 49 -19 30 3 -7 8 -24 15 -39 15 -25 0 -24 -1 9
-18z"/>
<path d="M1378 2686 c3 -5 -2 -7 -11 -3 -12 4 -14 2 -10 -11 6 -15 5 -15 -10
-3 -9 7 -17 9 -17 3 0 -5 6 -15 14 -21 11 -9 19 -7 40 14 26 26 88 35 101 15
3 -5 12 -10 18 -10 7 0 3 7 -8 16 -22 16 -127 16 -117 0z"/>
<path d="M1817 2689 c-18 -10 -52 -68 -44 -75 2 -3 10 9 17 26 7 17 25 37 39
45 14 8 22 14 16 14 -5 0 -18 -4 -28 -10z"/>
<path d="M1909 2679 c21 -13 33 -30 40 -61 9 -37 10 -38 7 -8 -2 22 2 42 13
55 15 19 15 19 -3 5 -18 -14 -19 -13 -13 2 4 13 2 15 -10 11 -9 -4 -14 -2 -11
3 3 5 -7 9 -23 10 l-30 1 30 -18z"/>
<path d="M1440 2663 c-22 -8 -40 -34 -40 -59 0 -17 7 -22 38 -27 20 -3 45 -8
55 -12 15 -6 17 -1 16 36 0 24 -3 38 -6 32 -7 -18 -33 -16 -33 2 0 8 6 15 13
15 8 0 7 4 -3 10 -17 11 -18 11 -40 3z"/>
<path d="M1831 2661 c-11 -7 -11 -9 0 -14 12 -4 12 -7 1 -18 -11 -11 -14 -12
-21 -1 -12 20 -23 -13 -15 -44 5 -18 11 -23 23 -19 9 4 33 9 54 12 30 5 37 10
37 27 0 42 -48 76 -79 57z"/>
<path d="M1520 2640 c6 -11 13 -20 16 -20 2 0 0 9 -6 20 -6 11 -13 20 -16 20
-2 0 0 -9 6 -20z"/>
<path d="M1352 2605 c0 -16 2 -22 5 -12 2 9 2 23 0 30 -3 6 -5 -1 -5 -18z"/>
<path d="M1628 2563 c6 -2 18 -2 25 0 6 3 1 5 -13 5 -14 0 -19 -2 -12 -5z"/>
<path d="M1580 2520 c0 -5 5 -10 11 -10 5 0 7 5 4 10 -3 6 -8 10 -11 10 -2 0
-4 -4 -4 -10z"/>
<path d="M1685 2520 c-3 -5 -1 -10 4 -10 6 0 11 5 11 10 0 6 -2 10 -4 10 -3 0
-8 -4 -11 -10z"/>
<path d="M1628 2503 c6 -2 18 -2 25 0 6 3 1 5 -13 5 -14 0 -19 -2 -12 -5z"/>
<path d="M1702 2130 c-30 -28 -29 -74 3 -105 48 -49 128 -20 128 45 0 66 -84
104 -131 60z m101 -22 c22 -27 22 -53 -3 -78 -23 -23 -29 -24 -64 -10 -50 19
-59 91 -13 110 29 11 58 3 80 -22z"/>
<path d="M1972 2057 c-65 -69 35 -168 109 -109 33 27 30 78 -5 109 -35 30 -76
30 -104 0z m101 -15 c30 -26 19 -78 -19 -93 -49 -18 -102 27 -90 75 11 44 69
53 109 18z"/>
<path d="M1482 2053 c-13 -5 -42 -55 -42 -72 0 -5 12 -23 26 -40 48 -57 134
-31 134 39 0 54 -65 95 -118 73z m99 -45 c15 -28 -6 -75 -38 -83 -27 -6 -70
15 -80 41 -9 25 7 65 30 73 28 11 74 -6 88 -31z"/>
<path d="M1805 1878 c-52 -30 -58 -76 -16 -119 36 -36 73 -37 106 -4 31 30 32
66 3 99 -27 30 -66 40 -93 24z m73 -24 c43 -30 22 -104 -30 -104 -40 0 -68 25
-68 61 0 53 51 76 98 43z"/>
<path d="M1546 1757 c-32 -32 -33 -68 -3 -102 31 -37 82 -37 114 -1 12 15 23
36 23 46 0 29 -41 69 -77 76 -25 5 -37 1 -57 -19z m92 -13 c42 -29 18 -104
-33 -104 -53 0 -87 66 -55 105 16 19 60 19 88 -1z"/>
<path d="M1772 1577 c-44 -47 -11 -127 53 -127 75 0 107 79 51 127 -35 30 -76
30 -104 0z m101 -15 c40 -35 1 -110 -51 -97 -32 7 -62 39 -62 65 0 10 12 28
27 39 28 23 54 21 86 -7z"/>
<path d="M1535 1485 c-32 -31 -32 -65 0 -99 33 -36 86 -36 114 0 28 36 26 60
-8 95 -36 36 -73 37 -106 4z m78 4 c29 -16 37 -28 37 -61 0 -33 -39 -63 -69
-53 -53 17 -70 81 -29 109 27 19 33 19 61 5z"/>
<path d="M3720 3505 c-182 -18 -262 -33 -385 -72 -326 -104 -419 -210 -374
-425 15 -71 34 -106 80 -149 l39 -36 14 -224 c32 -476 82 -952 119 -1136 l23
-112 -35 -23 c-57 -38 -75 -71 -76 -138 0 -89 48 -142 163 -176 320 -94 851
-110 1227 -38 257 50 332 102 322 225 -6 69 -27 104 -81 131 -23 11 -42 21
-43 23 -2 1 4 46 12 101 15 103 19 144 85 864 22 239 43 452 46 473 4 28 17
49 47 75 54 49 78 107 84 203 13 176 -77 264 -365 358 -243 80 -581 108 -902
76z m568 -20 c151 -17 255 -41 392 -92 190 -71 257 -122 286 -219 15 -51 14
-51 -30 10 -51 69 -172 129 -369 181 -463 125 -1070 87 -1443 -91 -67 -31
-104 -63 -146 -124 l-17 -25 8 31 c28 102 90 156 258 221 210 83 332 107 593
121 166 9 295 5 468 -13z m82 -89 c187 -32 393 -99 484 -156 55 -35 103 -106
111 -165 11 -73 -27 -166 -83 -203 l-24 -16 7 91 7 90 -45 16 -46 16 -107 -89
-107 -88 -22 63 c-13 35 -32 77 -44 93 l-21 30 35 51 c35 53 52 109 41 137 -9
24 -55 12 -127 -32 -44 -26 -63 -33 -76 -26 -10 6 -67 22 -128 38 -94 23 -130
27 -250 27 -120 0 -156 -4 -250 -27 -60 -16 -118 -32 -128 -38 -13 -7 -31 -1
-71 21 -57 33 -146 44 -146 19 0 -21 50 -121 71 -144 l20 -22 -30 -48 c-17
-26 -34 -64 -37 -83 -4 -20 -9 -39 -11 -44 -2 -4 -37 20 -76 53 -40 34 -91 77
-113 96 l-42 34 -44 -19 -45 -19 5 -104 4 -103 -32 30 c-41 38 -80 119 -80
168 0 44 21 98 54 142 63 83 350 180 649 220 140 19 566 13 697 -9z m-165
-165 c50 -11 108 -26 131 -34 39 -14 42 -14 85 12 55 34 108 56 116 48 12 -13
-9 -78 -42 -126 l-35 -51 25 -40 c27 -43 38 -68 48 -111 7 -27 7 -27 -31 -17
l-39 10 10 37 c15 56 -14 109 -73 137 -72 35 -113 45 -125 33 -7 -7 -4 -8 10
-3 17 7 18 6 7 -8 -11 -14 -9 -16 24 -13 102 10 171 -91 129 -187 -6 -15 -2
-18 24 -18 74 0 128 -61 138 -152 6 -66 -20 -108 -68 -108 -40 0 -36 -13 10
-33 47 -21 69 -45 85 -92 26 -74 -8 -153 -80 -190 l-40 -21 14 -33 c17 -44 8
-98 -26 -150 -30 -47 -72 -61 -134 -44 -36 10 -37 9 -43 -19 -8 -35 -48 -84
-86 -103 -40 -21 -118 -20 -134 2 -13 17 -14 17 -32 0 -25 -22 -73 -31 -118
-23 -42 8 -105 60 -105 87 0 24 -2 24 -46 -6 -20 -14 -51 -25 -68 -25 -38 0
-106 44 -106 68 0 13 -9 17 -44 17 -36 0 -51 6 -76 30 -18 17 -38 42 -46 57
-17 33 -18 110 -2 126 9 9 3 12 -27 11 -58 -2 -90 14 -109 55 -32 69 -13 181
35 207 23 12 25 29 4 29 -8 0 -25 15 -36 33 -26 40 -21 136 8 176 27 36 80 61
133 61 44 1 45 1 24 18 -32 27 -46 61 -39 90 10 42 52 100 85 117 27 14 32 14
55 -1 14 -9 28 -14 32 -10 3 3 1 6 -5 6 -6 0 -25 12 -43 28 -18 15 -30 22 -26
15 5 -7 -1 -17 -15 -24 -13 -6 -34 -21 -48 -33 -15 -13 -19 -14 -11 -4 11 15
8 23 -18 60 -17 24 -37 60 -46 81 l-15 37 37 0 c46 0 107 -35 133 -76 11 -16
20 -24 20 -18 0 5 -5 15 -11 21 -10 10 66 44 136 59 l30 7 -27 -22 c-28 -23
-54 -83 -43 -102 4 -6 -2 -17 -14 -25 -12 -8 -21 -19 -21 -25 0 -5 9 0 20 11
11 11 24 20 28 20 4 0 6 15 4 33 -7 62 66 115 139 100 22 -4 29 -11 29 -29 0
-20 -5 -24 -31 -24 -27 0 -30 -2 -19 -15 10 -12 10 -15 -4 -15 -25 0 -96 -31
-91 -40 3 -4 22 1 42 11 21 10 48 19 61 19 17 0 23 4 18 15 -4 10 1 14 17 12
16 -1 23 4 25 22 l4 25 17 -23 c17 -22 19 -23 49 -7 19 10 32 12 32 6 0 -7 6
-8 19 0 28 15 117 12 149 -4 32 -17 71 -76 50 -76 -7 -1 -1 -8 15 -16 15 -8
27 -19 27 -24 0 -6 6 -10 13 -10 6 0 0 11 -15 24 -15 13 -24 26 -22 29 3 3 -2
19 -11 37 -25 48 -91 74 -169 65 -34 -3 -68 -10 -75 -14 -9 -6 -26 0 -48 15
-19 13 -51 27 -72 31 l-36 8 45 7 c73 11 258 0 355 -21z m-912 -270 c53 -45
97 -85 97 -88 0 -2 -14 -16 -30 -30 -39 -32 -56 -66 -65 -124 -8 -52 12 -110
44 -130 19 -13 19 -14 -9 -46 -35 -39 -46 -102 -30 -163 12 -46 60 -100 89
-100 15 0 17 -9 14 -67 -6 -101 -5 -125 6 -283 6 -80 16 -213 22 -297 l10
-151 -49 -98 -49 -97 -16 89 c-45 245 -114 957 -160 1656 -3 43 -14 49 126
-71z m-134 -73 c47 -666 124 -1410 166 -1595 5 -20 1 -23 -24 -23 -31 0 -33 4
-66 152 -47 212 -116 941 -140 1472 -8 155 -5 165 36 166 13 0 17 -27 28 -172z
m1672 147 c22 -12 28 -21 24 -38 -2 -12 -9 -78 -15 -147 -14 -170 -76 -866
-95 -1075 -17 -181 -37 -344 -56 -450 l-11 -65 -35 0 c-31 0 -35 2 -30 23 42
169 100 720 163 1540 10 125 19 227 21 227 2 0 17 -7 34 -15z m-55 -17 c-3
-13 -8 -70 -11 -128 -19 -324 -106 -1246 -136 -1430 -31 -196 -24 -190 -81
-70 l-49 105 11 90 c6 49 15 198 20 330 5 134 13 253 20 270 7 18 8 44 4 65
-5 19 -8 38 -8 43 -1 4 15 15 34 25 98 49 107 229 13 284 l-33 20 25 20 c52
41 54 121 4 204 l-19 32 97 80 c54 45 101 81 106 81 4 1 5 -9 3 -21z m-1331
-60 c0 -24 4 -53 8 -65 7 -20 5 -23 -19 -23 -25 0 -26 2 -20 39 6 38 22 91 28
91 2 0 3 -19 3 -42z m-9 -743 c0 -18 -3 -32 -8 -29 -10 6 -11 64 0 64 4 0 7
-16 8 -35z m88 -139 c21 -14 50 -26 63 -26 15 0 33 -10 45 -25 44 -57 133 -71
179 -29 21 19 23 19 50 -28 26 -47 134 -69 190 -40 32 16 40 17 60 6 67 -37
181 9 215 85 17 39 17 39 73 37 31 0 68 3 84 8 23 7 27 5 27 -10 -1 -32 -127
-121 -270 -191 -129 -63 -137 -66 -203 -64 -126 3 -382 83 -494 154 -107 68
-154 133 -131 182 l11 26 31 -30 c17 -16 49 -41 70 -55z m996 24 c0 -5 -5 -10
-11 -10 -5 0 -7 5 -4 10 3 6 8 10 11 10 2 0 4 -4 4 -10z m-1052 -116 c71 -67
343 -172 522 -201 l55 -9 -70 -21 c-107 -33 -199 -51 -320 -64 -60 -6 -118
-15 -127 -20 -15 -8 -20 0 -37 56 -16 50 -61 259 -61 281 0 10 12 3 38 -22z
m1038 -55 c-17 -62 -66 -142 -96 -161 -26 -16 -26 -28 0 -21 24 6 25 0 4 -60
-20 -59 -54 -88 -178 -149 -114 -55 -193 -81 -320 -103 -210 -36 -366 -4 -366
76 0 26 2 28 26 19 31 -12 81 -13 88 -1 3 4 -20 11 -50 14 -63 6 -104 35 -104
73 0 35 24 46 118 55 225 22 347 54 549 144 128 57 272 143 304 181 11 13 14
13 27 1 12 -13 12 -22 -2 -68z m8 -101 c-14 -195 -28 -319 -37 -325 -13 -8
-137 -21 -137 -14 0 13 47 120 58 134 21 25 42 86 42 120 0 20 7 40 17 48 9 8
25 33 35 57 10 23 21 42 23 42 1 0 1 -28 -1 -62z m-1020 -206 c1 -31 7 -49 21
-60 13 -11 19 -26 17 -45 -3 -26 -6 -28 -35 -21 -18 3 -34 8 -36 10 -5 4 -17
143 -25 279 l-5 100 31 -110 c17 -60 31 -130 32 -153z m834 -114 c-74 -154
-187 -263 -298 -287 -127 -27 -221 -4 -306 76 -38 36 -94 104 -94 115 0 3 26
0 58 -5 72 -13 221 4 352 38 89 24 250 94 295 128 11 8 22 14 24 12 2 -3 -12
-37 -31 -77z m-760 -59 c19 -17 54 -57 77 -88 99 -134 210 -185 355 -162 34 6
82 20 106 32 64 31 144 107 184 177 34 58 36 60 85 66 118 14 109 20 172 -109
l57 -116 45 3 c44 3 46 4 49 36 4 41 22 49 61 26 38 -22 64 -74 55 -109 -3
-14 -2 -25 4 -25 6 0 5 -16 -3 -42 -20 -70 -91 -105 -303 -147 -296 -59 -771
-59 -1063 0 -204 40 -288 82 -303 151 l-6 27 50 -34 c56 -38 190 -73 385 -102
150 -22 630 -25 770 -5 132 19 289 51 351 72 58 20 114 55 114 71 0 6 -15 -1
-33 -15 -44 -33 -70 -42 -222 -76 -193 -42 -323 -54 -585 -54 -446 1 -788 74
-824 175 -12 34 15 89 55 113 34 20 46 14 51 -24 3 -22 9 -25 48 -28 l45 -3
55 111 54 110 39 0 c30 0 48 -8 75 -31z"/>
<path d="M3630 3178 c0 -9 5 -20 10 -23 13 -8 13 5 0 25 -8 13 -10 13 -10 -2z"/>
<path d="M4247 3154 c-13 -18 -14 -22 -3 -18 8 3 17 13 20 21 10 25 3 23 -17
-3z"/>
<path d="M4322 3160 c-7 -11 -9 -20 -4 -20 4 0 13 9 20 20 7 11 9 20 4 20 -4
0 -13 -9 -20 -20z"/>
<path d="M3965 3160 c-5 -8 53 -20 98 -20 15 0 46 -9 68 -21 23 -11 43 -18 47
-15 3 3 -15 15 -40 26 -49 21 -166 42 -173 30z"/>
<path d="M3603 2992 c-42 -65 -56 -115 -51 -195 3 -65 2 -67 -25 -78 -32 -13
-45 -51 -28 -82 7 -12 19 -35 27 -50 9 -15 24 -33 35 -40 14 -8 19 -23 19 -52
0 -24 9 -55 23 -77 21 -36 81 -88 100 -88 5 0 31 -22 58 -49 117 -119 241
-121 358 -5 25 25 67 58 93 74 55 34 88 90 88 148 0 31 4 41 20 45 11 3 25 18
31 34 6 15 16 35 24 43 27 32 27 58 0 86 -14 14 -32 23 -40 20 -12 -4 -13 8
-8 73 4 52 1 91 -7 117 -16 47 -57 114 -70 114 -5 0 4 -19 19 -42 35 -51 51
-106 51 -171 l0 -47 -40 26 c-22 15 -64 35 -92 44 l-52 17 -11 56 c-16 78 -25
82 -25 9 l0 -62 -35 0 c-34 0 -34 1 -41 50 -6 48 -27 73 -23 28 1 -13 1 -36 1
-51 l-2 -28 -82 3 -83 3 -6 40 -5 40 -12 -28 c-7 -16 -12 -35 -12 -43 0 -23
-20 -16 -21 9 -2 27 -2 26 5 62 4 20 -4 10 -22 -29 -26 -52 -34 -61 -77 -77
-27 -10 -66 -35 -87 -56 l-38 -37 0 55 c0 72 21 142 60 196 17 24 28 43 23 43
-5 0 -22 -21 -40 -48z m180 -144 c4 1 12 2 17 2 6 0 10 8 10 18 1 16 1 16 11
-1 9 -15 25 -18 112 -18 56 0 118 -1 137 -2 30 -2 36 1 39 23 l4 25 6 -24 c5
-17 18 -27 46 -36 46 -13 103 -41 126 -61 13 -12 14 -24 7 -72 -5 -31 -10
-103 -11 -158 -2 -94 -5 -104 -31 -139 -33 -43 -108 -81 -181 -90 -27 -4 -65
-11 -84 -17 -25 -8 -54 -7 -105 2 -164 28 -231 58 -268 118 -20 32 -23 51 -23
147 -1 61 -4 126 -9 145 -6 31 -4 39 21 64 33 33 94 66 122 66 14 0 22 9 27
33 l8 32 5 -30 c4 -16 10 -29 14 -27z m-208 -148 c4 -6 -7 -10 -24 -10 -17 0
-31 -4 -31 -9 0 -4 11 -6 24 -4 28 6 42 -12 25 -33 -9 -11 -8 -18 6 -34 10
-11 15 -26 12 -35 -7 -18 -37 -20 -37 -3 0 7 -12 29 -27 50 -22 33 -24 42 -15
63 12 26 55 35 67 15z m793 -2 c15 -15 16 -55 1 -64 -6 -3 -17 -22 -25 -40
-16 -39 -44 -46 -44 -11 0 13 3 27 8 31 4 4 7 20 7 34 0 23 4 27 28 25 15 -1
25 2 22 8 -4 5 -17 9 -31 9 -13 0 -24 5 -24 10 0 14 43 13 58 -2z m-495 -409
c54 -10 80 -10 135 0 37 7 81 15 97 18 l30 5 -30 -32 c-73 -78 -181 -98 -265
-48 -25 14 -56 38 -70 53 l-25 27 30 -5 c17 -3 60 -11 98 -18z"/>
<path d="M3675 2750 c-12 -4 -27 -16 -35 -26 -14 -16 -13 -16 10 -4 14 7 45
19 70 26 45 12 45 12 10 12 -19 1 -44 -3 -55 -8z"/>
<path d="M4170 2744 c25 -7 53 -18 63 -24 11 -6 17 -7 17 0 0 16 -57 40 -92
39 -32 -1 -32 -1 12 -15z"/>
<path d="M3647 2661 c-31 -15 -35 -19 -19 -23 10 -3 27 1 37 8 26 20 37 17 30
-6 -8 -25 9 -57 36 -65 23 -8 59 19 59 43 0 12 6 10 25 -8 14 -13 25 -19 25
-14 0 13 -48 58 -77 73 -30 15 -71 13 -116 -8z m118 -20 c7 -12 -12 -24 -25
-16 -11 7 -4 25 10 25 5 0 11 -4 15 -9z"/>
<path d="M4104 2661 c-33 -20 -67 -61 -59 -70 3 -3 13 5 21 18 l16 23 19 -31
c10 -17 27 -31 37 -31 29 0 55 35 50 65 -4 21 -2 25 11 20 9 -4 32 -9 51 -11
l35 -4 -32 10 c-18 6 -35 15 -38 20 -10 17 -78 11 -111 -9z m41 -41 c-5 -8
-11 -8 -17 -2 -6 6 -7 16 -3 22 5 8 11 8 17 2 6 -6 7 -16 3 -22z"/>
<path d="M3670 2595 c13 -14 26 -25 28 -25 3 0 -5 11 -18 25 -13 14 -26 25
-28 25 -3 0 5 -11 18 -25z"/>
<path d="M4200 2589 c-22 -18 -22 -19 -3 -10 12 6 25 16 28 21 9 15 3 12 -25
-11z"/>
<path d="M4077 2579 c7 -7 15 -10 18 -7 3 3 -2 9 -12 12 -14 6 -15 5 -6 -5z"/>
<path d="M3923 2563 c9 -2 23 -2 30 0 6 3 -1 5 -18 5 -16 0 -22 -2 -12 -5z"/>
<path d="M3870 2520 c0 -5 5 -10 11 -10 5 0 7 5 4 10 -3 6 -8 10 -11 10 -2 0
-4 -4 -4 -10z"/>
<path d="M3975 2520 c-3 -5 -1 -10 4 -10 6 0 11 5 11 10 0 6 -2 10 -4 10 -3 0
-8 -4 -11 -10z"/>
<path d="M3928 2503 c7 -3 16 -2 19 1 4 3 -2 6 -13 5 -11 0 -14 -3 -6 -6z"/>
<path d="M3798 2439 c-10 -5 -18 -15 -18 -20 0 -6 5 -7 10 -4 6 3 10 -4 10
-15 0 -12 15 -37 34 -56 26 -26 42 -34 68 -33 l33 1 -30 7 c-44 11 -77 31 -72
44 6 19 43 20 80 2 30 -14 37 -14 71 0 21 9 47 13 58 9 18 -5 18 -8 6 -21 -8
-8 -33 -21 -54 -28 -36 -13 -37 -14 -10 -15 33 0 97 57 95 87 -1 15 -2 16 -6
1 -3 -13 -12 -15 -38 -11 -23 4 -43 0 -60 -11 -23 -15 -27 -15 -56 0 -18 9
-46 14 -65 12 -23 -3 -35 1 -39 10 -7 18 -7 18 31 25 23 4 35 1 48 -14 14 -16
20 -18 32 -9 11 10 17 10 28 1 11 -10 18 -8 33 9 17 17 25 19 66 11 48 -9 62
0 28 19 -25 13 -34 13 -26 0 4 -6 -6 -7 -27 -2 -18 4 -58 7 -88 7 -30 0 -70
-3 -88 -7 -21 -5 -31 -4 -27 2 8 13 -5 12 -27 -1z m132 -20 c0 -5 -7 -9 -15
-9 -15 0 -20 12 -9 23 8 8 24 -1 24 -14z m47 -5 c-9 -9 -28 6 -21 18 4 6 10 6
17 -1 6 -6 8 -13 4 -17z"/>
</g>
</svg>
