<?xml version="1.0" standalone="no"?>
<!DOCTYPE svg PUBLIC "-//W3C//DTD SVG 20010904//EN"
 "http://www.w3.org/TR/2001/REC-SVG-20010904/DTD/svg10.dtd">
<svg version="1.0" xmlns="http://www.w3.org/2000/svg"
 width="564.000000pt" height="749.000000pt" viewBox="0 0 564.000000 749.000000"
 preserveAspectRatio="xMidYMid meet">

<g transform="translate(0.000000,749.000000) scale(0.100000,-0.100000)"
fill="#000000" stroke="none">
<path d="M2635 7069 c-142 -33 -363 -128 -491 -211 -89 -58 -160 -127 -184
-181 -64 -139 33 -318 195 -362 93 -25 118 -16 369 129 132 76 186 89 335 84
186 -7 302 -53 346 -139 27 -51 30 -139 8 -190 -48 -107 -133 -149 -443 -219
-124 -28 -248 -61 -275 -74 -109 -49 -165 -128 -165 -229 0 -71 20 -121 68
-170 47 -48 114 -72 257 -92 155 -22 255 -49 344 -93 173 -87 273 -259 258
-447 -10 -136 -119 -255 -280 -307 -79 -26 -232 -28 -331 -4 -116 28 -154 55
-246 176 -87 116 -129 152 -200 170 -58 16 -149 6 -201 -20 -58 -30 -119 -89
-140 -135 -75 -164 71 -431 322 -587 194 -121 416 -175 687 -165 170 6 271 28
398 86 380 177 604 534 580 926 -17 273 -115 468 -311 616 l-57 43 29 20 c186
133 269 317 267 586 -2 219 -58 369 -190 509 -140 149 -333 240 -589 276 -111
16 -298 18 -360 4z m445 -64 c282 -63 485 -203 580 -401 83 -172 93 -439 23
-618 -40 -100 -126 -202 -228 -269 -27 -18 -50 -37 -50 -44 0 -6 35 -34 77
-62 207 -139 318 -362 318 -642 0 -261 -98 -484 -288 -660 -215 -199 -487
-287 -800 -259 -374 33 -655 196 -788 459 -31 61 -38 85 -38 135 0 100 56 178
153 212 76 27 184 12 234 -34 11 -9 55 -63 98 -120 88 -113 123 -140 219 -172
79 -27 257 -38 345 -21 140 26 283 129 341 247 25 51 28 68 27 154 -1 315
-212 498 -634 550 -193 23 -269 72 -290 184 -15 84 33 167 127 215 23 12 147
46 277 76 250 58 332 88 404 150 65 55 86 109 82 209 -4 71 -8 89 -34 130 -60
95 -179 144 -376 153 -163 8 -234 -15 -435 -137 -54 -33 -120 -67 -146 -76
-184 -61 -361 157 -258 319 53 83 198 179 410 269 160 69 213 79 405 74 107
-3 198 -11 245 -21z"/>
<path d="M2667 6938 c-20 -20 -34 -23 -93 -23 -61 0 -80 -5 -158 -43 -201 -96
-346 -239 -346 -341 0 -35 26 -68 60 -76 28 -6 44 8 162 132 59 63 82 79 191
132 68 33 136 72 151 86 21 20 31 23 41 15 24 -20 74 -15 100 10 31 29 32 68
4 104 -27 34 -80 36 -112 4z m71 -27 c20 -12 11 -56 -12 -56 -27 0 -43 29 -27
49 15 18 21 19 39 7z m-122 -42 c11 -19 -27 -46 -156 -109 -120 -58 -129 -65
-221 -162 -97 -103 -119 -113 -119 -59 0 41 51 114 117 166 145 115 353 205
379 164z"/>
<path d="M2564 5831 c-69 -42 -104 -163 -71 -244 22 -51 74 -74 129 -58 60 18
77 75 37 125 -20 26 -21 29 -5 69 22 59 20 82 -10 106 -33 26 -41 26 -80 2z
m56 -50 c0 -10 -7 -35 -15 -54 -20 -49 -19 -61 11 -96 21 -26 24 -34 14 -46
-19 -23 -66 -19 -84 7 -19 26 -21 109 -5 141 29 57 79 87 79 48z"/>
<path d="M2011 4723 c-39 -33 -37 -70 10 -158 57 -110 121 -198 199 -276 83
-83 144 -114 228 -114 58 0 66 3 88 29 45 52 32 74 -76 131 -127 66 -228 165
-296 289 -61 110 -105 139 -153 99z m71 -50 c8 -10 33 -52 54 -92 53 -101 163
-210 275 -273 46 -27 89 -50 94 -51 6 -2 4 -11 -5 -22 -12 -14 -24 -16 -66
-12 -71 7 -108 29 -190 111 -102 102 -226 301 -211 340 8 21 30 20 49 -1z"/>
<path d="M3313 3624 l-28 -25 33 22 c17 13 32 24 32 26 0 8 -11 1 -37 -23z"/>
<path d="M3450 3644 c0 -7 7 -14 15 -18 8 -3 24 -20 35 -38 11 -18 20 -27 20
-20 0 16 -69 91 -70 76z"/>
<path d="M3338 3619 c-10 -5 -23 -20 -29 -32 l-10 -22 18 21 c10 12 27 26 38
32 11 6 16 11 10 11 -5 0 -18 -4 -27 -10z"/>
<path d="M3399 3621 c9 -6 11 -16 7 -27 -6 -15 -4 -16 5 -7 14 14 5 43 -13 43
-10 0 -9 -3 1 -9z"/>
<path d="M4195 3584 c-94 -21 -181 -68 -213 -116 -19 -30 -25 -53 -27 -103
l-2 -64 -49 -37 c-75 -55 -260 -241 -310 -310 -47 -66 -52 -85 -29 -104 8 -7
15 -29 15 -49 0 -44 50 -131 126 -218 l54 -61 0 -94 c0 -112 25 -193 89 -286
73 -107 222 -264 237 -249 4 4 -37 84 -94 182 -3 5 7 0 23 -13 15 -12 30 -21
32 -18 2 2 -30 81 -72 176 -41 95 -74 175 -72 176 1 2 17 -9 35 -23 41 -32 75
-99 101 -198 28 -106 47 -135 106 -165 46 -23 61 -25 175 -24 105 1 139 5 213
28 152 46 290 129 341 207 36 54 31 100 -18 175 -43 64 -97 103 -169 119 l-52
12 35 21 c65 40 114 22 171 -61 96 -143 161 -181 242 -142 98 47 183 339 129
444 -27 54 -61 74 -128 73 -47 0 -73 -8 -149 -46 -50 -25 -99 -46 -107 -46
-16 0 -68 54 -68 71 0 5 10 9 23 9 34 0 122 45 141 71 32 46 19 86 -49 159
-30 33 -48 66 -64 115 -47 145 -133 269 -231 330 -103 65 -255 88 -385 59z
m115 -8 c0 -3 -22 -30 -49 -60 -26 -31 -59 -76 -72 -100 -19 -37 -29 -45 -56
-48 -18 -2 -33 -3 -33 -2 0 1 9 22 20 47 39 88 83 156 104 160 31 6 86 8 86 3z
m107 -4 c8 -5 2 -16 -22 -35 -18 -14 -57 -58 -85 -97 -50 -66 -55 -70 -92 -70
l-38 0 19 39 c11 21 46 69 78 105 51 58 62 66 93 66 19 0 40 -4 47 -8z m85
-56 c-36 -26 -114 -105 -133 -135 -13 -21 -20 -23 -52 -17 l-37 7 16 32 c9 18
48 62 86 99 l69 66 39 -16 40 -17 -28 -19z m-376 -57 c-36 -72 -58 -104 -75
-111 -23 -8 -23 -7 -18 29 3 21 15 63 26 95 18 47 28 59 59 72 20 8 42 15 48
15 6 1 -12 -45 -40 -100z m-92 -29 c-14 -47 -28 -91 -30 -97 -2 -7 -10 -13
-19 -13 -18 0 -21 73 -5 116 10 24 69 88 76 81 2 -1 -8 -41 -22 -87z m547 69
c16 -11 29 -23 29 -27 0 -4 -19 -18 -42 -31 -23 -13 -63 -44 -89 -68 -39 -36
-52 -43 -73 -37 -37 9 -38 16 -11 57 26 37 129 127 147 127 5 0 23 -9 39 -21z
m75 -62 c37 -42 36 -45 -10 -66 -25 -11 -65 -33 -90 -50 -51 -35 -55 -36 -81
-17 -18 13 -18 15 8 50 22 29 125 102 148 105 3 1 14 -9 25 -22z m67 -87 c20
-33 16 -50 -12 -50 -10 0 -46 -14 -79 -31 l-62 -31 -25 20 c-22 17 -23 21 -10
32 16 13 156 89 165 90 3 0 14 -14 23 -30z m-378 -27 c6 -9 22 -31 38 -48 27
-33 35 -55 18 -55 -5 0 -28 22 -50 49 -32 37 -51 51 -86 60 -63 16 -56 25 13
17 35 -5 61 -13 67 -23z m-215 7 c-14 -4 -34 -8 -45 -9 -16 -1 -17 1 -5 9 8 5
29 9 45 9 29 -1 29 -1 5 -9z m143 -23 c46 -19 53 -29 41 -61 -7 -17 -50 -20
-94 -6 -21 7 -18 8 18 9 39 1 43 3 40 24 -2 16 -15 26 -50 38 -26 8 -51 19
-55 23 -12 11 46 -4 100 -27z m-226 -14 c-3 -18 2 -37 14 -54 20 -28 27 -55
59 -224 12 -60 27 -139 35 -175 17 -77 19 -150 4 -205 -6 -22 -13 -102 -17
-177 l-7 -137 -66 22 c-102 35 -176 84 -280 187 -89 88 -166 196 -184 257 l-6
22 44 -25 c31 -17 65 -26 108 -29 45 -3 67 -9 76 -21 7 -10 16 -14 20 -11 4 4
1 13 -5 19 -7 7 -12 25 -12 40 0 15 -4 28 -10 28 -5 0 -10 -7 -10 -16 0 -14
-9 -16 -66 -11 -51 4 -75 11 -107 33 -55 39 -63 55 -48 90 18 46 79 111 89 97
4 -7 34 -24 65 -38 32 -14 73 -40 92 -59 19 -19 47 -37 63 -41 16 -3 35 -17
42 -30 16 -30 59 -35 61 -7 4 58 3 57 39 57 32 0 35 3 38 32 2 18 -2 58 -7 90
-10 53 -17 63 -81 125 -40 39 -78 68 -90 68 -23 0 -26 13 -6 29 10 9 23 1 58
-34 25 -25 55 -45 66 -45 20 0 52 24 52 39 0 15 -38 42 -86 61 -49 19 -49 20
-14 18 43 -2 60 7 60 33 0 10 5 19 11 19 7 0 9 -11 6 -27z m358 15 c17 -8 25
-19 25 -37 0 -14 -3 -21 -8 -15 -4 5 -18 21 -31 37 -27 30 -24 33 14 15z
m-167 -15 c42 -10 25 -30 -25 -29 -27 1 -66 -2 -88 -7 -24 -4 -46 -3 -55 3
-13 9 -11 13 10 31 21 18 32 20 80 14 30 -4 65 -9 78 -12z m-228 -3 c0 -5 -7
-10 -16 -10 -8 0 -12 5 -9 10 3 6 10 10 16 10 5 0 9 -4 9 -10z m757 -29 c10
-28 10 -29 -26 -36 -20 -4 -55 -15 -78 -25 -41 -18 -41 -18 -62 4 l-22 23 68
31 c87 40 106 40 120 3z m-263 -18 c8 -16 26 -39 40 -52 30 -28 34 -51 8 -51
-17 0 -82 93 -82 118 0 21 19 13 34 -15z m-342 -10 c-46 -17 -48 -63 -2 -63
33 0 31 6 65 -152 27 -128 30 -165 15 -170 -6 -2 -17 -21 -25 -43 -12 -37 -12
-42 7 -62 20 -21 21 -30 15 -145 -3 -68 -13 -145 -21 -173 -9 -27 -16 -63 -16
-78 0 -22 -4 -28 -17 -25 -15 3 -19 17 -21 88 -2 47 2 117 9 155 21 112 15
254 -14 370 -14 55 -28 126 -32 159 -4 32 -13 76 -21 98 -8 22 -14 42 -14 44
0 4 74 10 80 5 3 -2 -1 -6 -8 -8z m202 -4 c12 -14 25 -20 42 -16 21 4 24 1 24
-25 0 -26 -3 -29 -22 -22 -39 12 -78 44 -78 65 0 25 11 24 34 -2z m160 -97
c21 -16 23 -29 29 -137 l6 -120 -55 0 -54 0 0 94 c0 89 1 95 27 119 l27 25
-27 21 c-23 18 -27 29 -27 71 l0 49 26 -52 c14 -29 36 -60 48 -70z m-525 94
c15 -8 33 -22 40 -30 25 -29 -16 -31 -59 -2 -60 40 -46 65 19 32z m336 -41
c39 -19 87 -41 108 -49 41 -17 47 -31 17 -41 -14 -5 -32 1 -53 18 -57 43 -128
70 -192 72 -79 3 -79 3 -65 20 23 28 107 19 185 -20z m462 -9 c-2 -5 -32 -17
-68 -27 -62 -17 -65 -17 -83 1 -18 18 -18 18 2 29 12 6 45 17 74 25 47 13 54
12 66 -2 7 -9 11 -20 9 -26z m-877 -6 c60 -30 55 -37 -22 -28 -39 4 -75 5 -80
2 -14 -9 -9 9 9 28 21 23 44 23 93 -2z m698 -19 c27 -38 28 -42 20 -113 -7
-65 -35 -448 -37 -506 -1 -13 -10 -35 -21 -49 l-20 -26 0 90 c0 52 7 111 16
143 11 36 14 70 9 104 -10 78 -9 396 1 396 2 0 17 -18 32 -39z m-317 -6 c15
-10 42 -164 43 -255 1 -33 -1 -35 -36 -38 -38 -3 -38 -3 -38 35 -1 21 -11 90
-24 153 -13 63 -22 118 -20 121 5 8 54 -3 75 -16z m509 -4 c0 -5 3 -16 6 -25
5 -12 0 -16 -17 -16 -13 -1 -42 -7 -64 -15 -36 -13 -41 -13 -52 2 -20 26 -17
29 40 46 61 18 87 20 87 8z m-950 -20 c0 -5 -7 -11 -15 -15 -8 -3 -20 -17 -27
-31 -13 -30 -16 -30 -48 -6 -24 19 -24 20 -6 40 19 21 96 31 96 12z m536 -22
l45 -31 -7 -96 c-4 -54 -7 -98 -8 -99 0 -1 -13 -4 -27 -8 l-26 -6 -16 124
c-19 138 -19 147 -11 147 3 0 26 -14 50 -31z m-382 -9 c111 -98 -10 -264 -142
-196 -59 31 -80 114 -43 170 26 39 57 55 108 56 33 0 50 -7 77 -30z m850 -15
c22 -17 26 -14 -81 -43 -62 -17 -72 -18 -77 -5 -11 27 -6 32 42 47 60 19 92
19 116 1z m-1100 -26 c28 -16 34 -26 34 -50 -1 -25 -4 -28 -22 -23 -12 3 -38
17 -59 30 l-38 25 23 19 c28 24 21 24 62 -1z m952 -133 c9 -39 25 -85 35 -103
22 -34 20 -47 -13 -151 -13 -41 -27 -66 -41 -73 -12 -6 -34 -23 -49 -37 l-28
-26 0 25 c0 26 25 341 36 454 l7 70 19 -44 c10 -24 26 -76 34 -115z m188 105
l15 -28 -77 -11 c-42 -7 -87 -15 -99 -18 -19 -5 -23 -2 -23 14 0 18 13 25 73
42 39 12 77 23 82 25 6 2 11 4 12 4 1 1 9 -12 17 -28z m16 -64 c0 -31 -34 -44
-110 -43 -61 1 -75 4 -78 18 -2 13 7 18 45 23 26 4 53 8 58 10 28 10 85 4 85
-8z m-850 -31 c0 -15 -18 -31 -26 -23 -7 7 7 37 17 37 5 0 9 -6 9 -14z m770
-40 c-49 -26 -78 -28 -90 -6 -10 19 -8 20 52 20 58 -1 61 -2 38 -14z m-854
-52 c-6 -17 -8 -17 -24 0 -15 15 -15 18 -2 26 19 12 35 -3 26 -26z m574 11 c7
-8 14 -34 17 -58 9 -88 -58 -154 -147 -142 -52 6 -130 43 -179 85 -33 28 -34
32 -25 67 l9 38 94 7 c52 4 96 10 99 13 13 12 120 4 132 -10z m575 -9 c78 -33
96 -134 49 -274 -60 -179 -143 -243 -225 -174 -40 32 -81 78 -121 133 l-29 40
16 72 c27 121 24 116 105 158 117 61 150 68 205 45z m-315 -86 c12 0 2 -63
-18 -123 -14 -40 -19 -46 -36 -41 -12 4 -22 7 -23 8 -1 1 4 21 12 44 8 22 18
60 21 82 5 30 11 40 21 36 8 -4 18 -6 23 -6z m-531 -64 c6 -8 25 -19 41 -26
l30 -12 -5 -157 -5 -156 -27 -6 c-16 -4 -45 -7 -66 -8 l-37 -1 6 43 c4 23 13
69 20 102 8 33 14 99 14 148 0 85 6 101 29 73z m251 -141 l0 -105 -42 -31 -43
-31 -7 44 c-4 24 -4 79 -1 124 l5 81 42 10 c22 5 42 11 44 12 1 0 2 -46 2
-104z m-110 -46 c0 -117 -2 -129 -19 -139 -40 -21 -42 -15 -36 127 3 75 8 139
10 144 3 4 14 5 25 2 19 -5 20 -14 20 -134z m445 -218 c0 -20 -5 -36 -11 -36
-17 0 -246 243 -239 254 3 6 61 -33 128 -86 116 -91 122 -98 122 -132z m-134
201 c26 -10 129 -116 129 -133 0 -8 -153 105 -200 148 -12 11 -9 11 15 4 17
-5 42 -13 56 -19z m-940 -48 c7 -68 40 -147 96 -231 22 -32 59 -94 83 -138 24
-44 50 -91 58 -105 34 -55 -123 110 -168 177 -65 97 -90 169 -97 277 -5 74 -4
88 8 84 9 -3 16 -26 20 -64z m877 -26 c110 -115 171 -183 172 -189 0 -12 -49
-51 -58 -45 -5 3 -55 68 -110 145 -74 102 -97 142 -89 150 6 6 12 11 13 11 1
0 33 -33 72 -72z m-760 -91 c24 -56 57 -133 73 -172 l29 -70 -45 49 c-77 82
-144 211 -160 305 l-7 45 33 -28 c22 -19 47 -60 77 -129z m762 -21 c54 -76 97
-143 94 -148 -3 -4 -18 -15 -33 -22 l-28 -15 -85 152 c-62 111 -83 155 -75
165 5 7 14 11 19 10 4 -2 53 -66 108 -142z m-66 -39 c42 -79 76 -148 76 -154
0 -10 -58 -39 -63 -32 -2 2 -29 73 -61 156 -52 139 -60 173 -37 173 5 0 43
-65 85 -143z m-59 -45 c31 -85 55 -156 52 -158 -3 -3 -17 -6 -32 -7 -27 -2
-29 2 -81 148 l-53 150 22 17 c12 9 25 14 29 10 3 -4 32 -76 63 -160z m-441
-36 c27 -78 51 -148 54 -155 8 -22 -55 25 -75 55 -8 14 -27 64 -40 112 -14 48
-33 101 -44 118 -26 43 -25 45 19 26 37 -15 39 -19 86 -156z m364 12 c29 -83
49 -155 45 -159 -5 -4 -21 -9 -38 -11 -29 -3 -29 -3 -82 142 -28 80 -52 148
-52 151 -1 5 46 24 70 28 3 1 29 -67 57 -151z m-326 104 c4 -4 27 -63 51 -132
25 -69 48 -133 52 -142 6 -15 2 -18 -23 -18 -17 0 -34 5 -38 11 -9 15 -104
281 -104 292 0 10 50 0 62 -11z m234 -133 c29 -79 48 -148 44 -152 -4 -5 -20
-7 -36 -5 -27 3 -32 10 -81 148 -29 80 -53 146 -53 147 0 3 54 10 65 8 6 -1
33 -66 61 -146z m-90 -9 l52 -145 -27 -6 c-14 -3 -31 -1 -37 5 -12 12 -104
263 -104 284 0 9 11 12 33 10 32 -3 32 -4 83 -148z"/>
<path d="M3886 3059 c-37 -29 -37 -89 0 -118 35 -28 69 -26 99 4 28 27 37 87
10 65 -8 -6 -23 -9 -35 -5 -23 7 -27 43 -5 51 8 4 12 10 9 15 -9 16 -50 10
-78 -12z"/>
<path d="M4257 2818 c5 -10 100 -8 133 2 16 4 -6 7 -56 6 -45 -1 -80 -4 -77
-8z"/>
<path d="M4256 2791 c16 -17 159 -27 168 -12 5 8 -13 11 -61 11 -37 0 -79 3
-93 6 -19 5 -22 4 -14 -5z"/>
<path d="M4235 2771 c-8 -13 4 -19 76 -36 60 -14 138 -20 128 -11 -3 3 -35 10
-73 16 -38 6 -81 17 -97 25 -16 9 -30 11 -34 6z"/>
<path d="M4970 2744 c-90 -23 -136 -44 -96 -44 25 0 189 50 201 61 12 12 6 11
-105 -17z"/>
<path d="M4860 2670 c0 -11 20 -18 123 -40 101 -22 120 -24 95 -10 -25 15
-218 59 -218 50z"/>
<path d="M4852 2628 c5 -13 197 -123 204 -116 4 5 -189 128 -201 128 -4 0 -5
-5 -3 -12z"/>
<path d="M4830 2591 c0 -13 161 -161 174 -161 10 1 -160 170 -170 170 -2 0 -4
-4 -4 -9z"/>
<path d="M3325 3560 c-3 -5 -2 -10 4 -10 5 0 13 5 16 10 3 6 2 10 -4 10 -5 0
-13 -4 -16 -10z"/>
<path d="M3304 3525 c-3 -8 -4 -20 -2 -27 3 -7 7 -1 10 15 6 29 1 36 -8 12z"/>
<path d="M3434 3479 c-3 -6 -1 -16 5 -22 9 -9 10 -7 5 7 -6 16 -4 18 10 13 10
-4 15 -3 11 3 -8 13 -22 13 -31 -1z"/>
<path d="M3487 3455 c-15 -19 -21 -32 -13 -29 16 6 50 53 44 59 -2 2 -16 -11
-31 -30z"/>
<path d="M3289 3462 c5 -10 18 -25 27 -33 11 -9 9 -2 -6 19 -26 35 -36 42 -21
14z"/>
<path d="M3350 3410 c8 -5 22 -9 30 -9 10 0 8 3 -5 9 -27 12 -43 12 -25 0z"/>
<path d="M3395 3250 c10 -11 20 -20 23 -20 3 0 -3 9 -13 20 -10 11 -20 20 -23
20 -3 0 3 -9 13 -20z"/>
<path d="M3255 3160 c3 -5 8 -10 11 -10 2 0 4 5 4 10 0 6 -5 10 -11 10 -5 0
-7 -4 -4 -10z"/>
<path d="M1650 3095 c-25 -8 -64 -30 -87 -50 -49 -41 -108 -153 -119 -221 -6
-41 -13 -51 -70 -96 -37 -29 -67 -60 -70 -75 -9 -35 19 -91 51 -99 14 -3 25
-8 25 -11 0 -3 -17 -35 -37 -71 l-38 -67 -6 65 c-7 82 -36 138 -105 207 -96
96 -204 120 -332 75 -69 -24 -120 -27 -205 -11 -66 12 -92 6 -108 -23 -31 -57
29 -143 145 -210 39 -22 97 -68 129 -102 l58 -61 -33 -14 c-147 -65 -208 -112
-262 -202 -46 -78 -60 -133 -54 -220 4 -51 14 -87 38 -135 39 -81 137 -184
173 -184 50 0 60 43 43 192 -8 74 -7 77 16 92 32 21 171 56 221 56 l40 0 -21
-22 c-11 -13 -30 -43 -41 -67 -19 -45 -19 -45 0 -72 57 -81 139 -113 268 -107
125 6 232 58 285 138 l25 38 38 -19 c53 -27 172 -26 255 2 82 28 134 55 296
151 144 86 204 134 229 182 9 17 26 44 39 59 13 16 24 37 24 46 0 28 -55 96
-113 140 -49 37 -53 43 -49 75 8 65 -70 117 -129 86 -16 -9 -31 -4 -78 25
l-58 36 -7 77 c-6 81 -24 158 -33 148 -3 -3 0 -19 6 -37 6 -18 11 -62 11 -100
l0 -67 -29 11 c-26 10 -29 16 -35 76 -7 65 -30 128 -60 166 -9 11 -4 -7 11
-40 24 -54 45 -175 29 -175 -3 0 -24 7 -46 16 -30 12 -40 22 -40 38 0 35 -55
138 -92 171 l-32 30 37 -51 c43 -59 67 -113 67 -147 0 -20 -4 -23 -34 -19 -29
3 -36 9 -41 32 -9 41 -61 116 -98 142 -29 20 -28 18 10 -24 41 -46 64 -83 77
-125 7 -21 4 -23 -28 -23 -28 0 -38 6 -56 34 -20 34 -86 83 -96 73 -3 -2 11
-15 31 -27 41 -25 70 -64 60 -80 -12 -20 -58 -10 -92 20 -18 17 -41 30 -51 30
-10 -1 -2 -9 19 -20 20 -11 39 -27 43 -36 8 -20 10 -17 -30 -37 -28 -15 -33
-15 -44 -2 -7 8 -22 15 -34 14 -18 0 -17 -2 7 -11 15 -5 27 -13 27 -16 0 -13
-109 -102 -124 -102 -20 0 -56 48 -56 75 0 22 22 45 102 107 28 21 37 37 46
82 23 116 95 217 178 252 18 8 61 14 95 14 102 0 162 -47 228 -178 12 -24 25
-41 28 -38 11 11 -69 136 -112 174 -67 59 -138 74 -225 47z m-553 -360 c58
-30 131 -103 163 -164 23 -45 39 -191 21 -191 -5 0 -12 9 -16 20 -12 38 -94
98 -168 123 -40 13 -81 28 -91 32 -14 6 -17 5 -12 -3 4 -7 39 -21 77 -33 81
-25 153 -70 180 -115 l19 -30 -31 -23 c-29 -22 -32 -22 -76 -7 -26 9 -57 16
-69 16 -13 0 -33 14 -51 35 -55 70 -153 174 -153 164 0 -5 20 -30 45 -54 25
-24 60 -65 78 -92 l32 -48 -37 -2 c-35 -2 -39 1 -58 37 -11 21 -38 54 -61 72
-23 18 -57 49 -77 68 -23 22 -31 27 -24 13 6 -11 35 -40 64 -63 46 -37 113
-118 104 -127 -2 -2 -17 -8 -34 -12 -28 -9 -33 -6 -80 52 -31 39 -71 75 -108
96 -143 83 -174 115 -174 183 0 51 24 63 91 49 72 -16 157 -12 214 9 76 28
169 26 232 -5z m588 -62 c7 -30 23 -53 35 -53 4 0 10 18 14 40 6 35 9 40 34
40 49 -1 116 -21 185 -55 137 -69 439 -296 475 -358 19 -31 12 -48 -32 -81
-64 -48 -244 -8 -233 51 6 31 -8 29 -32 -6 -25 -35 -26 -45 -5 -37 9 4 31 -2
48 -12 52 -31 128 -45 172 -33 46 13 51 9 31 -23 -19 -28 -57 -55 -212 -151
-246 -152 -381 -200 -489 -176 -109 24 -268 162 -328 283 -45 91 -53 134 -33
164 8 13 11 25 6 29 -17 10 -60 -14 -74 -41 -14 -27 -15 -27 -21 -6 -13 40 3
81 37 98 18 9 39 25 48 37 17 20 17 20 23 0 5 -17 43 -43 62 -43 3 0 2 16 -2
35 -4 25 -1 43 10 60 9 14 13 25 8 25 -16 0 -35 -48 -30 -74 7 -35 -18 -35
-34 0 -11 24 -9 29 17 52 26 22 27 24 6 17 l-23 -7 24 41 c27 47 34 50 42 17
4 -15 17 -28 36 -35 l31 -10 -7 37 c-4 20 -8 39 -10 41 -2 2 4 17 12 34 12 22
13 31 4 37 -26 16 117 89 176 90 16 0 24 -8 29 -27z m41 11 c-3 -9 -6 -20 -6
-25 0 -6 -4 -7 -10 -4 -16 10 -12 45 6 45 11 0 14 -5 10 -16z m-261 -108 c-12
-17 -14 -35 -9 -60 5 -30 4 -35 -9 -31 -13 6 -37 46 -37 64 0 14 41 51 56 51
12 0 12 -3 -1 -24z m799 -42 c16 -17 26 -38 26 -56 0 -37 -21 -33 -32 7 -8 31
-23 45 -52 45 -16 0 -17 -2 -5 -17 12 -14 9 -13 -15 2 -26 18 -27 20 -10 32
28 20 59 16 88 -13z m-1076 -213 c8 -5 16 -15 18 -24 2 -16 -83 -45 -216 -72
-141 -28 -223 -88 -276 -200 -13 -27 -23 -66 -23 -85 l1 -35 8 42 c19 91 90
187 169 228 25 12 91 32 146 43 55 12 119 27 141 36 41 14 42 14 55 -12 7 -15
15 -30 17 -33 6 -12 -77 -39 -196 -64 -143 -31 -214 -64 -247 -113 -22 -33
-56 -114 -55 -131 1 -13 29 45 30 60 0 31 61 101 104 120 24 10 104 33 177 50
74 17 149 40 168 51 30 17 36 17 48 5 13 -12 11 -19 -16 -49 -39 -44 -80 -62
-220 -93 -63 -14 -129 -32 -148 -40 -95 -40 -134 -98 -131 -197 0 -35 3 -47 5
-28 17 173 45 198 291 254 122 27 180 52 211 92 38 48 23 -1 -20 -65 -57 -85
-105 -111 -221 -122 -157 -15 -259 -62 -243 -114 3 -11 9 -61 12 -110 6 -98
-5 -123 -46 -110 -34 10 -123 117 -155 185 -27 57 -31 76 -31 150 0 77 3 91
35 154 69 136 233 237 415 256 58 6 158 -9 193 -29z m112 -56 c-7 -9 -10 -27
-6 -45 6 -32 -2 -38 -22 -18 -19 19 -14 55 10 72 26 18 36 13 18 -9z m38 -181
c23 -43 58 -95 77 -114 19 -20 35 -39 35 -43 0 -12 -42 -7 -120 13 -41 11 -97
20 -124 20 l-49 0 47 50 c49 52 93 132 76 138 -15 5 -12 24 3 20 6 -3 31 -40
55 -84z m-22 -155 c50 -13 94 -18 122 -15 23 3 42 3 42 0 0 -3 -26 -16 -57
-30 -67 -30 -148 -33 -233 -10 -69 19 -76 14 -13 -10 33 -13 74 -19 128 -19
68 0 88 5 133 28 50 26 53 27 77 11 14 -9 25 -19 25 -23 0 -11 -65 -58 -120
-87 -51 -27 -63 -29 -172 -29 -64 0 -111 -3 -105 -7 7 -4 56 -8 109 -8 116 0
182 21 259 82 28 22 52 38 54 36 10 -10 -39 -71 -81 -101 -72 -53 -135 -71
-239 -72 -79 0 -97 4 -147 28 -63 31 -98 67 -98 102 0 29 53 101 93 125 42 26
121 26 223 -1z"/>
<path d="M801 2656 c2 -2 18 -6 34 -10 22 -5 26 -4 15 4 -14 9 -59 15 -49 6z"/>
<path d="M888 2629 c9 -10 44 -14 125 -15 62 0 124 -5 138 -11 38 -16 88 -61
105 -95 9 -16 18 -28 21 -25 3 3 -9 26 -26 51 -21 30 -48 53 -84 70 -47 24
-63 26 -148 24 -52 -1 -105 1 -119 6 -21 7 -23 6 -12 -5z"/>
<path d="M940 2586 c0 -3 9 -10 20 -16 11 -6 20 -8 20 -6 0 3 -9 10 -20 16
-11 6 -20 8 -20 6z"/>
<path d="M1782 2655 c-48 -35 -67 -113 -36 -151 15 -18 15 -18 9 6 -4 14 -9
34 -11 45 -3 11 5 35 18 55 20 30 29 35 63 35 46 0 58 -20 16 -28 -21 -4 -39
-19 -57 -47 -15 -22 -24 -43 -21 -46 3 -3 13 8 21 24 19 37 53 62 83 62 13 0
23 6 23 14 0 35 -72 56 -108 31z"/>
<path d="M1594 2618 c-26 -12 -44 -48 -44 -87 0 -30 24 -70 35 -59 4 4 0 14
-9 23 -20 21 -20 48 -1 85 12 24 22 30 47 30 l31 0 -27 -25 c-27 -25 -51 -73
-41 -83 3 -3 10 9 16 27 7 18 25 41 41 51 l30 18 -23 16 c-27 18 -27 18 -55 4z"/>
<path d="M1855 2508 c-45 -53 -83 -131 -99 -200 -12 -57 -25 -66 -69 -49 -25
10 -27 15 -27 66 0 59 19 108 46 123 25 14 7 32 -32 32 -53 0 -84 -36 -84 -99
0 -27 5 -53 10 -56 22 -14 7 -20 -46 -20 l-56 0 5 40 c4 25 14 47 28 58 19 15
20 20 8 28 -66 42 -126 -69 -71 -133 11 -13 12 -21 4 -30 -11 -14 -16 -46 -14
-89 3 -35 56 -87 98 -95 44 -8 107 15 154 56 l35 31 -49 -31 c-89 -54 -172
-53 -206 3 -40 65 -13 140 56 153 28 5 48 0 99 -26 40 -20 72 -30 86 -27 19 5
21 2 17 -25 -6 -39 22 -134 57 -193 37 -64 39 -56 5 17 -74 157 -59 289 50
449 22 33 38 59 36 59 -3 0 -21 -19 -41 -42z m-163 -44 c3 -3 -5 -16 -18 -29
-20 -20 -24 -34 -24 -82 l-1 -58 -25 29 c-22 25 -25 36 -21 70 4 25 14 48 27
58 22 18 51 23 62 12z m-162 -39 c0 -3 -9 -14 -20 -25 -14 -14 -20 -33 -20
-61 0 -36 -2 -40 -15 -29 -24 20 -19 86 7 104 22 15 48 21 48 11z"/>
<path d="M1967 2490 c-15 -12 -29 -36 -33 -55 -18 -99 88 -164 165 -99 53 45
50 116 -8 161 -26 20 -95 16 -124 -7z m128 -15 c38 -37 35 -95 -7 -130 -57
-48 -132 -18 -145 58 -5 31 -1 40 25 67 39 39 91 41 127 5z"/>
<path d="M2020 2455 c7 -8 10 -22 6 -30 -7 -18 -33 -20 -39 -2 -2 6 -8 8 -13
4 -5 -5 -2 -20 7 -35 19 -34 76 -43 96 -16 29 40 2 94 -47 94 -19 0 -20 -2
-10 -15z"/>
<path d="M1380 2250 c-24 -24 -26 -60 -5 -100 14 -26 50 -48 61 -37 3 2 0 25
-7 51 -10 39 -9 50 5 71 21 32 20 35 -9 35 -14 0 -34 -9 -45 -20z m50 1 c0 -6
-5 -13 -11 -17 -7 -4 -9 -24 -6 -55 7 -58 -7 -65 -28 -15 -14 34 -12 58 8 84
11 14 37 16 37 3z"/>
<path d="M1668 2220 c33 -14 27 -23 -10 -15 -25 5 -29 4 -18 -4 8 -6 28 -11
43 -11 25 0 27 2 17 20 -6 11 -20 20 -33 19 l-22 0 23 -9z"/>
<path d="M1650 2160 c-25 -11 -38 -19 -29 -19 20 -1 81 19 94 30 15 14 -16 9
-65 -11z"/>
<path d="M965 2305 c-77 -21 -211 -94 -261 -143 -86 -82 -110 -179 -74 -292
12 -38 28 -74 35 -80 7 -6 2 17 -12 51 -21 51 -24 75 -21 134 4 87 38 150 111
205 100 76 205 116 342 129 l80 8 -75 1 c-41 0 -97 -6 -125 -13z"/>
<path d="M1470 1860 c-76 -56 -181 -72 -295 -46 -33 8 -62 13 -64 11 -7 -8 46
-23 120 -34 60 -9 84 -9 130 3 56 15 149 64 149 78 0 13 -13 9 -40 -12z"/>
<path d="M2416 3051 c-16 -11 -37 -32 -46 -48 -21 -33 -35 -87 -22 -79 6 3 13
21 16 39 6 33 40 73 81 95 11 6 16 11 10 12 -5 0 -23 -9 -39 -19z"/>
<path d="M2555 3055 c17 -9 42 -30 58 -47 15 -18 27 -28 27 -23 -1 25 -72 85
-100 85 -8 0 -1 -7 15 -15z"/>
<path d="M2490 3037 c38 -19 30 -39 -24 -57 -60 -20 -94 -61 -77 -93 11 -21
11 -21 6 5 -4 21 2 32 26 52 17 14 38 26 48 26 19 0 61 27 61 40 0 15 -31 40
-48 40 -12 0 -9 -4 8 -13z"/>
<path d="M2413 3016 c-15 -13 -26 -27 -23 -29 3 -3 20 8 38 24 39 35 25 39
-15 5z"/>
<path d="M2381 2954 c0 -11 3 -14 6 -6 3 7 2 16 -1 19 -3 4 -6 -2 -5 -13z"/>
<path d="M2642 2917 c-4 -81 -62 -137 -143 -137 -70 0 -139 57 -139 115 0 8
-5 15 -10 15 -13 0 15 -67 38 -93 89 -99 273 -28 259 100 l-4 38 -1 -38z"/>
<path d="M2544 2859 c-3 -6 0 -17 7 -25 18 -17 44 -2 36 20 -7 18 -33 21 -43
5z m34 -10 c-2 -6 -8 -10 -13 -10 -5 0 -11 4 -13 10 -2 6 4 11 13 11 9 0 15
-5 13 -11z"/>
<path d="M2573 2663 c-10 -10 -14 -15 -9 -10 18 13 29 7 15 -10 -13 -15 -12
-15 9 -2 12 8 18 15 12 17 -6 2 -8 8 -4 13 9 15 -2 10 -23 -8z"/>
<path d="M2681 2678 c2 -2 16 -14 32 -27 15 -14 27 -22 27 -18 0 10 -42 47
-54 47 -5 0 -7 -1 -5 -2z"/>
<path d="M2655 2649 c4 -10 -2 -19 -17 -27 -13 -6 -18 -11 -12 -11 5 -1 19 5
30 13 16 12 17 17 6 28 -11 11 -12 10 -7 -3z"/>
<path d="M2576 2594 c-5 -14 -4 -15 9 -4 17 14 19 20 6 20 -5 0 -12 -7 -15
-16z"/>
<path d="M2556 2555 c4 -8 8 -15 10 -15 2 0 4 7 4 15 0 8 -4 15 -10 15 -5 0
-7 -7 -4 -15z"/>
<path d="M2673 2520 c2 -8 10 -15 17 -15 7 0 15 7 17 15 4 13 3 13 -6 0 -10
-13 -12 -13 -22 0 -9 13 -10 13 -6 0z"/>
<path d="M2549 2506 c13 -16 51 -41 51 -33 0 2 -15 14 -32 27 -21 15 -28 17
-19 6z"/>
<path d="M2719 2503 c-8 -9 -27 -22 -44 -29 -16 -7 -24 -13 -17 -14 19 0 70
31 76 47 7 18 1 16 -15 -4z"/>
<path d="M3260 1764 c-87 -35 -126 -84 -137 -171 -5 -48 -6 -49 -53 -66 -26
-9 -75 -37 -107 -61 -55 -40 -63 -43 -109 -39 -43 5 -54 2 -82 -22 -55 -46
-59 -110 -11 -176 7 -9 9 -27 6 -41 -5 -20 -16 -28 -50 -36 -86 -22 -99 -79
-30 -126 29 -20 37 -32 37 -58 1 -39 35 -61 82 -53 24 4 50 -5 116 -40 166
-88 298 -121 457 -113 64 4 119 13 167 29 l72 25 31 -38 c33 -39 79 -56 126
-44 35 9 95 72 95 101 0 27 -45 85 -66 85 -8 0 -14 1 -14 3 0 5 162 168 165
165 1 -2 7 -16 14 -33 l11 -30 -6 35 c-7 39 -7 39 2 93 4 27 2 43 -9 55 -13
15 -13 30 -2 113 16 125 40 195 72 216 51 33 142 13 168 -38 29 -55 20 -97
-45 -202 -33 -54 -60 -106 -60 -117 0 -10 27 -50 61 -87 34 -37 70 -81 80 -98
21 -33 25 -105 8 -137 -23 -42 -124 -63 -166 -33 -30 21 -63 77 -84 143 -10
32 -18 47 -18 36 -2 -62 69 -183 119 -204 59 -24 161 28 175 89 12 54 -11 102
-89 191 -42 47 -75 91 -76 99 0 7 27 57 60 112 63 104 75 155 49 212 -27 60
-145 83 -192 39 -42 -40 -69 -117 -75 -214 -3 -49 -7 -88 -10 -88 -2 0 -36 29
-73 65 -38 36 -87 77 -109 91 -33 22 -38 29 -30 44 15 29 12 62 -10 97 -24 41
-61 60 -140 72 -70 12 -80 18 -121 78 -17 24 -43 50 -60 59 -33 16 -115 27
-139 18z m130 -29 c16 -8 43 -35 60 -60 39 -57 62 -71 127 -78 66 -8 109 -30
133 -70 22 -35 24 -55 11 -76 -8 -12 -14 -12 -40 -1 -40 16 -46 27 -30 48 12
15 11 15 -7 -1 -18 -15 -26 -16 -48 -6 -25 12 -26 13 -9 33 18 21 18 21 -4 3
-19 -16 -26 -17 -62 -6 -41 12 -50 22 -31 34 6 3 10 12 10 18 0 7 -8 2 -18
-11 -14 -18 -23 -21 -50 -16 -28 6 -33 10 -28 28 5 19 4 20 -8 4 -8 -12 -27
-18 -50 -18 -32 0 -36 3 -37 28 l-1 27 -10 -27 c-8 -23 -16 -28 -45 -28 -33 0
-35 2 -29 26 5 17 3 23 -4 19 -5 -3 -10 -15 -10 -26 0 -10 -4 -19 -9 -19 -5 0
-23 -3 -40 -6 -31 -6 -31 -6 -25 27 12 70 26 99 65 133 36 33 44 36 100 36 34
0 73 -7 89 -15z m-34 -191 c46 -6 50 -9 47 -28 -9 -45 53 -62 71 -20 10 21 10
22 61 4 78 -27 117 -50 112 -64 -9 -22 13 -36 33 -23 24 14 104 -40 206 -140
67 -65 74 -75 74 -111 0 -49 -24 -74 -44 -47 -16 22 -56 15 -87 -16 -26 -26
-22 -72 6 -77 l20 -4 -20 16 c-19 14 -19 17 -5 43 11 20 25 29 48 31 48 5 42
-27 -15 -89 -140 -150 -347 -248 -526 -249 -120 0 -289 50 -427 128 -53 30
-73 36 -111 34 -49 -4 -76 14 -65 43 6 18 8 18 96 35 36 6 86 23 111 37 l46
25 -21 22 c-25 26 -32 25 -17 -2 9 -18 5 -22 -42 -43 -32 -14 -78 -24 -122
-27 -64 -4 -72 -2 -97 22 -48 44 -34 79 37 94 36 7 40 12 65 74 99 245 302
363 566 332z m98 -20 c21 -8 20 -30 -1 -38 -19 -8 -48 17 -39 33 8 12 17 14
40 5z m226 -94 c0 -5 -7 -10 -16 -10 -8 0 -12 5 -9 10 3 6 10 10 16 10 5 0 9
-4 9 -10z m-812 -16 c18 -5 20 -9 11 -20 -6 -8 -21 -14 -33 -14 -37 0 -66 -28
-66 -64 0 -17 5 -37 10 -42 7 -7 6 -16 -4 -29 -13 -18 -14 -17 -30 13 -22 43
-20 84 5 116 31 39 63 51 107 40z m949 -514 c60 -36 51 -96 -20 -141 -45 -28
-92 -19 -137 26 -28 29 -32 37 -21 45 10 6 24 2 42 -11 35 -25 52 -24 19 1
-20 15 -22 22 -13 31 10 10 16 9 28 -1 8 -7 18 -10 22 -7 3 4 -2 9 -11 13 -24
9 1 36 28 29 12 -3 15 -2 8 1 -10 5 -10 9 -1 20 15 18 18 18 56 -6z"/>
<path d="M3252 1485 c2 -5 24 -42 50 -81 115 -174 126 -327 37 -509 -22 -44
-24 -53 -9 -35 67 82 102 226 81 337 -15 85 -68 194 -121 253 -23 25 -40 41
-38 35z"/>
<path d="M3479 1451 l-24 -19 21 -29 c28 -37 81 -43 109 -13 20 22 20 22 -13
51 -38 34 -61 36 -93 10z m87 -15 c15 -12 17 -18 8 -33 -24 -40 -107 -11 -91
32 8 19 57 20 83 1z"/>
<path d="M3050 1392 c-22 -10 -42 -32 -54 -56 -17 -36 -18 -43 -5 -80 15 -45
66 -86 106 -86 58 0 123 64 123 120 0 38 -36 90 -75 106 -44 18 -53 18 -95 -4z
m121 -31 c23 -24 29 -38 29 -74 0 -38 -5 -49 -31 -71 -69 -59 -169 -15 -169
74 0 58 42 100 100 100 33 0 48 -6 71 -29z"/>
<path d="M3050 1331 c-12 -23 -13 -61 -2 -77 9 -13 46 -34 62 -34 19 0 60 48
60 70 0 18 -2 19 -20 8 -16 -10 -22 -10 -36 3 -14 15 -14 18 1 33 15 15 14 16
-19 16 -25 0 -38 -6 -46 -19z"/>
<path d="M3570 1274 c-32 -22 -60 -34 -71 -31 -10 3 -19 1 -19 -4 0 -19 48 -8
86 20 54 39 77 45 113 26 39 -20 51 -43 51 -98 0 -127 -122 -159 -215 -56 -36
41 -47 41 -19 0 24 -34 103 -81 137 -81 88 0 147 126 97 208 -38 61 -87 66
-160 16z"/>
<path d="M3538 1213 c-10 -2 -18 -13 -18 -24 0 -20 20 -24 55 -9 17 7 14 9
-15 10 -31 1 -33 2 -12 10 12 5 22 12 22 15 0 5 -5 5 -32 -2z"/>
<path d="M3845 1200 c-8 -25 1 -40 25 -40 21 0 40 28 33 48 -8 20 -51 14 -58
-8z m45 -5 c0 -16 -27 -32 -37 -22 -3 4 -3 13 0 22 8 20 37 20 37 0z"/>
<path d="M3510 1151 c0 -9 54 -31 74 -31 11 1 -53 39 -66 40 -5 0 -8 -4 -8 -9z"/>
<path d="M3784 1139 c-3 -6 0 -17 8 -25 13 -13 16 -13 27 0 7 8 10 20 6 26 -8
13 -32 13 -41 -1z m26 -9 c0 -5 -5 -10 -11 -10 -5 0 -7 5 -4 10 3 6 8 10 11
10 2 0 4 -4 4 -10z"/>
<path d="M3000 1070 c0 -5 7 -7 15 -4 8 4 15 8 15 10 0 2 -7 4 -15 4 -8 0 -15
-4 -15 -10z"/>
<path d="M3532 1000 c-26 -11 -45 -54 -37 -81 14 -42 97 -13 109 37 12 45 -20
65 -72 44z m56 -32 c3 -28 -28 -58 -61 -58 -39 0 -27 62 16 80 31 12 42 7 45
-22z"/>
<path d="M3551 881 c-15 -10 -8 -41 9 -41 15 0 25 29 14 40 -5 5 -15 5 -23 1z"/>
<path d="M3465 864 c-18 -19 -16 -33 7 -48 12 -7 21 -6 32 3 21 17 21 47 0 55
-21 8 -20 8 -39 -10z m40 -4 c7 -12 -12 -40 -26 -40 -10 0 -12 34 -2 43 9 10
21 9 28 -3z"/>
<path d="M2379 1598 c-5 -19 -8 -50 -4 -46 7 7 15 48 9 48 -2 0 -4 -1 -5 -2z"/>
<path d="M2515 1580 c10 -11 20 -20 22 -20 2 0 -2 9 -9 20 -7 11 -17 20 -22
20 -5 0 -1 -9 9 -20z"/>
<path d="M2386 1529 c-15 -12 -26 -30 -25 -42 1 -20 2 -20 8 3 4 15 21 32 41
42 19 10 28 18 19 18 -9 0 -28 -9 -43 -21z"/>
<path d="M2547 1529 c4 -13 8 -18 11 -10 2 7 -1 18 -6 23 -8 8 -9 4 -5 -13z"/>
<path d="M2551 1484 c0 -11 3 -14 6 -6 3 7 2 16 -1 19 -3 4 -6 -2 -5 -13z"/>
<path d="M2482 1456 c1 -10 8 -17 13 -17 15 1 12 24 -3 29 -9 3 -13 -2 -10
-12z"/>
<path d="M2357 1435 c10 -13 25 -27 33 -30 8 -4 2 8 -14 24 -36 37 -43 40 -19
6z"/>
<path d="M2515 1428 c-23 -24 -25 -28 -7 -19 12 6 26 20 32 31 14 27 10 25
-25 -12z"/>
<path d="M4031 1379 c-1 -10 -14 -50 -31 -90 -34 -85 -33 -79 -21 -79 12 0 64
156 58 173 -4 7 -6 6 -6 -4z"/>
<path d="M4041 1259 c-29 -33 -50 -63 -46 -67 3 -4 15 4 26 18 31 39 80 110
77 110 -2 0 -28 -27 -57 -61z"/>
<path d="M2332 1200 c0 -14 2 -19 5 -12 2 6 2 18 0 25 -3 6 -5 1 -5 -13z"/>
<path d="M4008 1173 c6 -2 18 -2 25 0 6 3 1 5 -13 5 -14 0 -19 -2 -12 -5z"/>
<path d="M3996 1134 c-7 -18 -7 -18 53 -102 62 -86 64 -69 3 23 -27 41 -47 75
-43 75 4 0 38 -20 75 -45 82 -55 78 -41 -6 21 -67 49 -73 51 -82 28z"/>
</g>
</svg>
