<?xml version="1.0" standalone="no"?>
<!DOCTYPE svg PUBLIC "-//W3C//DTD SVG 20010904//EN"
 "http://www.w3.org/TR/2001/REC-SVG-20010904/DTD/svg10.dtd">
<svg version="1.0" xmlns="http://www.w3.org/2000/svg"
 width="564.000000pt" height="701.000000pt" viewBox="0 0 564.000000 701.000000"
 preserveAspectRatio="xMidYMid meet">

<g transform="translate(0.000000,701.000000) scale(0.100000,-0.100000)"
fill="#000000" stroke="none">
<path d="M2055 6542 c-46 -28 -168 -163 -268 -297 -177 -237 -557 -823 -803
-1237 -97 -165 -100 -168 -146 -183 -25 -9 -67 -34 -92 -56 -53 -47 -63 -82
-47 -158 10 -50 10 -50 -63 -203 -91 -189 -149 -324 -183 -428 -24 -74 -25
-84 -14 -134 22 -97 94 -177 191 -211 60 -21 165 -19 216 4 91 41 117 77 253
351 70 140 143 289 161 332 l34 76 76 11 c41 7 158 18 260 27 102 8 262 21
355 29 233 21 211 24 225 -37 42 -176 169 -498 249 -628 87 -144 176 -208 271
-197 105 13 202 82 241 173 39 92 24 188 -61 394 -90 220 -76 168 -256 965
-87 381 -150 687 -214 1025 -35 184 -61 252 -123 319 -69 73 -195 103 -262 63z
m166 -53 c49 -24 103 -89 128 -152 11 -29 36 -137 56 -242 63 -330 124 -617
226 -1070 143 -627 152 -662 224 -841 101 -252 111 -305 71 -389 -60 -131
-218 -185 -314 -108 -59 47 -108 119 -171 248 -75 153 -112 253 -166 440 l-43
150 -59 -1 c-148 -1 -894 -72 -908 -86 -2 -1 -32 -67 -68 -144 -115 -248 -254
-518 -285 -551 -118 -126 -338 -92 -412 64 -43 92 -12 189 215 656 45 93 47
101 36 137 -26 87 -6 129 84 171 33 16 65 29 71 29 6 0 55 75 109 168 349 594
811 1283 979 1461 92 96 134 108 227 60z"/>
<path d="M2099 6381 c-21 -22 -29 -39 -29 -66 0 -73 88 -121 146 -80 28 19 48
69 40 101 -19 74 -103 98 -157 45z m99 -33 c7 -7 12 -21 12 -33 0 -29 -19 -45
-52 -45 -25 0 -48 23 -48 49 0 33 63 54 88 29z"/>
<path d="M2168 6170 c-38 -29 -39 -71 -6 -190 57 -208 117 -360 152 -389 18
-15 62 -7 88 16 30 27 31 73 3 199 -46 204 -103 351 -144 374 -30 16 -66 12
-93 -10z m122 -127 c25 -67 77 -271 86 -338 5 -29 2 -50 -6 -60 -35 -42 -55
-6 -130 239 -66 212 -67 219 -39 247 l22 22 23 -26 c12 -14 32 -52 44 -84z"/>
<path d="M1912 5548 c-237 -397 -373 -640 -368 -654 5 -12 14 -15 36 -10 53
10 200 25 365 36 87 6 164 15 171 21 12 10 5 49 -79 474 -33 166 -45 210 -59
213 -11 2 -31 -22 -66 -80z m118 -336 c26 -134 40 -226 34 -231 -5 -5 -85 -14
-179 -20 -93 -6 -194 -14 -224 -18 l-55 -6 21 34 c11 19 92 155 179 303 l158
269 12 -54 c6 -30 31 -154 54 -277z"/>
<path d="M4095 6460 c-11 -5 -37 -9 -57 -9 -21 -1 -38 -5 -38 -11 0 -5 16 -28
36 -50 43 -47 123 -80 195 -80 43 0 50 -3 45 -16 -3 -9 -6 -18 -6 -20 0 -9
-50 -3 -90 11 -86 30 -178 8 -246 -61 -71 -71 -89 -114 -89 -219 0 -82 3 -97
33 -158 20 -39 56 -90 86 -120 l53 -52 -76 -29 c-151 -56 -299 -155 -428 -287
-159 -162 -249 -321 -300 -531 -22 -91 -25 -433 -5 -543 54 -293 195 -505 411
-619 118 -62 222 -89 404 -106 189 -17 336 16 589 132 l67 30 48 -40 c127
-106 208 -139 294 -121 65 14 82 22 137 66 48 39 76 88 86 149 8 43 -10 97
-93 276 -103 226 -114 285 -115 648 -1 305 12 428 51 505 33 64 35 142 6 200
-55 107 -233 216 -451 275 -42 12 -83 23 -90 25 -8 3 3 27 32 73 67 102 89
178 84 282 -7 137 -47 190 -170 225 -52 15 -61 15 -118 0 -34 -9 -64 -15 -66
-13 -2 2 8 26 21 53 13 28 25 68 27 90 3 40 3 40 -32 40 -35 0 -35 -1 -33 -40
l3 -40 -25 31 c-40 51 -127 77 -180 54z m115 -25 c31 -16 70 -61 70 -80 0 -10
-10 -11 -39 -4 -52 12 -151 48 -175 65 -17 12 -16 13 15 22 51 15 97 14 129
-3z m136 -12 c-3 -10 -10 -37 -16 -60 -6 -24 -12 -43 -14 -43 -2 0 -4 27 -4
60 0 53 2 60 20 60 14 0 18 -5 14 -17z m-166 -74 c25 -7 49 -16 55 -21 34 -30
-134 26 -170 57 l-30 25 50 -24 c28 -13 70 -30 95 -37z m16 -102 c88 -61 154
-85 154 -57 0 6 -10 10 -22 10 -52 1 -48 17 13 46 89 42 162 36 243 -19 100
-70 89 -288 -23 -452 -83 -122 -170 -167 -255 -131 -21 9 -59 16 -85 15 -25 0
-40 -3 -33 -6 24 -9 1 -22 -31 -16 -98 18 -211 113 -264 221 -24 50 -28 69
-28 147 0 80 3 95 27 135 54 92 126 139 214 140 31 0 54 -8 90 -33z m444 -614
c105 -30 253 -99 316 -147 107 -82 138 -170 89 -260 -40 -75 -55 -213 -55
-513 0 -379 10 -436 122 -685 43 -97 82 -192 85 -211 16 -103 -94 -210 -217
-211 -47 -1 -65 5 -114 34 -31 19 -83 56 -114 82 -31 26 -62 48 -68 48 -6 0
-56 -20 -110 -44 -249 -110 -376 -137 -561 -118 -251 25 -396 85 -534 222 -73
72 -94 101 -133 181 -59 121 -91 248 -107 421 -33 362 68 656 311 899 136 136
273 224 443 284 70 25 82 27 116 15 24 -7 64 -10 109 -7 39 3 87 1 107 -4 41
-12 133 10 155 36 15 18 28 16 160 -22z"/>
<path d="M4382 5590 c-12 -5 -29 -25 -38 -44 -47 -97 71 -183 147 -107 76 77
-7 192 -109 151z m82 -62 c13 -19 14 -25 2 -43 -26 -40 -86 -27 -86 19 0 47
57 63 84 24z"/>
<path d="M4581 5557 c-13 -8 -30 -25 -37 -38 -35 -63 -3 -108 104 -143 64 -22
81 -32 102 -63 53 -78 138 -97 184 -42 14 17 26 42 26 55 0 62 -93 174 -178
215 -57 28 -165 37 -201 16z m175 -56 c125 -57 206 -211 111 -211 -26 0 -42
10 -87 59 -42 44 -64 60 -92 65 -68 12 -108 34 -108 59 0 13 5 28 12 35 18 18
117 14 164 -7z"/>
<path d="M4235 5241 c-156 -45 -281 -138 -388 -287 -88 -122 -122 -239 -122
-414 0 -205 41 -337 132 -428 72 -72 139 -95 273 -94 125 0 229 29 327 89 93
57 113 78 108 110 -23 141 -55 508 -55 633 0 57 7 160 16 228 9 67 14 129 11
136 -17 43 -194 59 -302 27z m207 -31 c21 -6 40 -15 43 -20 3 -5 -2 -76 -11
-157 -14 -128 -15 -171 -5 -323 10 -153 28 -334 46 -466 l6 -42 -63 -40 c-35
-21 -97 -52 -138 -67 -65 -24 -90 -28 -190 -29 -106 -1 -119 1 -166 26 -127
67 -181 181 -191 408 -9 220 38 356 176 503 135 143 252 200 441 216 8 0 32
-4 52 -9z"/>
<path d="M2389 3161 c-50 -10 -101 -44 -151 -100 -62 -69 -80 -124 -85 -262
-6 -128 15 -258 63 -388 l23 -66 -21 -57 c-14 -41 -26 -58 -38 -58 -10 0 -55
-19 -101 -42 -65 -32 -104 -62 -181 -137 -89 -87 -98 -99 -98 -133 0 -25 -6
-40 -17 -47 -10 -5 -40 -32 -68 -59 l-49 -51 -22 40 c-31 54 -106 150 -176
224 -130 139 -262 138 -362 -2 -22 -31 -29 -56 -33 -107 -11 -131 33 -202 173
-283 70 -41 311 -143 337 -143 9 0 18 -15 22 -37 11 -61 52 -137 97 -183 52
-52 158 -104 214 -105 40 -1 45 -5 118 -93 82 -99 139 -146 225 -187 108 -52
186 -42 230 28 l20 33 73 -9 c159 -20 441 10 689 73 l116 29 66 -35 c90 -48
251 -107 382 -140 197 -49 407 -34 562 42 76 37 98 77 98 179 0 61 -6 91 -22
128 -27 58 -127 164 -235 249 -43 34 -78 63 -78 64 0 2 25 41 57 86 86 128
156 278 161 349 4 52 7 59 26 59 33 1 98 34 128 66 40 43 50 77 38 130 -17 76
-49 125 -131 204 -62 59 -79 82 -79 104 0 41 -46 172 -86 243 -45 80 -135 170
-210 208 -53 27 -69 30 -149 30 -71 0 -99 -4 -131 -21 l-41 -20 -32 37 c-17
21 -57 50 -88 66 -50 24 -69 28 -138 27 -53 -1 -91 -7 -112 -17 -70 -36 -94
-169 -52 -282 22 -58 99 -172 180 -266 39 -45 49 -64 49 -92 l0 -35 -142 -46
c-79 -26 -148 -49 -155 -52 -6 -3 -14 5 -18 18 -13 44 -132 273 -188 363 -30
50 -94 138 -141 196 -163 203 -269 277 -408 284 -40 2 -89 1 -109 -4z m164
-56 c142 -37 213 -101 384 -346 109 -156 279 -467 260 -475 -7 -2 -72 -22
-145 -44 -73 -22 -141 -44 -151 -50 -16 -8 -20 -4 -30 38 -32 125 -104 222
-203 271 -51 26 -73 31 -132 31 -90 0 -137 -21 -212 -94 -32 -31 -59 -55 -60
-53 -1 1 -13 38 -27 82 -36 114 -50 215 -45 330 2 82 8 110 29 155 28 60 92
129 142 154 41 20 116 20 190 1z m1034 -66 c15 -5 44 -27 63 -48 19 -21 42
-40 49 -43 12 -3 8 -13 -16 -44 -40 -52 -68 -122 -101 -255 l-28 -110 -50 62
c-27 34 -63 79 -81 101 -51 63 -75 140 -71 225 2 40 8 77 14 83 34 34 163 51
221 29z m468 -108 c67 -33 117 -81 158 -152 28 -48 119 -259 111 -259 -2 0
-27 12 -54 26 -140 73 -354 72 -462 -2 -92 -64 -92 -149 -1 -262 70 -86 274
-197 433 -235 89 -21 90 -21 90 -52 0 -89 -62 -235 -157 -366 l-55 -77 -181
114 c-100 63 -210 129 -244 146 l-61 32 -113 -18 c-304 -48 -473 -119 -536
-226 -27 -44 -33 -65 -33 -110 0 -70 27 -115 130 -218 68 -68 212 -184 242
-195 7 -2 11 -7 8 -9 -3 -3 -86 -22 -185 -43 -237 -49 -412 -61 -580 -40 l-40
5 3 54 c9 138 -57 224 -240 313 l-78 38 0 40 c0 153 -119 348 -252 414 -34 17
-74 31 -90 31 -41 0 -36 26 20 95 62 78 150 148 238 191 l71 34 74 -19 c176
-45 299 -116 396 -229 73 -85 70 -82 123 -80 54 2 295 43 368 63 28 8 78 22
110 31 31 9 77 28 102 42 48 27 136 105 151 133 20 39 69 265 89 414 18 136
27 171 56 231 39 83 112 156 171 173 63 17 148 6 218 -28z m95 -391 c107 -23
159 -50 225 -118 51 -51 125 -144 143 -179 22 -41 14 -87 -22 -129 l-34 -39
-73 1 c-145 3 -355 78 -479 173 -60 45 -130 140 -130 176 0 64 118 133 231
134 25 1 87 -8 139 -19z m-1502 -77 c81 -38 156 -142 182 -253 16 -67 17 -190
1 -247 -11 -39 -15 -43 -42 -43 -24 0 -46 16 -117 88 -72 72 -104 96 -187 139
-55 28 -130 61 -167 73 -38 13 -68 26 -68 30 0 18 81 129 122 166 40 37 69 52
133 68 33 8 104 -3 143 -21z m873 -191 c-32 -103 -63 -147 -134 -186 -130 -71
-394 -156 -490 -156 -27 0 -27 1 -20 43 5 23 8 70 8 105 l0 63 95 29 c52 15
149 44 215 63 66 20 170 53 230 75 61 21 111 36 113 32 1 -3 -6 -34 -17 -68z
m-2197 -203 c66 -18 197 -155 279 -292 l35 -58 -19 -45 c-11 -24 -23 -67 -26
-94 -3 -28 -8 -50 -11 -50 -11 0 -329 143 -359 161 -40 25 -86 94 -103 154
-17 59 0 119 48 175 51 60 82 70 156 49z m595 -251 c51 -25 149 -121 186 -183
22 -36 71 -213 62 -222 -2 -2 -21 3 -43 10 -68 24 -174 41 -186 29 -13 -13 -2
-32 21 -32 43 0 206 -56 309 -106 192 -93 247 -176 211 -319 -15 -61 -49 -95
-93 -95 -65 0 -168 51 -247 121 -37 33 -147 173 -208 263 -57 84 -61 88 -80
76 -11 -6 -5 -22 27 -74 23 -36 42 -68 42 -72 0 -13 -76 8 -117 32 -61 35
-112 91 -140 152 -53 113 -13 279 93 392 55 59 88 64 163 28z m1777 -64 c100
-50 382 -227 479 -300 218 -163 299 -278 281 -399 -9 -55 -40 -87 -130 -130
-87 -41 -173 -54 -292 -43 -421 39 -849 264 -1007 529 -45 76 -45 105 3 174
46 67 117 109 235 140 214 57 250 67 255 72 14 14 105 -8 176 -43z"/>
</g>
</svg>
