<?xml version="1.0" standalone="no"?>
<!DOCTYPE svg PUBLIC "-//W3C//DTD SVG 20010904//EN"
 "http://www.w3.org/TR/2001/REC-SVG-20010904/DTD/svg10.dtd">
<svg version="1.0" xmlns="http://www.w3.org/2000/svg"
 width="250.000000pt" height="336.000000pt" viewBox="0 0 250.000000 336.000000"
 preserveAspectRatio="xMidYMid meet">

<g transform="translate(0.000000,336.000000) scale(0.100000,-0.100000)"
fill="#000000" stroke="none">
<path d="M631 2620 c8 -6 8 -9 0 -14 -20 -13 -11 -26 17 -26 22 0 28 5 30 23
1 20 -3 24 -29 24 -16 0 -25 -4 -18 -7z m29 -15 c-7 -9 -15 -13 -19 -10 -3 3
1 10 9 15 21 14 24 12 10 -5z"/>
<path d="M685 2560 c-3 -5 1 -10 9 -10 9 0 16 5 16 10 0 6 -4 10 -9 10 -6 0
-13 -4 -16 -10z"/>
<path d="M1075 2529 c-5 -8 -4 -10 3 -5 16 9 15 -7 0 -22 -8 -8 -8 -12 -1 -12
6 0 14 8 17 17 8 20 -9 40 -19 22z"/>
<path d="M1122 2510 c0 -14 2 -19 5 -12 2 6 2 18 0 25 -3 6 -5 1 -5 -13z"/>
<path d="M760 2475 c13 -14 26 -25 28 -25 3 0 -5 11 -18 25 -13 14 -26 25 -28
25 -3 0 5 -11 18 -25z"/>
<path d="M1060 2450 c0 -5 7 -10 15 -10 8 0 15 5 15 10 0 6 -7 10 -15 10 -8 0
-15 -4 -15 -10z"/>
<path d="M905 2330 c21 -22 41 -40 44 -40 3 0 -13 18 -34 40 -21 22 -41 40
-44 40 -3 0 13 -18 34 -40z"/>
<path d="M613 2337 c-3 -6 -1 -7 5 -3 7 4 12 2 12 -4 0 -6 5 -8 11 -4 6 3 15
0 20 -7 7 -11 9 -9 9 6 0 14 -7 20 -25 21 -14 1 -28 -3 -32 -9z"/>
<path d="M1283 2330 c-1 -11 3 -20 8 -20 6 0 7 5 4 10 -3 6 -1 10 4 10 6 0 11
5 11 10 0 19 -26 10 -27 -10z"/>
<path d="M1317 2336 c-6 -14 1 -26 14 -26 4 0 7 9 6 20 -1 23 -12 26 -20 6z"/>
<path d="M610 2310 c0 -5 7 -10 16 -10 8 0 12 5 9 10 -3 6 -10 10 -16 10 -5 0
-9 -4 -9 -10z"/>
<path d="M700 2300 c0 -5 4 -10 9 -10 5 0 14 -13 21 -30 16 -39 86 -103 147
-134 66 -33 273 -68 273 -46 0 5 -19 10 -42 10 -57 0 -167 24 -221 48 -57 25
-123 85 -148 134 -18 36 -39 51 -39 28z"/>
<path d="M1246 2301 c-4 -5 -2 -12 3 -15 5 -4 12 -2 15 3 4 5 2 12 -3 15 -5 4
-12 2 -15 -3z"/>
<path d="M960 2286 c0 -2 8 -10 18 -17 15 -13 16 -12 3 4 -13 16 -21 21 -21
13z"/>
<path d="M494 2254 c12 -13 25 -19 30 -14 15 15 -1 38 -26 38 l-24 0 20 -24z
m26 6 c0 -5 -2 -10 -4 -10 -3 0 -8 5 -11 10 -3 6 -1 10 4 10 6 0 11 -4 11 -10z"/>
<path d="M555 2249 c-10 -15 3 -25 16 -12 7 7 7 13 1 17 -6 3 -14 1 -17 -5z"/>
<path d="M1410 2213 c8 -3 7 -9 -1 -19 -10 -13 -6 -34 5 -23 11 11 10 42 -2
45 -7 1 -8 0 -2 -3z"/>
<path d="M1443 2193 c-1 -24 -1 -25 7 -8 11 26 12 35 2 35 -4 0 -8 -12 -9 -27z"/>
<path d="M1294 2174 c-1 -13 2 -24 7 -24 5 0 8 5 7 12 -2 6 6 14 16 16 15 3
17 0 12 -14 -5 -14 -4 -16 4 -8 16 16 2 42 -23 41 -16 0 -22 -6 -23 -23z"/>
<path d="M1102 2174 c10 -10 20 -15 24 -12 3 4 -5 12 -18 18 -22 12 -22 12 -6
-6z"/>
<path d="M1553 2177 c-3 -6 -1 -7 5 -3 7 4 12 2 12 -4 0 -6 4 -9 9 -5 5 3 12
1 16 -4 3 -6 -5 -8 -20 -5 -14 2 -25 0 -25 -6 0 -5 -7 -10 -15 -10 -8 0 -15
-4 -15 -10 0 -5 7 -10 15 -10 8 0 15 5 15 10 0 6 13 10 29 10 34 0 44 10 31
30 -10 16 -48 21 -57 7z"/>
<path d="M620 2176 c0 -2 8 -10 18 -17 15 -13 16 -12 3 4 -13 16 -21 21 -21
13z"/>
<path d="M1250 2120 c-7 -17 -20 -35 -29 -39 -9 -5 -13 -13 -9 -16 9 -9 38 19
55 53 15 29 16 32 4 32 -5 0 -14 -14 -21 -30z"/>
<path d="M1410 2140 c0 -5 5 -10 10 -10 6 0 10 5 10 10 0 6 -4 10 -10 10 -5 0
-10 -4 -10 -10z"/>
<path d="M700 2096 c0 -2 8 -10 18 -17 15 -13 16 -12 3 4 -13 16 -21 21 -21
13z"/>
<path d="M1323 2087 c-4 -6 -1 -7 7 -2 9 5 10 2 5 -14 -4 -13 -2 -21 5 -21 6
0 8 5 5 10 -3 6 -2 10 4 10 5 0 13 -5 16 -10 8 -13 25 -3 25 13 0 7 -4 6 -11
-3 -9 -12 -10 -12 -6 5 3 15 -2 20 -20 21 -13 1 -26 -3 -30 -9z"/>
<path d="M625 2060 c-3 -5 -1 -10 4 -10 6 0 11 5 11 10 0 6 -2 10 -4 10 -3 0
-8 -4 -11 -10z"/>
<path d="M1186 2032 c-2 -4 -1 -14 5 -22 7 -12 9 -10 9 8 0 23 -5 28 -14 14z"/>
<path d="M1214 2025 c-7 -17 4 -37 16 -30 11 7 9 45 -2 45 -5 0 -11 -7 -14
-15z"/>
<path d="M1350 2025 c0 -8 5 -15 10 -15 6 0 10 7 10 15 0 8 -4 15 -10 15 -5 0
-10 -7 -10 -15z"/>
<path d="M340 2020 c0 -5 7 -10 15 -10 8 0 15 5 15 10 0 6 -7 10 -15 10 -8 0
-15 -4 -15 -10z"/>
<path d="M1433 2003 c-7 -15 -13 -35 -13 -46 0 -15 -5 -18 -27 -13 -71 13
-133 17 -133 8 0 -5 30 -12 68 -15 42 -4 71 -12 78 -22 17 -23 21 -19 27 31 2
26 11 50 18 55 9 5 10 12 4 18 -7 7 -14 1 -22 -16z"/>
<path d="M1483 2020 c9 -6 22 -8 29 -4 8 5 9 2 5 -10 -5 -12 -3 -16 5 -14 28
10 13 33 -22 36 -29 2 -32 0 -17 -8z"/>
<path d="M266 2002 c-2 -4 -1 -14 5 -22 7 -12 9 -10 9 8 0 23 -5 28 -14 14z"/>
<path d="M294 1998 c-5 -7 -3 -8 6 -3 9 6 10 2 5 -15 -5 -15 -4 -20 4 -16 13
9 15 46 2 46 -6 0 -13 -5 -17 -12z"/>
<path d="M1475 2000 c-3 -5 -1 -10 4 -10 6 0 11 5 11 10 0 6 -2 10 -4 10 -3 0
-8 -4 -11 -10z"/>
<path d="M1785 1981 c-4 -8 -2 -16 5 -21 10 -6 9 -9 -1 -13 -10 -4 -9 -6 4 -6
18 -1 20 4 8 33 -6 15 -10 16 -16 7z"/>
<path d="M1050 1946 c0 -31 6 -34 13 -6 3 11 1 23 -4 26 -5 3 -9 -6 -9 -20z"/>
<path d="M1010 1953 c0 -5 5 -15 10 -23 8 -12 10 -11 10 8 0 12 -4 22 -10 22
-5 0 -10 -3 -10 -7z"/>
<path d="M1740 1930 c0 -5 5 -10 10 -10 6 0 10 5 10 10 0 6 -4 10 -10 10 -5 0
-10 -4 -10 -10z"/>
<path d="M980 1920 c0 -5 5 -10 10 -10 6 0 10 5 10 10 0 6 -4 10 -10 10 -5 0
-10 -4 -10 -10z"/>
<path d="M1235 1920 c-4 -7 -2 -16 5 -20 10 -6 9 -9 -1 -13 -9 -3 -10 -6 -2
-6 18 -1 25 17 15 35 -7 13 -11 14 -17 4z"/>
<path d="M1200 1911 c0 -6 5 -13 10 -16 6 -3 10 1 10 9 0 9 -4 16 -10 16 -5 0
-10 -4 -10 -9z"/>
<path d="M965 1869 c-10 -15 3 -25 16 -12 7 7 7 13 1 17 -6 3 -14 1 -17 -5z"/>
<path d="M1407 1873 c-11 -10 -8 -20 7 -26 10 -4 14 0 13 14 -1 20 -9 24 -20
12z"/>
<path d="M690 1820 c0 -5 5 -10 10 -10 6 0 10 5 10 10 0 6 -4 10 -10 10 -5 0
-10 -4 -10 -10z"/>
<path d="M940 1823 c0 -5 5 -15 10 -23 8 -12 10 -11 10 8 0 12 -4 22 -10 22
-5 0 -10 -3 -10 -7z"/>
<path d="M977 1816 c-6 -15 1 -26 15 -26 4 0 8 9 8 20 0 23 -15 27 -23 6z"/>
<path d="M652 1770 c0 -14 2 -19 5 -12 2 6 2 18 0 25 -3 6 -5 1 -5 -13z"/>
<path d="M681 1773 c10 -11 10 -14 2 -9 -7 4 -13 2 -13 -3 0 -6 7 -11 15 -11
8 0 15 9 15 20 0 12 -7 20 -16 20 -14 0 -15 -2 -3 -17z"/>
<path d="M2114 1665 c-9 -24 12 -43 29 -26 10 11 9 13 -5 8 -10 -4 -18 -2 -18
2 0 5 5 11 12 13 9 3 9 6 0 12 -7 4 -15 1 -18 -9z"/>
<path d="M2065 1640 c-3 -5 1 -10 9 -10 9 0 16 5 16 10 0 6 -4 10 -9 10 -6 0
-13 -4 -16 -10z"/>
<path d="M1025 1620 c5 -17 4 -21 -5 -15 -9 5 -11 4 -6 -3 4 -7 11 -12 17 -12
13 0 11 37 -2 46 -8 4 -9 -1 -4 -16z"/>
<path d="M1062 1629 c2 -6 8 -10 13 -10 5 0 11 4 13 10 2 6 -4 11 -13 11 -9 0
-15 -5 -13 -11z"/>
<path d="M694 1584 c0 -13 4 -24 8 -24 4 0 8 9 8 19 0 11 -4 22 -8 25 -4 2 -8
-6 -8 -20z"/>
<path d="M657 1580 c3 -11 7 -20 9 -20 2 0 4 9 4 20 0 11 -4 20 -9 20 -5 0 -7
-9 -4 -20z"/>
<path d="M730 1590 c0 -5 7 -10 15 -10 8 0 15 5 15 10 0 6 -7 10 -15 10 -8 0
-15 -4 -15 -10z"/>
<path d="M999 1311 c9 -6 10 -11 2 -15 -6 -4 -11 -13 -11 -19 0 -7 7 -3 15 7
15 20 12 36 -8 36 -8 0 -8 -3 2 -9z"/>
<path d="M1050 1300 c0 -5 5 -10 10 -10 6 0 10 5 10 10 0 6 -4 10 -10 10 -5 0
-10 -4 -10 -10z"/>
<path d="M2193 1218 c-2 -18 0 -20 7 -8 12 18 13 30 2 30 -4 0 -9 -10 -9 -22z"/>
<path d="M695 1219 c-10 -15 3 -25 16 -12 7 7 7 13 1 17 -6 3 -14 1 -17 -5z"/>
<path d="M2140 1210 c0 -5 5 -10 10 -10 6 0 10 5 10 10 0 6 -4 10 -10 10 -5 0
-10 -4 -10 -10z"/>
<path d="M610 1203 c0 -5 5 -15 10 -23 8 -12 10 -11 10 8 0 12 -4 22 -10 22
-5 0 -10 -3 -10 -7z"/>
<path d="M648 1203 c10 -4 10 -8 1 -19 -7 -8 -7 -14 -1 -14 5 0 13 7 16 16 9
23 8 24 -11 23 -12 0 -13 -2 -5 -6z"/>
<path d="M1207 1074 c-8 -8 1 -24 14 -24 5 0 9 7 9 15 0 15 -12 20 -23 9z"/>
<path d="M1159 1065 c-9 -8 2 -55 12 -55 10 0 11 17 0 43 -3 10 -9 15 -12 12z"/>
<path d="M845 871 c-6 -11 9 -23 19 -14 9 9 7 23 -3 23 -6 0 -12 -4 -16 -9z"/>
<path d="M1970 860 c0 -5 7 -10 15 -10 8 0 15 5 15 10 0 6 -7 10 -15 10 -8 0
-15 -4 -15 -10z"/>
<path d="M2012 828 c2 -13 8 -23 13 -23 6 0 11 10 13 23 2 15 -2 22 -13 22
-11 0 -15 -7 -13 -22z"/>
<path d="M807 823 c-3 -5 -1 -17 4 -28 7 -17 8 -17 8 8 1 27 -4 34 -12 20z"/>
<path d="M840 805 c0 -8 5 -15 10 -15 6 0 10 7 10 15 0 8 -4 15 -10 15 -5 0
-10 -7 -10 -15z"/>
<path d="M1670 660 c0 -5 7 -10 16 -10 8 0 12 5 9 10 -3 6 -10 10 -16 10 -5 0
-9 -4 -9 -10z"/>
<path d="M1170 650 c0 -5 7 -10 15 -10 8 0 15 5 15 10 0 6 -7 10 -15 10 -8 0
-15 -4 -15 -10z"/>
<path d="M1689 630 c-6 -22 -5 -50 3 -50 15 0 21 31 9 43 -6 6 -12 9 -12 7z"/>
<path d="M1150 603 c0 -5 5 -15 10 -23 8 -12 10 -11 10 8 0 12 -4 22 -10 22
-5 0 -10 -3 -10 -7z"/>
<path d="M1180 590 c0 -11 7 -20 15 -20 8 0 15 9 15 20 0 11 -7 20 -15 20 -8
0 -15 -9 -15 -20z"/>
</g>
</svg>
