<?xml version="1.0" standalone="no"?>
<!DOCTYPE svg PUBLIC "-//W3C//DTD SVG 20010904//EN"
 "http://www.w3.org/TR/2001/REC-SVG-20010904/DTD/svg10.dtd">
<svg version="1.0" xmlns="http://www.w3.org/2000/svg"
 width="564.000000pt" height="755.000000pt" viewBox="0 0 564.000000 755.000000"
 preserveAspectRatio="xMidYMid meet">

<g transform="translate(0.000000,755.000000) scale(0.100000,-0.100000)"
fill="#000000" stroke="none">
<path d="M1235 6749 c-49 -5 -115 -14 -145 -20 -30 -6 -88 -17 -128 -24 -68
-13 -178 -57 -212 -87 -39 -32 -69 -87 -78 -138 -5 -33 -6 -575 -3 -1355 l6
-1300 23 -44 c56 -105 165 -185 268 -197 65 -8 440 12 579 31 406 54 693 151
910 310 177 128 300 275 345 410 46 140 22 316 -65 464 -74 126 -226 284 -335
348 -25 14 -47 27 -49 29 -2 2 22 30 53 62 156 160 214 297 224 523 8 196 -28
338 -120 478 -113 173 -337 347 -562 436 -150 59 -246 76 -441 80 -99 2 -220
-1 -270 -6z m535 -68 c240 -64 447 -185 601 -349 169 -181 235 -374 210 -615
-20 -192 -75 -306 -219 -458 -45 -48 -82 -89 -82 -92 0 -3 28 -21 63 -40 129
-73 263 -206 349 -348 193 -318 54 -640 -389 -897 -264 -154 -749 -252 -1247
-252 -129 0 -167 12 -236 77 -107 99 -97 -27 -105 1343 -8 1451 -8 1374 5
1432 14 56 59 106 124 137 52 26 253 69 376 81 47 5 173 7 280 5 157 -3 210
-7 270 -24z"/>
<path d="M1555 6606 c-32 -32 -40 -69 -25 -107 26 -62 104 -80 157 -35 23 20
28 32 28 71 0 39 -5 51 -28 71 -39 33 -99 33 -132 0z m107 -40 c20 -30 -6 -86
-40 -86 -24 0 -52 31 -52 56 0 44 69 66 92 30z"/>
<path d="M1772 6550 c-29 -12 -57 -71 -48 -104 10 -39 41 -62 122 -92 41 -15
98 -44 126 -66 91 -68 133 -82 179 -58 27 15 52 68 45 96 -10 39 -147 168
-212 200 -63 31 -168 43 -212 24z m184 -64 c54 -25 179 -135 189 -167 7 -22
-19 -59 -40 -59 -6 0 -49 26 -96 59 -46 32 -109 66 -139 76 -79 26 -102 43
-98 74 6 55 83 62 184 17z"/>
<path d="M1205 6221 c-7 -12 -7 -842 0 -849 10 -11 214 -23 285 -17 246 21
420 88 517 200 71 80 107 216 83 316 -24 101 -141 219 -290 294 -109 55 -172
65 -393 65 -112 0 -198 -4 -202 -9z m420 -46 c127 -24 257 -96 342 -188 66
-72 78 -101 77 -192 0 -152 -83 -261 -247 -326 -131 -53 -313 -78 -470 -64
l-87 7 0 382 c0 211 3 386 7 389 13 13 300 7 378 -8z"/>
<path d="M1200 4873 c0 -5 0 -174 -1 -377 0 -202 3 -372 8 -377 22 -22 360 28
617 91 318 79 476 163 476 256 0 104 -93 216 -247 297 -175 91 -206 98 -478
107 -315 11 -375 12 -375 3z m445 -52 c188 -9 215 -15 360 -87 150 -73 244
-173 245 -260 0 -63 -110 -129 -311 -187 -186 -55 -450 -105 -631 -122 l-68
-7 0 336 0 336 118 -1 c64 0 194 -4 287 -8z"/>
<path d="M3204 6746 c-101 -44 -174 -165 -194 -323 -5 -40 -10 -634 -10 -1340
-1 -1424 -8 -1307 75 -1388 85 -82 214 -100 322 -44 l60 31 82 -26 c254 -80
557 -81 791 -1 241 82 467 281 598 528 155 291 160 708 12 1023 -123 262 -312
445 -552 534 -111 40 -198 54 -343 54 -185 0 -243 -15 -510 -130 -6 -3 -9 32
-7 98 l3 102 46 42 c47 44 50 58 28 115 -5 13 -1 15 18 12 28 -5 43 20 31 52
-5 11 9 5 40 -19 26 -20 57 -36 68 -36 80 0 204 156 178 224 -12 33 -65 74
-103 80 -93 14 -106 14 -118 0 -6 -8 -16 -14 -22 -14 -6 0 0 11 13 25 19 20
21 27 10 40 -23 28 -56 17 -100 -32 l-41 -48 35 74 c26 55 33 78 26 92 -14 25
-49 34 -66 17 -15 -14 -35 -112 -33 -158 1 -14 7 7 14 45 15 89 23 105 46 105
41 0 31 -56 -28 -152 -19 -31 -20 -38 -8 -48 12 -10 15 -10 15 -1 0 17 90 111
105 111 7 0 18 -6 25 -14 9 -12 4 -20 -30 -44 -24 -18 -35 -32 -28 -35 16 -6
-53 -37 -82 -37 -25 0 -37 29 -46 113 -17 164 98 298 181 210 47 -51 84 -190
55 -208 -5 -3 -10 -12 -10 -18 1 -7 10 -1 21 13 18 21 20 33 14 75 -12 96 -74
195 -121 195 -33 0 -78 -24 -102 -55 l-20 -26 -16 54 c-31 107 -89 147 -213
147 -43 -1 -92 -7 -109 -14z m177 -37 c81 -27 112 -92 107 -218 -3 -83 -22
-107 -34 -44 -14 75 -71 173 -101 173 -22 0 -15 -14 22 -43 26 -21 39 -43 55
-93 24 -80 24 -71 -1 -85 -17 -9 -25 -7 -46 13 -49 44 -83 100 -83 135 0 23
-5 33 -15 33 -8 0 -15 -5 -15 -10 0 -25 54 -114 91 -151 23 -23 38 -47 35 -54
-6 -16 19 -45 39 -45 7 0 18 -13 23 -29 l11 -30 -48 34 c-108 78 -200 95 -276
52 -34 -19 -40 -28 -43 -59 -4 -46 24 -101 77 -155 57 -57 89 -68 135 -49 42
17 43 15 15 -23 -45 -61 -31 -169 25 -207 20 -13 39 -15 76 -11 l50 6 0 -124
c0 -89 3 -124 12 -127 7 -3 58 17 113 43 55 26 141 60 190 76 84 25 102 27
255 27 134 -1 179 -5 240 -21 337 -93 587 -366 681 -746 26 -105 36 -322 20
-437 -46 -340 -260 -640 -566 -793 -246 -123 -546 -139 -874 -47 -41 12 -82
25 -91 30 -13 7 -28 2 -57 -20 -90 -66 -213 -59 -296 19 -64 59 -60 -42 -58
1385 2 877 6 1317 13 1351 10 49 54 145 80 175 60 69 156 97 239 69z m107
-331 c4 -18 -44 -48 -65 -41 -20 7 -15 30 10 48 27 19 51 16 55 -7z m-171 -38
c42 -16 148 -90 163 -113 11 -19 9 -24 -21 -49 -43 -36 -63 -37 -22 0 25 21
30 31 23 47 -5 11 -9 15 -9 10 -1 -11 -150 -3 -170 10 -6 3 -11 18 -11 32 0
24 3 25 34 20 19 -3 58 -17 87 -31 29 -14 55 -23 57 -21 9 8 -101 56 -143 61
-42 6 -44 5 -51 -21 -11 -45 22 -65 110 -65 53 0 67 -3 56 -11 -12 -9 -10 -10
8 -6 39 9 19 -15 -39 -47 -34 -18 -62 -27 -73 -23 -25 10 -6 38 36 53 18 7 25
13 15 13 -30 1 -77 -28 -77 -48 0 -36 25 -44 69 -22 45 23 55 26 46 11 -3 -5
-2 -10 3 -10 5 0 -4 -25 -20 -56 -15 -31 -28 -71 -27 -88 1 -27 2 -26 14 16
13 48 57 132 75 143 5 3 0 -16 -11 -42 -13 -29 -22 -77 -25 -123 l-4 -75 14
77 c15 85 43 175 56 183 5 3 5 -9 -1 -27 -12 -44 -11 -139 2 -158 8 -11 10 -1
7 40 -3 30 -1 71 2 90 6 30 8 31 9 8 0 -15 5 -29 11 -33 5 -3 7 15 4 47 -4 39
-3 49 5 38 6 -8 11 -21 11 -29 0 -7 13 -33 30 -57 16 -25 33 -63 36 -85 6 -33
3 -44 -17 -66 -35 -37 -97 -63 -154 -63 -59 0 -67 5 -89 47 -30 60 -19 116 36
179 25 28 28 36 13 30 -65 -27 -102 -37 -123 -31 -58 14 -156 155 -139 200 18
45 125 70 194 45z m201 -57 c40 -63 48 -93 27 -93 -19 0 -75 86 -75 117 0 35
15 28 48 -24z m331 25 c51 -27 77 -65 68 -100 -17 -66 -107 -158 -155 -158
-25 0 -122 64 -122 81 0 4 -14 24 -31 44 -36 40 -33 43 21 15 22 -11 40 -17
40 -12 0 5 -10 14 -22 20 -46 24 45 0 97 -25 42 -20 46 -21 27 -4 -22 19 -76
42 -137 57 l-30 8 33 4 c28 3 142 -15 212 -34 18 -5 22 -4 15 4 -15 16 -123
42 -180 43 -43 0 -46 2 -26 10 32 13 118 16 154 6 16 -4 27 -3 27 2 0 14 -83
25 -130 17 -22 -3 -40 -4 -40 -1 0 12 78 41 120 44 9 1 35 -9 59 -21z m-164 2
c-3 -5 -11 -10 -16 -10 -6 0 -7 5 -4 10 3 6 11 10 16 10 6 0 7 -4 4 -10z
m-105 -70 c0 -5 -5 -10 -11 -10 -5 0 -7 5 -4 10 3 6 8 10 11 10 2 0 4 -4 4
-10z m46 -112 c17 -32 18 -64 4 -73 -17 -11 -56 20 -74 58 -20 43 -20 57 -1
57 8 0 15 5 15 12 0 16 39 -22 56 -54z"/>
<path d="M4171 5617 c-42 -21 -64 -61 -57 -101 15 -81 113 -114 163 -56 17 19
17 19 30 -10 9 -22 26 -36 60 -50 95 -40 114 -55 149 -111 56 -92 123 -112
180 -55 43 43 44 82 4 152 -65 115 -161 177 -272 178 -57 1 -70 -2 -92 -23
-22 -21 -26 -22 -26 -7 0 28 -31 73 -57 85 -31 14 -52 14 -82 -2z m77 -49 c7
-7 12 -24 12 -38 0 -34 -17 -50 -52 -50 -37 0 -57 38 -40 75 13 27 58 35 80
13z m280 -74 c83 -41 156 -137 150 -196 -6 -64 -73 -62 -115 2 -45 72 -66 91
-139 126 -41 19 -74 42 -74 49 0 50 95 61 178 19z"/>
<path d="M3875 5277 c-87 -29 -230 -103 -321 -165 l-69 -47 -3 -427 -2 -426
67 -27 c358 -144 627 -121 818 70 118 118 163 225 172 406 13 277 -95 498
-294 596 -70 35 -81 37 -186 40 -96 3 -122 0 -182 -20z m265 -33 c215 -48 352
-258 353 -539 1 -155 -39 -277 -123 -379 -136 -165 -332 -220 -588 -166 -51
11 -130 34 -175 52 l-82 33 0 395 0 395 70 47 c96 65 257 144 330 162 80 19
132 19 215 0z"/>
<path d="M3166 6314 c-22 -21 -20 -67 2 -87 25 -23 38 -21 56 5 21 30 20 54
-4 78 -24 24 -34 25 -54 4z m52 -40 c4 -40 -19 -61 -42 -39 -19 20 -21 46 -4
63 21 21 43 9 46 -24z"/>
<path d="M3220 6186 c0 -31 14 -40 30 -21 15 18 6 45 -15 45 -9 0 -15 -9 -15
-24z m30 -1 c0 -8 -4 -15 -10 -15 -5 0 -10 7 -10 15 0 8 5 15 10 15 6 0 10 -7
10 -15z"/>
<path d="M3610 6575 c-29 -35 20 -91 68 -78 40 10 35 60 -8 83 -26 14 -45 13
-60 -5z m63 -15 c27 -21 27 -44 1 -54 -34 -13 -75 34 -53 60 15 19 22 18 52
-6z"/>
<path d="M3676 6471 c-3 -4 3 -16 14 -26 23 -21 47 -8 37 19 -7 17 -42 22 -51
7z m39 -11 c3 -5 -1 -10 -9 -10 -9 0 -16 5 -16 10 0 6 4 10 9 10 6 0 13 -4 16
-10z"/>
<path d="M3600 6290 c-8 -5 -10 -10 -5 -10 6 0 17 5 25 10 8 5 11 10 5 10 -5
0 -17 -5 -25 -10z"/>
<path d="M3465 3125 c-14 -13 -25 -33 -25 -44 0 -11 -19 -41 -42 -68 -105
-121 -125 -265 -52 -376 14 -22 24 -40 22 -41 -2 -1 -34 -9 -72 -19 -38 -9
-95 -33 -127 -53 l-58 -35 -43 25 c-57 33 -125 102 -150 151 -12 22 -23 68
-26 103 -5 63 -4 64 16 53 69 -37 141 46 102 118 -15 30 -65 46 -99 32 -45
-19 -54 -47 -49 -163 3 -83 8 -113 28 -153 28 -58 99 -131 156 -160 21 -11 41
-21 43 -22 2 -1 -13 -21 -34 -44 -48 -53 -93 -150 -105 -225 -5 -33 -10 -133
-12 -224 -3 -153 -1 -168 19 -206 40 -74 144 -125 288 -139 116 -11 115 -10
18 -78 -250 -173 -360 -372 -309 -559 44 -164 186 -248 341 -203 110 32 190
100 234 200 21 48 51 157 51 187 0 16 5 28 10 28 6 0 10 -13 10 -30 0 -52 41
-142 87 -192 65 -68 119 -92 198 -86 74 6 128 39 169 102 50 78 45 165 -20
311 -19 44 -38 86 -41 94 -5 10 0 10 23 -1 16 -8 57 -21 92 -28 47 -10 62 -17
62 -30 0 -22 31 -50 57 -50 23 0 53 30 53 53 0 13 10 17 45 17 59 0 127 15
265 57 260 80 310 87 365 53 18 -11 40 -36 49 -55 39 -82 48 -8 16 135 -49
220 -132 383 -252 496 l-54 51 14 34 c9 22 12 54 9 92 -16 174 -217 261 -417
181 l-35 -14 40 32 c68 54 150 142 179 190 71 122 51 303 -46 395 -132 127
-363 82 -484 -94 -76 -110 -114 -239 -134 -448 -6 -66 -14 -147 -18 -180 l-7
-60 -35 69 c-72 140 -182 243 -285 267 -80 18 -98 30 -130 93 -53 104 -34 225
49 323 l27 32 35 -18 c87 -47 166 51 99 123 -32 34 -77 35 -110 1z m89 -21
c45 -45 -16 -121 -66 -81 -28 21 -31 54 -9 76 25 25 54 27 75 5z m814 -60 c47
-19 98 -68 125 -119 32 -61 31 -201 -2 -270 -35 -71 -156 -187 -293 -280 -107
-71 -134 -95 -109 -95 5 0 64 27 132 59 68 33 151 65 184 72 108 22 211 -11
269 -84 26 -32 31 -49 34 -105 3 -61 1 -71 -28 -114 -23 -34 -47 -55 -88 -75
-53 -26 -67 -28 -209 -32 -116 -2 -170 1 -228 14 -88 19 -89 19 -93 7 -2 -6 6
-13 17 -17 24 -7 26 -27 10 -90 l-11 -44 -55 45 c-60 49 -76 51 -81 12 -2 -20
7 -31 53 -61 30 -21 55 -43 55 -50 0 -22 -58 -106 -112 -163 -100 -106 -195
-147 -290 -126 -58 14 -124 59 -98 69 8 3 35 25 60 48 25 23 65 53 89 65 97
49 185 167 211 286 15 67 -2 134 -46 181 -22 23 -31 40 -25 47 4 6 11 58 15
116 20 304 66 476 159 594 32 40 110 95 162 114 45 16 150 14 193 -4z m-1388
-114 c11 -11 20 -27 20 -35 0 -20 -36 -55 -57 -55 -44 0 -69 63 -37 94 21 22
50 20 74 -4z m564 -409 c44 -21 81 -50 115 -88 60 -67 140 -213 117 -213 -8 0
-25 17 -37 38 -35 56 -119 142 -161 163 -53 27 -126 25 -169 -4 -120 -83 -105
-77 -183 -70 -83 7 -113 -5 -171 -64 -48 -49 -69 -124 -60 -208 5 -52 4 -63
-9 -68 -14 -6 -16 6 -16 81 0 213 93 364 272 441 66 28 81 31 155 28 67 -3 92
-9 147 -36z m13 -122 c32 -12 109 -85 144 -136 l30 -42 -39 -20 c-45 -23 -68
-46 -53 -55 5 -4 26 5 47 19 96 65 200 0 198 -126 -2 -112 -97 -255 -204 -307
-25 -12 -61 -37 -79 -56 -52 -54 -79 -61 -158 -42 -38 8 -113 20 -168 26 -218
24 -315 91 -315 220 0 77 39 119 123 135 23 5 37 13 37 22 0 12 -8 14 -37 8
-21 -4 -42 -7 -48 -8 -6 -1 -11 26 -13 62 -4 84 28 153 90 194 40 26 48 28
111 23 80 -6 103 1 162 50 64 52 101 59 172 33z m1161 -331 c6 -7 15 -40 21
-72 30 -165 -5 -327 -108 -494 -22 -36 -34 -45 -81 -59 -30 -8 -61 -18 -68
-21 -7 -2 5 23 27 57 88 136 131 282 131 445 0 95 1 101 27 128 30 31 36 33
51 16z m112 -123 c43 -70 31 -219 -29 -362 -29 -68 -29 -68 -90 -89 -34 -12
-61 -20 -61 -18 0 3 11 22 25 44 74 118 118 314 98 438 l-10 62 24 -22 c13
-13 33 -36 43 -53z m-219 33 c3 -90 -4 -182 -18 -233 -37 -140 -145 -330 -191
-339 -67 -13 -112 -17 -112 -11 0 3 21 36 46 73 92 134 144 277 159 434 l7 76
42 10 c62 15 66 14 67 -10z m-383 -4 c49 -6 52 -8 52 -34 0 -44 -27 -176 -42
-205 l-14 -25 -61 69 -62 69 17 71 c15 63 19 71 37 67 11 -3 44 -8 73 -12z
m238 -76 c-9 -98 -31 -177 -76 -275 -30 -65 -80 -150 -107 -183 -12 -13 -23
34 -24 100 0 41 -4 86 -8 100 -5 16 1 49 17 94 13 38 29 106 35 152 l11 84 80
0 79 0 -7 -72z m463 -137 c35 -83 40 -142 15 -195 -16 -32 -20 -35 -73 -38
-31 -2 -57 -3 -59 -2 -1 0 7 22 18 48 31 72 50 158 50 222 0 69 7 64 49 -35z
m-728 -83 c7 -14 -1 -34 -33 -88 -24 -38 -59 -90 -78 -115 -42 -54 -62 -54
-143 -1 -101 68 -99 58 -25 126 36 33 87 91 114 130 l48 70 54 -52 c29 -29 58
-61 63 -70z m-685 -106 c6 -9 14 -52 18 -96 4 -46 15 -97 25 -118 18 -37 18
-41 0 -138 -43 -242 -102 -335 -248 -390 -185 -71 -354 69 -339 280 12 159
115 292 356 458 l72 50 53 -16 c28 -8 57 -22 63 -30z m714 -26 c0 -53 -5 -71
-27 -106 -27 -41 -28 -41 -73 -35 -25 4 -46 8 -48 10 -2 2 17 28 42 59 25 31
56 74 68 96 13 22 26 40 31 40 4 0 7 -29 7 -64z m773 -34 l7 -33 -30 21 c-30
21 -30 22 -13 53 14 28 17 30 23 12 4 -11 10 -35 13 -53z m-1020 -152 c58
-117 80 -194 74 -256 -11 -103 -90 -176 -188 -176 -64 1 -110 24 -163 84 -48
52 -71 109 -82 198 l-7 55 32 -29 c17 -17 31 -36 31 -43 0 -7 16 -31 36 -53
38 -42 78 -52 102 -28 18 18 15 63 -5 80 -25 22 -91 48 -107 42 -7 -3 -29 13
-49 36 -37 40 -38 45 -41 149 -1 46 -26 73 -26 29 0 -12 -5 -30 -10 -38 -7
-11 -10 4 -10 49 0 61 1 63 23 56 12 -4 47 -12 77 -17 47 -9 63 -7 105 9 l50
20 60 -47 c48 -37 67 -61 98 -120z"/>
<path d="M3461 2371 c-21 -13 -5 -29 24 -24 13 3 42 -2 64 -10 36 -15 51 -14
51 4 0 10 -76 39 -103 39 -12 0 -28 -4 -36 -9z"/>
<path d="M3138 2268 c-23 -20 -48 -60 -48 -80 0 -29 18 -20 36 18 9 20 23 38
31 41 14 6 18 33 5 33 -5 0 -15 -6 -24 -12z"/>
<path d="M3490 2230 c-24 -24 -25 -48 -4 -78 32 -46 114 -17 114 40 0 26 -36
58 -65 58 -14 0 -34 -9 -45 -20z m40 -35 c0 -8 -7 -15 -15 -15 -8 0 -15 7 -15
15 0 8 7 15 15 15 8 0 15 -7 15 -15z"/>
<path d="M3170 2130 c-11 -11 -20 -29 -20 -40 0 -24 42 -70 63 -70 27 0 60 35
60 63 0 59 -63 87 -103 47z m40 -35 c0 -8 -7 -15 -15 -15 -8 0 -15 7 -15 15 0
8 7 15 15 15 8 0 15 -7 15 -15z"/>
<path d="M3383 2066 c-52 -17 -109 -52 -117 -72 -26 -67 37 -124 134 -124 63
0 109 31 140 95 23 48 19 89 -10 105 -25 14 -96 11 -147 -4z m140 -37 c13 -22
-17 -84 -55 -111 -52 -37 -151 -19 -178 32 -9 17 -7 24 13 42 58 52 196 75
220 37z"/>
<path d="M3630 2021 c0 -6 5 -13 10 -16 27 -16 -8 -63 -91 -121 -43 -30 -154
-70 -221 -79 -40 -6 -48 -5 -48 9 0 24 -17 19 -36 -10 -13 -19 -14 -28 -5 -37
9 -9 14 -9 19 0 6 9 26 7 82 -8 163 -44 278 16 326 171 15 47 23 58 36 54 26
-8 31 13 6 30 -24 17 -78 22 -78 7z m-23 -158 c-31 -50 -113 -93 -179 -93 -56
0 -64 15 -14 24 41 8 169 70 186 91 25 30 30 14 7 -22z"/>
<path d="M3511 1745 c-51 -13 -67 -35 -27 -35 37 0 99 27 91 40 -7 11 -5 11
-64 -5z"/>
<path d="M1882 2883 c-32 -28 -35 -56 -11 -87 21 -27 44 -31 98 -15 33 9 40
-115 11 -179 -42 -92 -47 -95 -164 -96 l-103 -1 0 60 c1 96 -51 173 -151 224
-20 11 -43 29 -50 40 -16 27 -72 29 -95 3 -41 -45 -2 -120 55 -108 16 3 38 16
47 28 l18 21 36 -22 c82 -51 125 -133 112 -217 -5 -33 -14 -48 -43 -71 -84
-63 -125 -134 -138 -238 -4 -33 -9 -63 -10 -67 -1 -5 -2 -11 -3 -14 0 -4 -23
37 -51 90 -129 253 -241 360 -392 374 -149 13 -259 -93 -245 -236 11 -124 90
-209 236 -253 l44 -13 -50 -11 c-169 -38 -250 -194 -159 -302 21 -25 22 -31
10 -47 -7 -11 -24 -49 -36 -85 -31 -89 -33 -296 -4 -413 20 -84 40 -100 50
-43 4 19 17 46 29 60 20 23 34 27 152 41 196 22 277 34 308 46 22 9 31 7 46
-6 9 -9 25 -16 34 -16 24 0 49 30 43 54 -4 17 5 27 42 51 26 16 49 31 52 32 3
2 4 -30 2 -71 -4 -94 10 -148 54 -196 86 -95 221 -73 280 47 22 44 25 62 22
123 l-3 72 20 -28 c11 -16 45 -54 75 -86 45 -45 66 -59 114 -73 210 -61 368
122 273 316 -56 116 -183 194 -376 234 l-54 10 65 39 c111 64 168 135 168 205
0 15 -11 49 -24 77 -13 27 -44 92 -69 145 -36 74 -58 107 -98 143 -28 25 -62
49 -75 52 -13 3 -24 9 -24 11 0 3 13 27 28 52 61 98 66 176 18 283 -34 76 -72
97 -114 61z m71 -35 c14 -21 -7 -48 -38 -48 -28 0 -39 24 -24 51 12 24 47 22
62 -3z m-453 -57 c0 -26 -25 -44 -50 -36 -25 8 -27 50 -3 64 23 12 53 -4 53
-28z m-376 -232 c106 -39 184 -131 293 -344 31 -60 60 -113 65 -116 5 -3 2
-19 -7 -35 -20 -38 -19 -70 4 -119 38 -81 147 -157 246 -170 41 -5 129 -31
143 -41 11 -8 -25 -47 -62 -69 -60 -35 -126 -34 -220 5 -39 17 -87 43 -106 59
l-34 28 27 42 c30 44 32 74 7 79 -9 1 -25 -15 -40 -42 -26 -49 -33 -49 -56 -5
-12 23 -13 34 -4 44 7 8 9 19 5 24 -3 6 -25 -4 -51 -24 -84 -64 -241 -125
-323 -125 -61 0 -119 46 -140 110 -20 65 14 134 88 178 44 26 51 27 194 27
105 0 147 3 147 12 0 6 -19 14 -42 18 -72 11 -225 53 -273 75 -100 46 -155
126 -155 225 0 60 14 97 52 132 58 55 150 67 242 32z m828 -106 c84 -37 161
-130 192 -230 15 -47 -10 -21 -28 30 -25 71 -81 124 -140 132 -36 6 -55 2 -98
-17 -51 -24 -55 -24 -120 -10 -63 14 -69 13 -105 -5 -45 -24 -87 -88 -104
-158 -17 -74 -19 -78 -26 -72 -9 10 17 155 37 202 21 48 75 107 122 131 72 37
180 36 270 -3z m79 -123 c28 -21 68 -88 69 -116 0 -6 -13 -14 -30 -17 -16 -4
-30 -13 -30 -20 0 -11 12 -13 49 -9 59 5 88 -9 107 -53 20 -48 17 -84 -7 -124
-27 -45 -54 -66 -156 -123 -47 -26 -98 -59 -114 -73 -35 -29 -54 -31 -106 -11
-21 8 -58 17 -83 21 -95 13 -181 71 -221 147 -23 45 -24 70 -4 108 17 33 40
43 95 39 21 -2 43 0 47 4 11 11 -17 27 -48 27 -37 0 -39 6 -22 63 33 114 86
159 167 138 64 -16 106 -13 146 10 43 24 97 20 141 -11z m-658 -531 l27 -39
-21 -66 c-21 -64 -22 -65 -41 -48 -26 24 -92 134 -84 141 9 9 80 52 86 52 3 0
17 -18 33 -40z m694 -25 c37 -8 103 -29 146 -46 130 -50 227 -164 227 -266 0
-102 -85 -189 -188 -191 -76 -2 -124 20 -187 83 -72 73 -135 177 -135 223 0
18 -9 56 -19 84 -22 57 -19 74 18 106 31 27 49 28 138 7z m-815 -52 c15 -26
45 -69 67 -94 23 -25 41 -57 41 -70 0 -12 9 -43 20 -67 33 -72 26 -76 -42 -29
-74 52 -151 137 -196 217 l-33 59 43 15 c65 22 71 21 100 -31z m-262 -50 c37
-104 161 -258 238 -294 33 -16 27 -25 -20 -30 -37 -4 -50 0 -89 28 -71 52
-127 118 -164 196 -34 71 -53 147 -40 167 14 24 57 -15 75 -67z m129 -7 c40
-79 140 -188 215 -235 30 -19 55 -38 56 -41 0 -4 -19 -11 -42 -17 -39 -10 -47
-9 -87 15 -80 46 -174 151 -220 244 l-42 84 33 6 c18 4 38 7 43 8 6 0 25 -28
44 -64z m441 -14 c36 -17 73 -31 83 -31 9 0 17 -3 17 -6 0 -12 -24 -51 -57
-91 l-34 -43 -42 21 c-23 12 -66 39 -95 61 -58 43 -57 40 -21 126 l19 43 32
-25 c18 -13 62 -38 98 -55z m-601 -150 c18 -28 59 -75 91 -105 l59 -54 -37 -6
c-34 -5 -41 -2 -90 47 -51 50 -122 170 -122 207 0 9 5 32 11 50 l12 33 22 -61
c12 -33 37 -83 54 -111z m921 165 c0 -2 3 -12 6 -20 5 -12 2 -15 -10 -10 -21
8 -20 -4 2 -63 25 -64 15 -98 -43 -146 -61 -51 -60 -107 2 -107 30 0 54 38 58
92 3 57 4 58 14 58 14 0 34 -108 27 -144 -26 -127 -138 -194 -226 -134 -68 47
-75 66 -74 201 0 114 2 125 27 168 25 43 31 47 75 51 30 3 63 15 87 31 37 25
55 33 55 23z m-413 -161 c35 -22 63 -43 63 -47 0 -4 -10 -12 -21 -19 -30 -16
-86 16 -105 60 -26 63 -26 63 63 6z m-508 -139 c37 -35 39 -46 9 -46 -13 0
-30 -5 -38 -10 -10 -6 -20 -4 -33 8 -33 30 -47 69 -47 133 l0 62 39 -59 c21
-32 52 -72 70 -88z m-78 -102 c-9 -17 -10 -17 -11 -2 0 9 -3 25 -6 35 -6 17
-6 17 11 2 13 -13 15 -21 6 -35z"/>
<path d="M1930 2330 c0 -6 8 -13 18 -17 9 -3 27 -15 40 -26 25 -24 48 -12 29
14 -24 31 -87 52 -87 29z"/>
<path d="M1675 2310 c-11 -4 -30 -19 -43 -33 -33 -35 -10 -45 29 -13 17 14 37
26 45 26 8 0 14 7 14 15 0 16 -14 18 -45 5z"/>
<path d="M1926 2211 c-23 -25 -13 -59 20 -67 48 -12 76 18 56 62 -14 30 -52
32 -76 5z m58 -22 c-3 -5 -10 -7 -15 -3 -5 3 -7 10 -3 15 3 5 10 7 15 3 5 -3
7 -10 3 -15z"/>
<path d="M1672 2198 c-7 -7 -12 -21 -12 -33 0 -12 5 -26 12 -33 7 -7 21 -12
33 -12 12 0 26 5 33 12 7 7 12 21 12 33 0 12 -5 26 -12 33 -7 7 -21 12 -33 12
-12 0 -26 -5 -33 -12z m55 -34 c-9 -9 -28 6 -21 18 4 6 10 6 17 -1 6 -6 8 -13
4 -17z"/>
<path d="M1820 2121 c-48 -10 -77 -27 -85 -51 -14 -46 52 -103 122 -104 39 -1
49 3 79 36 47 52 47 94 -1 114 -37 15 -59 16 -115 5z m110 -39 l23 -18 -30
-34 c-37 -41 -87 -46 -130 -13 -38 28 -40 48 -6 61 67 26 114 27 143 4z"/>
<path d="M1645 2004 c-25 -27 -24 -50 1 -40 8 3 31 -13 55 -39 22 -24 56 -49
75 -55 18 -6 33 -17 31 -23 -1 -6 9 -13 22 -15 33 -5 73 7 69 20 -5 14 111 94
129 90 16 -4 17 20 1 36 -16 16 -38 15 -38 -2 0 -21 -102 -40 -174 -32 -81 8
-132 34 -128 64 4 29 -13 28 -43 -4z m218 -88 c40 0 54 -3 47 -10 -6 -6 -40
-11 -75 -11 -48 0 -69 4 -82 18 -17 17 -16 17 17 10 19 -5 61 -8 93 -7z"/>
</g>
</svg>
