<?xml version="1.0" standalone="no"?>
<!DOCTYPE svg PUBLIC "-//W3C//DTD SVG 20010904//EN"
 "http://www.w3.org/TR/2001/REC-SVG-20010904/DTD/svg10.dtd">
<svg version="1.0" xmlns="http://www.w3.org/2000/svg"
 width="250.000000pt" height="332.000000pt" viewBox="0 0 250.000000 332.000000"
 preserveAspectRatio="xMidYMid meet">

<g transform="translate(0.000000,332.000000) scale(0.100000,-0.100000)"
fill="#000000" stroke="none">
<path d="M1067 2271 c-3 -12 -1 -24 4 -27 13 -8 24 25 12 37 -7 7 -12 3 -16
-10z"/>
<path d="M1486 2274 c-9 -22 -8 -24 9 -24 8 0 15 9 15 20 0 24 -15 27 -24 4z"/>
<path d="M1105 2250 c-3 -5 1 -10 9 -10 9 0 16 5 16 10 0 6 -4 10 -9 10 -6 0
-13 -4 -16 -10z"/>
<path d="M1450 2235 c0 -8 5 -15 10 -15 6 0 10 7 10 15 0 8 -4 15 -10 15 -5 0
-10 -7 -10 -15z"/>
<path d="M703 2227 c-3 -6 -1 -7 5 -3 7 4 12 2 12 -4 0 -6 4 -9 9 -5 5 3 12 1
16 -4 3 -6 -3 -8 -15 -6 -11 2 -22 0 -25 -6 -4 -5 7 -8 22 -7 39 2 45 7 34 25
-10 19 -49 25 -58 10z"/>
<path d="M1504 2190 c0 -11 3 -20 7 -20 4 0 9 9 12 20 3 12 0 20 -7 20 -6 0
-12 -9 -12 -20z"/>
<path d="M723 2151 c-3 -11 -30 -36 -61 -57 -32 -21 -84 -66 -117 -101 -34
-35 -67 -63 -74 -63 -8 0 -11 -6 -7 -16 3 -9 -2 -28 -13 -42 -23 -34 -43 -72
-37 -72 2 0 22 28 44 63 50 79 119 156 181 201 27 20 52 36 55 36 4 0 -3 -18
-14 -40 -11 -22 -36 -85 -54 -140 l-34 -100 -63 -42 c-72 -47 -154 -128 -183
-178 -10 -18 -14 -30 -7 -26 17 11 13 -3 -10 -36 -12 -16 -19 -31 -17 -33 2
-3 23 23 47 56 37 53 185 179 210 179 4 0 1 -35 -7 -77 -14 -83 -11 -304 7
-376 8 -35 6 -42 -34 -102 -39 -58 -73 -132 -89 -195 l-6 -25 11 25 c7 14 27
58 45 98 46 101 69 131 97 128 12 -2 65 -26 117 -53 52 -28 147 -72 210 -97
122 -48 365 -119 390 -113 8 2 -19 11 -60 21 -146 34 -357 111 -503 184 -81
40 -151 81 -156 90 -11 22 -31 180 -31 251 0 67 20 224 30 241 6 10 19 8 61
-5 81 -27 178 -89 306 -195 l115 -95 -56 -6 c-70 -8 -98 -26 -125 -82 -56
-116 3 -250 115 -263 41 -5 55 -2 83 18 19 12 43 35 54 50 28 37 34 131 13
181 l-15 38 32 -26 c18 -15 62 -50 100 -78 67 -52 79 -67 53 -67 -22 0 -57
-56 -63 -99 -7 -53 11 -101 52 -139 32 -31 43 -34 150 -48 115 -15 334 -15
440 0 66 9 176 46 170 56 -2 4 -22 0 -42 -10 -21 -10 -52 -21 -70 -25 l-32 -6
15 31 c10 20 14 43 10 63 -4 18 -7 38 -8 45 -1 6 -7 12 -15 12 -7 0 -13 5 -13
10 0 6 19 11 43 12 23 0 -24 4 -104 9 -129 6 -158 11 -252 43 -192 64 -246 99
-515 334 -245 216 -323 271 -430 306 -29 10 -52 22 -52 27 0 35 99 278 114
279 21 0 119 -65 181 -122 38 -35 146 -153 240 -263 261 -303 332 -370 475
-448 157 -86 351 -138 431 -117 39 11 69 33 69 52 0 6 -9 0 -19 -13 -11 -13
-22 -22 -25 -19 -3 3 6 18 19 32 23 25 25 68 3 68 -5 0 -6 9 -3 20 4 11 2 20
-4 20 -5 0 -13 -27 -17 -61 -6 -52 -10 -62 -31 -70 -68 -26 -206 6 -358 82
-55 27 -107 55 -116 62 -15 11 -14 34 2 277 10 146 20 272 21 281 3 14 15 10
71 -22 70 -40 97 -48 97 -28 0 6 -6 9 -12 6 -7 -2 -45 13 -84 34 -39 22 -80
39 -92 39 -14 0 -22 6 -22 18 0 15 -2 15 -11 2 -9 -12 -10 -11 -6 8 3 12 1 22
-4 22 -9 0 -13 -14 -10 -37 2 -16 -16 -17 -21 -1 -2 6 -10 8 -16 4 -23 -14 -1
-26 49 -26 l50 0 -6 -82 c-3 -46 -12 -168 -20 -271 -7 -104 -15 -190 -18 -193
-8 -8 -101 71 -161 137 l-58 64 91 3 c81 2 92 5 105 25 18 29 30 235 15 253
-9 11 -59 14 -234 14 -210 0 -223 1 -240 20 -10 11 -19 30 -20 43 -1 13 -8 22
-18 22 -8 0 -51 34 -94 76 -43 42 -99 88 -125 103 -27 15 -48 32 -48 37 0 17
-22 9 -27 -10z m72 -40 c67 -38 143 -108 230 -209 l70 -83 200 -2 200 -2 -2
-99 c-2 -55 -7 -104 -13 -110 -15 -15 -17 -7 -11 84 9 122 12 120 -195 120
-91 0 -164 -4 -162 -8 6 -16 163 -201 167 -197 2 2 -31 44 -73 94 -42 49 -76
91 -76 94 0 7 249 7 293 0 l37 -6 0 -56 c0 -31 -3 -73 -6 -93 l-6 -37 -84 -3
-84 -3 47 -55 c27 -30 42 -50 35 -46 -8 4 -91 99 -186 210 -257 299 -302 342
-398 392 -27 13 -48 29 -48 34 0 15 11 12 65 -19z m727 -361 c-3 -124 -9 -157
-29 -164 -13 -5 -14 -4 -3 8 7 10 13 54 13 123 l2 108 -207 3 c-130 1 -208 6
-208 12 0 7 77 9 218 8 l217 -3 -3 -95z m-813 24 c77 -34 162 -98 355 -267
276 -240 367 -301 530 -353 55 -17 65 -23 48 -28 -34 -11 -140 24 -184 61 -23
19 -51 33 -66 33 -33 0 -106 54 -312 231 -245 210 -361 287 -458 305 -24 5
-32 11 -28 21 3 8 6 19 6 24 0 12 42 2 109 -27z m-124 3 c-4 -8 -32 -32 -63
-53 -31 -20 -83 -62 -114 -92 -72 -68 -75 -56 -6 22 45 50 176 151 185 142 2
-2 1 -10 -2 -19z m492 -343 c-3 -4 5 -15 19 -26 61 -48 80 -146 45 -225 -24
-52 -59 -76 -112 -75 -72 1 -119 65 -119 162 0 86 48 148 123 161 23 3 44 7
46 8 2 0 1 -2 -2 -5z m-143 -50 c-21 -27 -29 -50 -32 -95 -5 -73 1 -99 35
-140 15 -18 21 -30 13 -27 -22 7 -59 65 -66 104 -11 58 4 122 38 159 39 46 46
45 12 -1z m1158 -156 c-10 -22 -11 -21 -11 12 -1 26 2 31 11 22 8 -8 8 -17 0
-34z m-649 -39 c58 -45 55 -153 -5 -204 -37 -32 -82 -28 -111 8 -15 17 -18 18
-13 4 4 -12 2 -16 -5 -11 -17 10 -39 70 -39 106 0 36 35 102 49 94 5 -3 14 1
21 9 18 21 73 18 103 -6z m624 -15 c-3 -3 -12 -4 -19 -1 -8 3 -5 6 6 6 11 1
17 -2 13 -5z m-473 -92 c-19 -40 -11 -108 16 -137 23 -25 23 -25 2 -25 -12 0
-68 5 -124 12 -99 11 -102 12 -71 24 50 21 78 69 78 135 l0 56 56 -19 c57 -19
57 -19 43 -46z m275 22 c12 -11 -40 -16 -89 -8 l-56 9 14 -28 c16 -33 11 -99
-10 -126 -7 -9 -2 -6 11 8 20 21 23 32 19 75 l-4 51 42 -3 c41 -4 41 -4 31
-31 -12 -34 -3 -75 23 -101 19 -19 19 -19 -17 -26 -46 -9 -173 3 -190 18 -46
38 -51 103 -11 153 20 26 21 26 127 19 58 -3 108 -8 110 -10z m60 -30 c12 -15
21 -39 21 -54 0 -31 -34 -80 -56 -80 -17 0 -54 35 -54 51 0 6 9 1 21 -12 19
-23 20 -23 10 -2 -15 31 -14 68 3 82 28 24 48 -48 25 -90 -10 -19 -9 -19 10
-9 28 15 38 57 20 89 -21 37 -54 39 -73 4 -10 -18 -15 -22 -16 -11 0 16 44 58
61 58 4 0 17 -12 28 -26z"/>
<path d="M994 1390 c-56 -22 -79 -122 -45 -193 54 -112 181 -66 181 65 0 100
-62 158 -136 128z m71 -26 c23 -25 29 -44 38 -119 3 -22 4 -19 6 13 0 23 -6
58 -13 77 -18 43 -12 46 9 5 8 -16 15 -51 15 -79 0 -40 -5 -55 -26 -78 -15
-15 -22 -21 -16 -13 5 8 7 23 3 33 -5 15 -9 11 -19 -17 -14 -38 -35 -51 -61
-36 -68 36 -76 171 -14 219 34 27 49 26 78 -5z"/>
<path d="M1038 1350 c19 -19 33 -47 40 -77 6 -32 10 -39 11 -21 2 48 -43 128
-72 128 -4 0 5 -13 21 -30z"/>
<path d="M1352 1184 c-19 -9 -42 -59 -42 -93 0 -96 90 -146 136 -76 42 65 12
168 -51 172 -17 1 -36 -1 -43 -3z m70 -35 c22 -30 35 -89 19 -89 -6 0 -11 11
-11 25 0 31 -26 85 -41 85 -6 0 -1 -12 10 -26 27 -34 28 -103 3 -134 -16 -20
-21 -21 -39 -9 -56 34 -56 146 -1 169 30 11 38 9 60 -21z"/>
<path d="M1298 1158 c-16 -31 -16 -124 1 -140 12 -11 13 -10 7 7 -16 44 -17
72 -3 113 16 46 14 54 -5 20z"/>
<path d="M1645 1085 c-34 -33 -34 -93 -1 -124 31 -30 63 -20 81 24 17 39 4 99
-25 115 -26 14 -28 13 -55 -15z m39 -17 c21 -29 21 -92 0 -109 -35 -29 -71 61
-44 112 14 25 25 24 44 -3z m26 1 c16 -30 8 -31 -13 -3 -10 13 -13 24 -8 24 6
0 15 -9 21 -21z"/>
<path d="M1189 2145 c-26 -8 -53 -22 -60 -31 -10 -12 -2 -11 31 7 62 32 174
33 244 1 27 -12 47 -25 43 -28 -3 -3 -20 3 -39 13 -47 26 -198 25 -250 -1 -21
-10 -38 -22 -38 -27 0 -4 17 2 38 14 31 18 52 22 127 22 75 0 96 -4 128 -22
44 -27 46 -27 43 -10 -9 59 -164 95 -267 62z"/>
<path d="M1791 2138 c0 -13 3 -17 6 -9 5 11 7 11 14 0 6 -10 9 -8 9 9 0 13 -6
22 -15 22 -9 0 -15 -9 -14 -22z"/>
<path d="M1480 2135 c0 -9 5 -15 11 -13 6 2 11 8 11 13 0 5 -5 11 -11 13 -6 2
-11 -4 -11 -13z"/>
<path d="M1780 2090 c0 -5 5 -10 10 -10 6 0 10 5 10 10 0 6 -4 10 -10 10 -5 0
-10 -4 -10 -10z"/>
<path d="M1600 2040 c14 -4 35 -8 48 -9 26 -1 97 -29 91 -36 -3 -2 -23 2 -44
10 -22 8 -67 14 -100 13 l-60 -1 75 -7 c71 -7 131 -27 145 -50 9 -14 24 -12
21 3 -6 38 -67 71 -151 80 -34 4 -42 3 -25 -3z m165 -60 c3 -6 -1 -7 -9 -4
-18 7 -21 14 -7 14 6 0 13 -4 16 -10z"/>
<path d="M1500 2024 c-17 -10 -18 -13 -5 -8 11 3 34 10 50 14 27 7 28 8 5 9
-14 0 -36 -7 -50 -15z"/>
<path d="M994 2014 c3 -9 6 -23 6 -32 0 -10 3 -13 10 -6 11 11 2 54 -12 54 -6
0 -7 -7 -4 -16z"/>
<path d="M1800 2010 c0 -5 7 -10 15 -10 8 0 15 5 15 10 0 6 -7 10 -15 10 -8 0
-15 -4 -15 -10z"/>
<path d="M1490 2000 c-24 -15 -7 -19 20 -5 15 8 19 14 10 14 -8 1 -22 -3 -30
-9z"/>
<path d="M1876 2002 c-2 -4 -1 -14 5 -22 7 -12 9 -10 9 8 0 23 -5 28 -14 14z"/>
<path d="M1085 1989 c-5 -8 -4 -10 3 -5 7 4 12 2 12 -3 0 -6 -4 -11 -10 -11
-5 0 -10 -4 -10 -10 0 -16 17 -11 24 7 8 20 -9 40 -19 22z"/>
<path d="M1840 1986 c0 -9 5 -16 10 -16 6 0 10 4 10 9 0 6 -4 13 -10 16 -5 3
-10 -1 -10 -9z"/>
<path d="M388 1973 c10 -4 10 -8 1 -19 -7 -8 -7 -14 -1 -14 5 0 13 7 16 16 9
23 8 24 -11 23 -12 0 -13 -2 -5 -6z"/>
<path d="M423 1958 c-2 -18 0 -20 7 -8 12 18 13 30 2 30 -4 0 -9 -10 -9 -22z"/>
<path d="M1390 1970 c0 -5 6 -10 13 -10 8 0 7 -4 -3 -10 -8 -5 -10 -10 -4 -10
16 0 23 10 17 26 -6 16 -23 19 -23 4z"/>
<path d="M2112 1950 c0 -14 2 -19 5 -12 2 6 2 18 0 25 -3 6 -5 1 -5 -13z"/>
<path d="M2143 1963 c4 -3 2 -12 -4 -20 -9 -10 -8 -13 3 -13 7 0 14 9 15 20 1
11 -3 20 -9 20 -6 0 -8 -3 -5 -7z"/>
<path d="M2070 1950 c0 -5 5 -10 10 -10 6 0 10 5 10 10 0 6 -4 10 -10 10 -5 0
-10 -4 -10 -10z"/>
<path d="M1120 1925 c0 -13 25 -15 164 -15 148 0 195 7 167 24 -5 4 -12 2 -16
-4 -8 -13 -282 -13 -290 0 -9 15 -25 12 -25 -5z"/>
<path d="M1816 1911 c-11 -4 -20 -15 -22 -25 -2 -13 2 -15 19 -9 59 22 198 -8
222 -47 9 -15 22 -12 22 6 0 21 -54 60 -102 73 -45 12 -111 13 -139 2z m181
-30 c23 -11 44 -25 48 -31 3 -5 -18 3 -47 18 -42 21 -66 27 -119 27 -37 0 -62
4 -56 8 21 14 131 1 174 -22z"/>
<path d="M1707 1904 c-3 -4 -2 -16 4 -26 13 -24 35 -9 26 16 -7 17 -19 21 -30
10z"/>
<path d="M1856 1823 c-9 -22 10 -41 25 -26 13 13 5 43 -10 43 -5 0 -12 -8 -15
-17z m24 -13 c0 -5 -4 -10 -10 -10 -5 0 -10 5 -10 10 0 6 5 10 10 10 6 0 10
-4 10 -10z"/>
<path d="M1831 1814 c0 -11 3 -14 6 -6 3 7 2 16 -1 19 -3 4 -6 -2 -5 -13z"/>
<path d="M1780 1812 c0 -9 213 -128 239 -134 7 -2 16 3 19 11 3 10 0 12 -13 8
-18 -8 -215 97 -215 114 0 5 -7 9 -15 9 -8 0 -15 -4 -15 -8z"/>
<path d="M2060 1713 c0 -5 5 -15 10 -23 8 -12 10 -11 10 8 0 12 -4 22 -10 22
-5 0 -10 -3 -10 -7z"/>
<path d="M2100 1713 c0 -5 5 -15 10 -23 8 -12 10 -11 10 8 0 12 -4 22 -10 22
-5 0 -10 -3 -10 -7z"/>
<path d="M1690 1682 c-54 -54 -76 -185 -42 -252 51 -103 157 -48 183 95 27
143 -59 238 -141 157z m103 0 c37 -41 38 -161 3 -229 -53 -104 -133 -67 -138
62 l-1 50 -7 -50 -7 -50 -1 45 c0 42 24 144 27 110 1 -13 2 -13 11 0 14 21 12
33 -2 24 -8 -4 -10 -3 -5 2 5 5 12 9 15 9 4 0 17 10 30 23 27 27 53 28 75 4z
m-130 -242 c3 -11 1 -18 -4 -14 -5 3 -9 12 -9 20 0 20 7 17 13 -6z"/>
<path d="M1718 1653 c-42 -48 -58 -140 -34 -197 17 -41 36 -52 64 -37 47 25
76 164 46 222 -17 34 -52 39 -76 12z m56 -15 c9 -12 16 -36 15 -53 l-1 -30
-10 35 c-5 19 -16 42 -24 50 -13 13 -13 10 0 -15 20 -39 20 -104 0 -155 -29
-71 -69 -42 -68 49 1 69 34 140 66 141 4 0 14 -10 22 -22z m13 -120 c-3 -7 -5
-2 -5 12 0 14 2 19 5 13 2 -7 2 -19 0 -25z"/>
<path d="M1661 1584 c0 -11 3 -14 6 -6 3 7 2 16 -1 19 -3 4 -6 -2 -5 -13z"/>
<path d="M263 1640 c28 -22 47 -26 47 -9 0 5 -5 7 -12 3 -8 -5 -9 -2 -5 9 5
14 0 17 -25 17 l-31 0 26 -20z"/>
<path d="M330 1635 c0 -8 5 -15 10 -15 6 0 10 7 10 15 0 8 -4 15 -10 15 -5 0
-10 -7 -10 -15z"/>
<path d="M2170 1643 c0 -5 5 -15 10 -23 8 -12 10 -11 10 8 0 12 -4 22 -10 22
-5 0 -10 -3 -10 -7z"/>
<path d="M2207 1636 c-6 -14 1 -26 14 -26 4 0 7 9 6 20 -1 23 -12 26 -20 6z"/>
<path d="M245 1630 c-3 -5 -1 -10 4 -10 6 0 11 5 11 10 0 6 -2 10 -4 10 -3 0
-8 -4 -11 -10z"/>
<path d="M2120 1630 c0 -5 5 -10 10 -10 6 0 10 5 10 10 0 6 -4 10 -10 10 -5 0
-10 -4 -10 -10z"/>
<path d="M1915 1557 c-97 -97 -56 -307 50 -259 13 6 35 35 50 66 24 48 27 65
23 122 -3 55 -8 70 -27 85 -33 27 -59 23 -96 -14z m99 -9 c37 -53 8 -197 -47
-233 -87 -57 -117 145 -35 232 27 29 62 29 82 1z"/>
<path d="M1931 1524 c-11 -15 -21 -34 -21 -43 1 -9 7 -4 17 14 22 42 23 42 39
21 18 -25 18 -97 0 -141 -25 -59 -52 -39 -59 40 l-3 50 -2 -51 c-2 -65 22
-103 55 -86 26 14 52 68 58 124 11 82 -41 126 -84 72z m59 -5 c18 -33 7 -41
-12 -9 -9 17 -13 30 -8 30 5 0 14 -9 20 -21z"/>
<path d="M203 1447 c-3 -5 -1 -7 5 -3 5 3 12 1 14 -6 4 -12 38 -4 38 9 0 12
-49 12 -57 0z"/>
<path d="M285 1430 c-3 -5 1 -10 9 -10 9 0 16 5 16 10 0 6 -4 10 -9 10 -6 0
-13 -4 -16 -10z"/>
<path d="M203 1418 c-2 -5 9 -8 26 -8 16 0 32 3 34 8 3 4 -8 7 -25 7 -16 0
-32 -3 -35 -7z"/>
<path d="M2145 1351 c-4 -8 -2 -16 5 -21 10 -6 9 -9 -1 -13 -9 -3 -10 -6 -2
-6 17 -1 22 11 13 33 -5 15 -9 16 -15 7z"/>
<path d="M2110 1343 c0 -5 5 -15 10 -23 7 -12 9 -10 7 8 -1 19 -17 33 -17 15z"/>
<path d="M238 1200 c40 -25 41 -25 39 0 -1 21 -17 28 -17 8 0 -9 -3 -9 -12 0
-7 7 -19 12 -27 12 -9 0 -1 -9 17 -20z"/>
<path d="M300 1205 c0 -8 5 -15 10 -15 6 0 10 7 10 15 0 8 -4 15 -10 15 -5 0
-10 -7 -10 -15z"/>
<path d="M2134 1211 c11 -18 -36 -61 -82 -75 -26 -8 -41 -15 -34 -15 27 -2 0
-21 -31 -22 -28 -2 -29 -2 -6 -6 21 -3 25 -8 21 -28 -10 -55 23 -100 54 -74 8
6 14 8 14 3 0 -5 7 0 15 10 21 28 19 69 -6 100 -13 16 -15 24 -6 20 22 -8 77
44 77 72 0 13 -5 24 -11 24 -5 0 -8 -4 -5 -9z m-74 -166 c0 -36 -8 -43 -27
-24 -14 14 -4 59 13 59 9 0 14 -12 14 -35z"/>
<path d="M556 1160 c-39 -51 -100 -183 -94 -202 2 -6 14 15 26 48 25 68 81
166 100 172 7 2 12 -5 12 -17 0 -41 117 -321 134 -321 3 0 -15 42 -38 93 -43
91 -91 225 -85 232 2 1 70 -30 150 -69 81 -40 203 -91 273 -114 442 -147 916
-145 1111 4 36 27 45 30 45 17 0 -13 3 -14 11 -6 9 9 7 16 -5 28 -14 14 -14
20 -4 34 7 9 -3 3 -22 -14 -20 -16 -47 -38 -60 -48 -17 -13 -13 -12 14 3 30
17 36 18 26 5 -21 -25 -119 -72 -188 -90 -279 -72 -716 -17 -1082 137 -104 43
-251 120 -273 143 -12 11 -19 6 -51 -35z"/>
<path d="M2246 1163 c-8 -19 7 -38 22 -29 11 7 4 46 -8 46 -4 0 -11 -8 -14
-17z"/>
<path d="M2221 1154 c0 -11 3 -14 6 -6 3 7 2 16 -1 19 -3 4 -6 -2 -5 -13z"/>
<path d="M2170 1150 c0 -5 7 -10 15 -10 8 0 15 5 15 10 0 6 -7 10 -15 10 -8 0
-15 -4 -15 -10z"/>
<path d="M2240 1013 c0 -13 5 -23 10 -23 13 0 13 11 0 30 -8 12 -10 11 -10 -7z"/>
<path d="M2274 1011 c0 -11 4 -17 8 -15 4 3 8 12 8 20 0 8 -4 14 -8 14 -4 0
-8 -9 -8 -19z"/>
<path d="M385 1010 c3 -5 10 -10 16 -10 5 0 9 5 9 10 0 6 -7 10 -16 10 -8 0
-12 -4 -9 -10z"/>
<path d="M318 1003 c10 -4 10 -8 1 -19 -7 -8 -7 -14 -1 -14 5 0 13 7 16 16 9
23 8 24 -11 23 -12 0 -13 -2 -5 -6z"/>
<path d="M355 989 c5 -16 4 -19 -5 -14 -9 5 -11 4 -6 -4 4 -6 12 -9 17 -6 13
8 11 45 -2 45 -6 0 -8 -9 -4 -21z"/>
<path d="M2100 910 c0 -5 5 -10 10 -10 6 0 10 5 10 10 0 6 -4 10 -10 10 -5 0
-10 -4 -10 -10z"/>
<path d="M536 891 c-4 -5 -2 -12 3 -15 5 -4 12 -2 15 3 4 5 2 12 -3 15 -5 4
-12 2 -15 -3z"/>
<path d="M2116 872 c-2 -4 -1 -14 5 -22 7 -12 9 -10 9 8 0 23 -5 28 -14 14z"/>
<path d="M2144 866 c-4 -10 -2 -22 4 -28 8 -8 13 -7 18 6 4 10 2 22 -4 28 -8
8 -13 7 -18 -6z"/>
<path d="M514 848 c-4 -7 -3 -8 4 -4 16 9 15 -7 0 -22 -7 -7 -8 -12 -2 -12 5
0 15 9 21 19 10 15 9 20 -2 25 -8 3 -17 0 -21 -6z"/>
<path d="M552 830 c-7 -11 -8 -20 -3 -20 9 0 24 30 18 36 -1 2 -8 -6 -15 -16z"/>
<path d="M1870 825 c0 -8 5 -15 10 -15 6 0 10 7 10 15 0 8 -4 15 -10 15 -5 0
-10 -7 -10 -15z"/>
<path d="M840 815 c0 -8 5 -15 10 -15 6 0 10 7 10 15 0 8 -4 15 -10 15 -5 0
-10 -7 -10 -15z"/>
<path d="M1896 791 c-4 -6 -3 -19 3 -28 9 -17 10 -17 17 0 8 21 -10 45 -20 28z"/>
<path d="M830 780 c8 -5 9 -9 1 -14 -6 -4 -11 -13 -11 -19 0 -7 8 -3 16 8 11
14 18 16 21 8 7 -20 22 -15 17 5 -3 10 -16 18 -31 19 -16 0 -21 -2 -13 -7z"/>
<path d="M1390 775 c0 -8 5 -15 10 -15 6 0 10 7 10 15 0 8 -4 15 -10 15 -5 0
-10 -7 -10 -15z"/>
<path d="M1867 770 c3 -11 7 -20 9 -20 2 0 4 9 4 20 0 11 -4 20 -9 20 -5 0 -7
-9 -4 -20z"/>
<path d="M1394 724 c16 -17 24 -20 34 -12 20 17 9 32 -24 34 l-30 1 20 -23z
m31 6 c3 -5 1 -10 -4 -10 -6 0 -11 5 -11 10 0 6 2 10 4 10 3 0 8 -4 11 -10z"/>
<path d="M1375 721 c-3 -5 -1 -12 5 -16 5 -3 10 1 10 9 0 18 -6 21 -15 7z"/>
</g>
</svg>
