<?xml version="1.0" standalone="no"?>
<!DOCTYPE svg PUBLIC "-//W3C//DTD SVG 20010904//EN"
 "http://www.w3.org/TR/2001/REC-SVG-20010904/DTD/svg10.dtd">
<svg version="1.0" xmlns="http://www.w3.org/2000/svg"
 width="564.000000pt" height="752.000000pt" viewBox="0 0 564.000000 752.000000"
 preserveAspectRatio="xMidYMid meet">

<g transform="translate(0.000000,752.000000) scale(0.100000,-0.100000)"
fill="#000000" stroke="none">
<path d="M2633 6761 c-23 -11 -54 -28 -70 -39 -24 -17 -36 -19 -83 -12 -106
16 -328 11 -422 -10 -243 -53 -451 -180 -688 -419 -381 -383 -616 -784 -721
-1231 -26 -111 -37 -391 -20 -511 56 -385 351 -743 720 -871 244 -84 552 -73
863 33 162 55 389 186 575 331 109 85 153 141 173 218 31 117 -36 255 -160
328 -39 24 -56 27 -130 27 -103 0 -129 -12 -360 -165 -253 -168 -354 -210
-561 -234 -115 -14 -252 34 -350 122 -214 192 -226 522 -34 927 131 276 430
644 629 774 120 78 172 95 296 95 63 1 113 -4 126 -11 11 -6 39 -47 63 -91 58
-108 92 -146 158 -178 46 -23 69 -28 132 -28 126 1 211 52 267 161 27 54 29
66 32 194 4 158 -16 331 -50 427 -27 76 -77 138 -132 163 -57 26 -195 26 -253
0z m200 -32 c53 -14 106 -65 134 -127 32 -73 54 -230 56 -402 2 -134 0 -149
-22 -193 -29 -60 -101 -124 -155 -138 -23 -6 -66 -9 -97 -6 -105 9 -172 63
-230 182 -18 35 -45 76 -61 92 -28 27 -34 28 -145 31 -162 5 -217 -12 -361
-111 -94 -64 -286 -264 -399 -414 -202 -269 -315 -507 -358 -757 -40 -235 8
-422 143 -561 64 -66 133 -113 207 -141 40 -15 76 -19 175 -19 211 1 325 45
615 235 100 66 205 130 231 142 210 95 431 -132 326 -333 -69 -133 -464 -389
-737 -477 -167 -55 -244 -66 -440 -67 -206 0 -269 11 -414 73 -121 53 -221
121 -321 222 -174 174 -269 361 -305 600 -19 121 -19 196 0 347 50 405 249
803 609 1220 249 289 515 467 790 530 84 20 330 22 419 5 58 -11 59 -11 98 20
62 50 162 70 242 47z"/>
<path d="M2145 6584 c-48 -12 -113 -39 -148 -62 -69 -46 -82 -107 -36 -167 29
-35 100 -35 170 2 44 23 62 26 137 25 56 0 103 -6 132 -17 99 -38 160 -32 190
18 29 47 25 74 -17 117 -61 59 -135 82 -283 86 -69 2 -134 1 -145 -2z m285
-60 c116 -32 164 -91 105 -130 -24 -15 -30 -15 -109 11 -74 24 -96 27 -178 23
-77 -3 -102 -9 -143 -31 -57 -31 -87 -34 -109 -11 -52 52 27 124 164 151 75
14 191 9 270 -13z"/>
<path d="M1787 6419 c-20 -12 -47 -60 -47 -84 0 -10 7 -32 15 -50 28 -58 102
-73 153 -30 49 41 50 107 2 155 -22 22 -91 27 -123 9z m93 -49 c11 -11 20 -28
20 -37 0 -46 -79 -73 -100 -34 -16 31 -12 59 12 75 30 21 44 20 68 -4z"/>
<path d="M3738 6713 c-40 -84 -49 -170 -23 -209 17 -26 16 -28 -6 -72 -48 -96
-30 -200 43 -249 35 -23 138 -53 183 -53 26 0 27 -2 22 -37 -4 -21 0 -69 8
-107 12 -55 12 -72 2 -78 -19 -12 -34 -10 -97 17 -70 30 -116 32 -128 8 -19
-37 -12 -86 18 -123 l29 -37 -40 -22 c-289 -163 -600 -658 -663 -1057 -20
-129 -20 -235 0 -355 32 -188 104 -334 230 -468 205 -218 480 -332 809 -334
116 -1 154 3 225 22 129 34 262 87 395 155 144 74 252 170 274 245 23 78 -2
163 -70 236 -53 57 -105 85 -174 92 -65 7 -99 -4 -250 -79 -66 -33 -160 -73
-210 -90 -85 -29 -96 -30 -205 -25 -165 7 -266 46 -359 138 -78 79 -117 200
-105 329 17 190 158 482 308 638 92 96 117 106 251 99 132 -6 190 -26 303
-101 134 -89 215 -103 320 -54 86 41 162 159 162 252 0 53 -29 121 -70 166
l-39 43 24 19 c33 26 75 119 75 166 0 130 -88 210 -217 200 -32 -3 -66 -9 -75
-13 -13 -5 -20 -1 -27 17 -22 59 -112 116 -248 159 -38 11 -74 22 -81 25 -9 3
-4 13 16 33 56 56 63 139 20 224 -19 38 -19 40 -1 59 31 35 24 128 -16 216
-19 39 -37 72 -41 72 -4 0 -11 -15 -14 -33 -14 -73 -98 -117 -173 -92 -56 19
-119 19 -173 0 -41 -14 -46 -14 -87 6 -41 20 -73 60 -73 93 0 39 -23 21 -52
-41z m611 -46 c28 -76 27 -135 -3 -174 -1 -1 -34 29 -73 67 l-70 69 29 12 c33
14 78 63 78 87 0 26 16 2 39 -61z m-569 50 c0 -16 45 -59 79 -77 l23 -12 -28
-19 c-16 -10 -48 -40 -71 -66 -35 -39 -45 -45 -53 -33 -16 25 -11 106 11 165
19 51 39 73 39 42z m324 -73 c13 -5 12 -9 -7 -24 -16 -13 -24 -15 -30 -7 -5 9
-11 7 -21 -5 -17 -23 -22 -23 -29 4 -5 17 -9 19 -20 9 -15 -12 -47 -5 -47 9 0
5 8 11 18 13 26 7 118 8 136 1z m-150 -45 c20 -17 40 -28 46 -24 5 3 13 -1 16
-9 6 -16 34 -23 34 -8 0 4 22 22 49 41 l49 33 56 -37 c64 -42 102 -84 141
-157 26 -47 26 -50 10 -68 -9 -10 -31 -22 -49 -26 -17 -3 -35 -9 -39 -11 -12
-7 30 -50 64 -63 16 -7 29 -17 29 -22 0 -15 -52 1 -76 23 -11 10 -25 19 -32
19 -6 0 -16 9 -21 19 -16 28 -105 91 -147 103 -58 15 -125 -6 -183 -58 -78
-70 -80 -128 -8 -167 36 -19 57 -22 147 -22 90 0 111 3 147 22 23 13 46 31 52
40 8 16 11 15 21 -11 6 -16 9 -31 6 -33 -2 -2 -30 -12 -63 -20 -100 -27 -337
-19 -395 13 -4 3 0 17 8 32 14 27 19 82 8 82 -3 0 -19 -11 -36 -25 -30 -25
-68 -34 -68 -15 0 6 6 10 14 10 16 0 76 47 76 59 0 4 -17 13 -39 19 -63 19
-69 34 -39 95 30 61 97 139 147 172 20 13 37 24 38 24 1 1 18 -13 37 -30z
m150 -213 c45 -19 126 -98 126 -123 0 -86 -235 -117 -347 -47 -50 31 -16 105
70 154 57 33 100 37 151 16z m267 -99 c-8 -8 -21 -6 -46 8 l-36 18 43 22 43
22 3 -30 c2 -16 -1 -34 -7 -40z m-623 43 c17 -8 32 -17 32 -21 0 -10 -63 -38
-72 -33 -10 7 -11 77 0 72 4 -3 22 -11 40 -18z m53 -114 c-12 -30 -14 -30 -43
-15 -21 11 -20 12 13 29 19 10 35 17 37 15 1 -1 -2 -14 -7 -29z m512 18 c22
-8 22 -21 -3 -34 -15 -8 -21 -6 -30 9 -14 27 -13 44 3 37 6 -3 20 -9 30 -12z
m66 -90 c102 -31 214 -87 241 -121 22 -28 60 -125 60 -153 0 -10 -11 -32 -25
-47 l-24 -28 -1 44 c0 88 -44 169 -99 184 -31 8 -25 -10 9 -28 45 -23 73 -86
68 -152 -4 -45 -2 -56 14 -64 24 -13 23 -41 -4 -67 -21 -18 -78 -47 -82 -40
-1 2 -6 16 -12 33 -9 27 -28 42 -79 61 -17 7 -16 8 10 12 47 6 48 16 7 49 -51
41 -75 92 -66 139 4 24 3 35 -3 31 -18 -12 -23 -67 -9 -100 7 -18 28 -46 45
-63 34 -35 32 -44 -14 -44 -17 0 -48 -9 -70 -20 -22 -11 -40 -20 -41 -20 0 0
-1 13 -2 29 0 17 -6 39 -12 50 -8 16 -7 26 6 46 9 13 14 30 12 37 -3 8 -11 1
-21 -17 -18 -35 -76 -93 -131 -129 -46 -31 -56 -32 -56 -8 0 10 -13 39 -30 65
l-30 47 46 0 c46 0 104 23 104 40 0 14 -12 12 -34 -5 -24 -18 -116 -20 -138
-2 -16 12 -35 62 -40 109 -6 55 60 89 96 49 10 -11 31 -25 47 -31 23 -10 27
-15 18 -26 -9 -11 -7 -15 5 -19 9 -3 23 -7 32 -10 13 -4 14 -8 4 -20 -10 -13
-8 -15 13 -15 20 0 25 5 24 22 -1 11 -9 23 -19 26 -10 2 -18 10 -18 18 0 7
-17 22 -37 33 -21 10 -47 28 -57 40 -23 26 -72 28 -99 4 -20 -17 -20 -17 -14
0 4 10 7 22 7 26 0 5 37 11 83 14 65 6 150 22 226 46 3 0 43 -11 90 -25z m495
-190 c75 -36 108 -160 67 -250 -30 -66 -171 -164 -236 -164 -27 0 -34 14 -10
24 24 9 18 24 -11 28 l-26 3 20 26 c11 14 40 32 64 40 23 7 62 32 85 55 37 35
43 46 43 83 0 34 -6 49 -30 73 -27 27 -36 30 -73 25 -23 -2 -48 -6 -56 -8 -8
-3 -17 8 -22 26 -7 23 -5 33 8 43 24 18 136 15 177 -4z m-1064 -24 c12 -8 11
-10 -7 -10 -12 0 -30 -3 -40 -6 -16 -5 -16 -4 1 10 23 19 26 19 46 6z m60 -51
c25 -49 24 -102 -3 -107 -26 -5 -76 17 -87 39 -13 24 22 59 52 51 14 -3 19 -1
14 6 -10 17 -38 15 -64 -4 -27 -19 -41 -11 -26 14 6 9 25 18 43 20 17 2 31 7
31 13 0 22 21 6 40 -32z m40 0 c0 -5 -4 -9 -10 -9 -5 0 -10 7 -10 16 0 8 5 12
10 9 6 -3 10 -10 10 -16z m91 1 c5 0 25 -24 45 -54 45 -68 44 -100 -4 -104
-35 -4 -82 20 -82 40 0 19 41 57 56 51 16 -6 19 13 4 22 -15 9 -61 -23 -67
-46 -8 -29 -23 -22 -23 11 0 22 7 33 29 44 16 9 31 12 35 9 3 -4 6 -1 6 5 0
18 -41 14 -62 -5 -19 -17 -35 -12 -23 7 10 15 47 30 63 24 8 -2 18 -4 23 -4z
m829 -20 c32 -32 27 -91 -11 -129 -41 -42 -68 -47 -116 -22 -31 15 -42 28 -47
52 -4 22 -2 35 9 43 8 6 19 23 24 38 15 40 107 52 141 18z m-548 -85 c0 -20
-5 -42 -10 -47 -11 -11 -67 -4 -92 12 -13 8 -11 12 8 26 13 9 35 26 50 39 32
28 44 20 44 -30z m-328 -40 c15 -14 32 -25 39 -25 7 0 -14 -11 -46 -24 -141
-58 -237 -139 -237 -199 0 -18 6 -39 13 -46 10 -11 7 -12 -13 -5 -74 25 -137
-11 -147 -83 -8 -57 17 -99 67 -114 78 -24 137 31 127 117 l-4 42 32 -5 c33
-5 36 -4 180 71 28 14 65 26 83 26 53 0 156 30 186 53 19 15 29 35 33 63 4 34
1 45 -23 74 -22 25 -24 32 -11 27 10 -4 23 -7 28 -7 5 0 9 -6 9 -14 0 -24 39
-63 67 -69 16 -3 44 -2 63 3 19 5 60 14 91 20 31 6 74 20 95 30 46 24 54 24
79 6 21 -15 29 -12 -115 -46 -175 -41 -246 -125 -170 -202 47 -46 65 -41 333
86 65 31 122 56 127 56 16 0 79 -83 91 -118 41 -124 -64 -277 -200 -290 -58
-5 -119 19 -224 91 -97 67 -183 91 -327 91 -114 1 -116 1 -167 -32 -99 -63
-215 -217 -308 -407 -81 -164 -109 -280 -103 -422 3 -91 7 -107 41 -176 43
-86 109 -152 197 -197 99 -50 164 -64 295 -64 143 0 201 17 403 118 158 79
189 88 254 75 104 -23 194 -135 185 -231 -9 -98 -97 -179 -302 -278 -240 -116
-403 -156 -595 -147 -166 8 -301 42 -445 112 -341 166 -515 444 -515 821 0
262 91 528 278 809 127 192 263 325 408 401 78 41 112 43 148 9z m493 10 c42
-12 53 -21 62 -45 8 -25 7 -31 -7 -39 -34 -17 -74 -22 -88 -10 -17 14 -18 51
-1 68 10 10 8 12 -8 9 -17 -3 -20 -11 -19 -51 0 -43 -2 -48 -20 -45 -25 4 -34
51 -15 74 6 8 9 18 5 22 -12 12 -36 -29 -36 -62 -1 -29 -1 -30 -15 -12 -22 29
-19 44 14 77 33 33 56 35 128 14z m-292 -15 c3 -6 -4 -10 -17 -10 -18 0 -20 2
-8 10 19 12 18 12 25 0z m49 -73 c12 -9 17 -23 14 -42 -4 -40 -50 -62 -153
-75 -62 -8 -94 -19 -160 -55 -46 -25 -92 -45 -104 -45 -11 0 -28 11 -37 25
-16 24 -16 27 2 47 49 57 136 111 223 139 67 21 189 25 215 6z m437 -51 c-23
-25 -15 -43 14 -32 8 3 15 1 15 -3 0 -5 -7 -11 -15 -15 -22 -8 -18 -26 5 -26
25 0 26 -16 3 -23 -10 -3 -60 -24 -111 -46 -104 -46 -133 -50 -162 -21 -29 29
-26 71 8 102 47 44 153 82 241 87 l24 1 -22 -24z m-941 -226 c24 -24 25 -48 4
-78 -17 -24 -62 -30 -82 -10 -17 17 -15 74 4 92 21 22 50 20 74 -4z"/>
<path d="M3840 6451 c0 -6 4 -12 10 -16 14 -8 1 -35 -18 -35 -13 0 -12 -3 3
-20 22 -25 37 -25 58 -2 21 23 22 46 1 66 -17 17 -54 22 -54 7z"/>
<path d="M4200 6451 c0 -5 5 -11 12 -13 7 -3 9 -12 5 -22 -4 -11 -13 -16 -22
-12 -21 8 -18 -8 6 -30 22 -19 43 -13 63 18 16 26 -8 68 -39 68 -14 0 -25 -4
-25 -9z"/>
<path d="M4005 6383 c-55 -15 -60 -53 -10 -85 26 -18 35 -30 35 -52 0 -26 -2
-28 -30 -23 -16 4 -41 14 -55 23 -20 13 -23 19 -14 30 14 17 5 18 -22 4 -10
-6 -19 -18 -19 -26 0 -8 5 -12 11 -9 5 4 18 0 27 -8 47 -42 166 -46 215 -6 14
10 32 16 41 13 22 -8 20 9 -2 29 -23 21 -34 22 -30 1 3 -17 -54 -54 -84 -54
-26 0 -25 56 0 64 11 4 29 18 42 31 l24 25 -20 21 c-21 20 -74 31 -109 22z
m95 -33 c0 -5 -4 -10 -9 -10 -6 0 -13 5 -16 10 -3 6 1 10 9 10 9 0 16 -4 16
-10z"/>
<path d="M2595 3195 c-512 -50 -809 -198 -1081 -540 -66 -83 -80 -90 -194 -99
-182 -13 -329 -67 -414 -153 -124 -124 -173 -291 -184 -628 l-7 -200 -42 -3
c-41 -3 -42 -5 -58 -53 -20 -61 -17 -165 8 -221 l16 -38 235 0 236 0 0 65 c0
207 113 387 299 478 83 40 90 42 198 45 93 3 124 0 181 -17 219 -66 371 -275
372 -509 l0 -62 733 2 732 3 6 85 c3 47 11 105 18 130 37 132 152 263 288 328
74 35 84 37 195 40 99 4 126 1 182 -18 218 -72 365 -277 366 -507 l0 -63 140
0 c140 0 140 0 152 25 8 18 19 25 38 25 19 0 30 7 38 25 25 55 5 125 -35 125
-17 0 -23 6 -23 24 0 48 -20 85 -48 88 l-27 3 3 230 c1 127 -2 314 -6 416 -10
212 -19 239 -87 274 -38 19 -56 20 -395 17 -195 -2 -466 -1 -601 3 l-245 7
-18 92 c-27 134 -93 326 -156 451 -77 153 -55 145 -405 144 -154 -1 -338 -7
-410 -14z m720 -29 c29 -19 93 -146 147 -290 37 -100 88 -300 88 -344 0 -19 6
-35 14 -38 8 -3 289 -6 624 -7 599 -2 611 -2 638 -23 35 -26 52 -74 53 -149
l1 -60 -71 -1 c-49 0 -73 -5 -79 -14 -22 -35 -25 -269 -5 -322 8 -19 88 -33
135 -23 l31 7 -3 -163 c-3 -146 -5 -164 -20 -167 -13 -3 -24 11 -42 52 -80
181 -250 335 -445 404 -70 25 -88 27 -231 26 -150 0 -158 -1 -242 -33 -109
-41 -185 -89 -268 -172 -71 -70 -125 -146 -157 -224 l-22 -50 -563 -3 -564 -2
-43 83 c-63 126 -182 251 -302 320 -25 14 -82 38 -125 53 -102 34 -272 44
-380 21 -219 -47 -406 -193 -506 -394 l-41 -83 -94 0 c-75 0 -95 3 -99 15 -9
24 15 394 31 478 60 312 208 436 561 466 56 5 110 14 120 21 10 7 39 37 64 68
25 31 87 100 138 153 297 310 700 424 1458 415 146 -2 176 -5 199 -20z m1570
-1018 c3 -46 5 -114 3 -153 l-3 -70 -65 0 -64 0 -9 40 c-10 45 -5 235 7 253 4
7 31 12 66 12 l58 0 7 -82z m-3090 -133 c109 -23 225 -85 311 -167 81 -77 151
-175 179 -250 l18 -48 588 0 587 0 41 83 c86 175 228 301 421 369 38 14 92 22
175 25 151 6 238 -11 355 -69 118 -58 248 -187 307 -304 22 -45 42 -87 45 -94
3 -10 21 -13 60 -11 50 2 58 -1 69 -20 14 -26 17 -148 6 -201 l-8 -38 -118 0
-118 0 -7 75 c-14 157 -72 274 -184 376 -113 102 -211 139 -367 139 -158 0
-280 -48 -384 -152 -105 -104 -159 -219 -168 -360 l-6 -78 -703 0 -704 0 0 43
c0 68 -27 177 -61 247 -22 45 -56 88 -108 140 -121 119 -219 160 -386 160
-163 0 -279 -48 -392 -160 -98 -99 -148 -208 -160 -352 l-6 -78 -212 0 -212 0
-11 39 c-16 53 -15 145 2 186 l15 35 150 0 151 0 29 64 c88 194 264 343 465
396 88 23 243 25 341 5z m3229 -601 c11 -29 6 -65 -9 -71 -24 -8 -28 1 -20 46
7 43 18 52 29 25z"/>
<path d="M2700 3083 c-390 -25 -651 -112 -862 -287 -75 -62 -184 -185 -213
-241 l-20 -36 28 -24 c15 -13 27 -34 27 -45 0 -32 31 -79 65 -100 17 -11 61
-25 97 -32 l66 -12 11 -86 c17 -131 21 -140 66 -158 64 -24 166 -96 228 -159
73 -75 96 -106 137 -192 l35 -71 540 2 540 3 7 55 c4 30 10 156 14 280 7 266
-11 506 -51 663 -46 179 -141 396 -187 427 -19 12 -66 15 -248 16 -124 1 -250
-1 -280 -3z m359 -90 c-36 -38 -159 -164 -274 -280 l-209 -213 -147 0 c-104 0
-150 4 -155 12 -11 17 -18 313 -9 402 l7 76 36 9 c140 38 349 58 622 60 l194
1 -65 -67z m155 46 c14 -11 33 -33 40 -48 14 -26 12 -30 -65 -131 -44 -58
-124 -162 -177 -232 l-97 -128 -143 0 c-79 0 -142 4 -140 9 7 18 533 551 544
551 6 0 23 -9 38 -21z m-979 -291 c0 -128 3 -241 7 -250 7 -17 45 -18 592 -18
l584 0 9 -87 c10 -113 10 -545 0 -645 l-9 -78 -518 0 -519 0 -19 44 c-66 148
-219 302 -367 367 -48 21 -50 24 -65 119 -16 105 -17 105 40 119 60 15 78 39
88 108 l7 48 81 3 80 3 -4 204 c-4 167 1 295 11 295 1 0 2 -105 2 -232z m-40
-18 l0 -231 -65 3 c-56 3 -65 6 -68 23 -9 58 -34 104 -66 119 -98 46 -278 -10
-320 -99 -13 -26 -21 -34 -29 -26 -23 23 143 209 268 300 85 62 233 139 270
141 6 0 10 -83 10 -230z m1129 104 l38 -97 -43 -61 c-24 -34 -61 -87 -84 -118
l-40 -57 -117 0 c-65 -1 -118 2 -118 7 0 4 68 95 151 202 83 107 153 201 156
208 10 24 19 11 57 -84z m69 -219 c27 -121 31 -115 -69 -115 -74 0 -85 2 -80
16 9 23 118 174 126 174 4 0 14 -34 23 -75z m-1401 -5 c42 -33 59 -127 36
-203 -17 -56 -57 -71 -160 -64 -86 7 -125 23 -157 63 -39 50 -22 142 34 178
74 49 202 62 247 26z"/>
<path d="M2927 2350 c-32 -4 -63 -12 -68 -17 -6 -6 -9 -34 -7 -64 l3 -53 213
-1 c235 -1 232 -2 232 62 0 46 -21 65 -81 74 -67 9 -214 9 -292 -1z m298 -28
c37 -7 40 -10 43 -43 l3 -36 -198 2 -198 1 -3 26 c-4 29 12 45 53 51 50 7 257
6 300 -1z"/>
<path d="M945 2338 c-43 -15 -59 -32 -94 -97 -37 -69 -63 -188 -59 -262 3 -46
7 -55 29 -68 23 -13 33 -13 67 -2 118 39 322 260 324 351 1 36 -17 52 -81 75
-50 17 -141 19 -186 3z m195 -40 c55 -28 55 -45 5 -124 -70 -110 -234 -244
-297 -244 -30 0 -37 39 -23 125 23 139 65 227 119 251 50 22 145 18 196 -8z"/>
<path d="M1524 1805 c-82 -18 -150 -54 -217 -115 -109 -100 -157 -208 -157
-354 0 -152 49 -268 156 -365 191 -175 482 -168 667 16 273 272 136 739 -241
819 -81 17 -128 17 -208 -1z m215 -30 c89 -21 151 -58 220 -129 88 -93 131
-195 131 -316 0 -127 -50 -240 -146 -330 -108 -101 -244 -145 -380 -122 -308
51 -477 379 -340 657 95 192 304 289 515 240z"/>
<path d="M1545 1569 c-17 -5 -50 -25 -74 -46 -188 -160 -64 -460 182 -441 72
6 109 23 156 70 124 124 86 337 -74 409 -43 20 -137 24 -190 8z m156 -26 c54
-10 133 -96 148 -161 34 -141 -71 -272 -219 -272 -128 0 -220 92 -220 220 0
153 128 246 291 213z"/>
<path d="M4056 1808 c-123 -23 -252 -115 -321 -227 -50 -84 -68 -165 -63 -283
4 -85 9 -105 41 -173 131 -276 475 -367 722 -190 121 86 187 203 201 355 29
321 -260 580 -580 518z m202 -33 c88 -21 149 -55 215 -119 120 -118 167 -295
119 -452 -103 -338 -519 -443 -763 -193 -33 33 -71 86 -90 125 -33 67 -34 72
-34 194 0 120 1 128 33 194 38 81 133 180 207 216 101 49 204 60 313 35z"/>
<path d="M4065 1569 c-47 -13 -110 -73 -139 -131 -82 -165 40 -358 227 -358
102 0 180 48 224 138 67 136 8 289 -132 348 -38 15 -132 17 -180 3z m182 -36
c73 -34 133 -126 133 -203 0 -77 -62 -169 -136 -205 -56 -26 -159 -18 -212 18
-148 97 -129 322 33 393 43 19 140 17 182 -3z"/>
</g>
</svg>
