<?xml version="1.0" standalone="no"?>
<!DOCTYPE svg PUBLIC "-//W3C//DTD SVG 20010904//EN"
 "http://www.w3.org/TR/2001/REC-SVG-20010904/DTD/svg10.dtd">
<svg version="1.0" xmlns="http://www.w3.org/2000/svg"
 width="564.000000pt" height="760.000000pt" viewBox="0 0 564.000000 760.000000"
 preserveAspectRatio="xMidYMid meet">

<g transform="translate(0.000000,760.000000) scale(0.100000,-0.100000)"
fill="#000000" stroke="none">
<path d="M4775 6860 c-84 -41 -127 -118 -146 -260 -14 -110 -38 -449 -45 -652
-4 -98 -9 -178 -11 -178 -2 0 -23 10 -46 22 -23 12 -76 32 -117 44 -41 12 -76
26 -77 30 -2 5 16 18 39 29 58 27 88 86 88 171 0 45 -5 67 -16 79 -14 14 -19
14 -30 3 -10 -10 -11 -22 -2 -55 5 -23 8 -54 4 -67 -8 -31 -45 -73 -71 -80
-17 -5 -23 2 -38 45 -13 36 -40 73 -93 129 -74 77 -74 77 -46 83 39 8 82 44
98 83 20 47 17 135 -5 194 -23 60 -82 136 -114 146 -22 7 -53 29 -130 95 -23
20 -52 42 -65 48 -24 13 -62 7 -62 -10 0 -5 -10 -7 -22 -4 -72 17 -121 6 -116
-25 2 -9 -3 -24 -11 -33 -11 -14 -11 -20 -1 -32 7 -8 19 -15 27 -15 8 0 11 -4
8 -10 -3 -5 -14 -10 -24 -10 -18 0 -61 -35 -61 -50 0 -5 11 2 25 15 36 37 61
31 44 -10 -6 -17 -8 -17 -8 -2 -1 9 -5 17 -10 17 -17 0 -33 -31 -29 -55 7 -33
-6 -40 -34 -21 -27 20 -72 21 -87 3 -6 -8 -9 -42 -7 -85 3 -77 19 -111 64
-139 15 -10 45 -36 67 -59 52 -54 99 -64 157 -34 25 13 38 16 35 8 -2 -7 3
-26 12 -41 14 -24 14 -29 1 -37 -24 -15 -16 -127 11 -156 28 -30 17 -44 -36
-44 -36 0 -48 -5 -60 -24 -13 -19 -14 -29 -6 -45 18 -32 13 -38 -36 -50 -71
-18 -219 -93 -294 -150 -211 -160 -345 -377 -410 -661 -25 -109 -36 -384 -20
-490 14 -93 55 -229 88 -295 120 -239 346 -432 593 -505 272 -81 640 -61 851
45 l46 24 22 -29 c55 -76 186 -110 289 -76 59 20 135 83 161 135 29 57 33 108
17 216 -27 173 -39 523 -32 940 3 215 10 440 15 500 29 326 60 832 63 1030 1
123 -1 160 -17 205 -22 66 -93 140 -152 158 -64 19 -191 15 -238 -8z m242 -44
c35 -18 75 -61 99 -106 33 -60 23 -368 -36 -1160 -38 -507 -36 -1191 6 -1480
8 -63 13 -137 10 -164 -7 -66 -45 -119 -109 -156 -42 -24 -64 -30 -113 -30
-80 0 -124 19 -171 75 -20 25 -42 45 -49 45 -6 0 -31 -11 -55 -24 -128 -72
-298 -101 -540 -93 -195 5 -286 26 -428 94 -247 120 -420 331 -495 603 -58
209 -34 539 55 771 77 199 235 389 414 495 106 63 259 118 273 99 4 -6 19 -16
35 -24 36 -19 34 -27 -9 -36 -51 -9 -110 -49 -130 -86 -30 -60 1 -139 63 -160
30 -10 44 -8 111 17 74 28 83 29 233 27 179 -3 187 1 196 80 4 36 1 48 -23 76
-15 18 -46 41 -68 51 l-41 17 32 16 c18 10 36 24 41 34 9 15 17 14 93 -10 46
-14 106 -40 133 -57 27 -17 54 -29 61 -26 9 3 15 41 19 123 30 607 50 820 84
896 22 49 69 90 122 106 45 13 151 6 187 -13z m-1024 -94 c64 -56 125 -102
136 -102 23 0 90 -73 112 -123 28 -63 32 -166 9 -211 -34 -66 -113 -90 -167
-50 -48 36 -49 45 -20 141 15 48 27 107 27 130 0 48 -15 93 -30 93 -6 0 -4
-12 5 -30 22 -42 18 -93 -14 -190 -23 -69 -33 -88 -56 -99 -37 -18 -138 -26
-161 -13 -17 10 -17 11 -2 12 22 0 88 58 88 76 0 8 5 14 10 14 6 0 10 5 10 10
0 6 -12 10 -27 10 -21 0 -24 -3 -14 -9 22 -14 -1 -56 -41 -77 -42 -22 -143
-22 -185 0 -44 22 -73 63 -73 102 0 32 2 33 29 28 24 -5 35 -1 56 22 15 16 37
40 50 54 30 33 45 63 45 92 0 13 7 35 14 51 15 27 9 36 -10 17 -6 -6 -18 -8
-28 -4 -26 10 0 34 38 34 l31 1 -33 14 c-21 9 -31 19 -26 26 10 16 109 4 142
-17 27 -17 27 -17 10 3 -24 26 -23 33 7 33 15 0 43 -15 68 -38z m-316 -214
c21 -20 22 -23 6 -40 -9 -10 -30 -18 -49 -18 -28 0 -35 5 -40 25 -13 52 40 73
83 33z m83 -249 c0 -5 12 -9 28 -8 l27 1 -25 8 c-18 6 -20 8 -7 9 10 1 27 -4
38 -10 11 -6 34 -11 51 -11 l31 -1 -22 -19 c-32 -25 -90 -23 -131 5 -42 28
-49 46 -15 40 14 -3 25 -9 25 -14z m274 4 c7 -18 -27 -52 -51 -53 -23 0 -15
46 10 58 31 15 34 14 41 -5z m-84 -17 c0 -2 3 -13 6 -23 5 -15 4 -16 -6 -3
-10 13 -11 13 -7 0 6 -24 47 -24 79 0 27 20 32 20 45 7 13 -13 11 -17 -20 -36
-45 -28 -93 -37 -112 -21 -15 13 -21 61 -8 73 7 8 23 9 23 3z m154 -45 c3 -5
-1 -26 -10 -47 -19 -44 -7 -84 26 -84 11 0 27 -11 36 -25 19 -29 64 -34 88 -9
15 14 18 11 40 -38 30 -66 42 -153 21 -144 -17 6 -21 -9 -5 -19 23 -14 6 -37
-59 -75 -79 -47 -107 -49 -104 -7 1 15 -2 25 -8 22 -5 -4 -9 -15 -9 -26 0 -10
-4 -19 -9 -19 -17 0 -22 19 -11 40 8 15 8 20 -1 20 -8 0 -8 4 1 15 7 9 29 15
54 15 l41 0 -32 26 c-43 34 -46 82 -6 113 14 12 23 24 19 28 -3 4 -20 -7 -37
-23 -26 -25 -30 -34 -26 -67 5 -33 3 -36 -10 -25 -12 9 -14 24 -9 65 4 31 1
62 -6 77 -18 40 -29 31 -12 -10 11 -27 12 -39 4 -49 -7 -8 -9 -18 -6 -24 3 -5
1 -33 -5 -62 -16 -72 -54 -111 -106 -107 -35 3 -38 5 -36 31 1 15 -2 25 -8 22
-5 -4 -9 -13 -9 -21 0 -25 -17 -15 -23 14 -7 35 1 43 52 46 23 2 47 8 53 14
22 22 38 172 18 172 -5 0 -10 -18 -10 -40 0 -33 -3 -40 -20 -40 -11 0 -20 7
-20 15 0 7 -6 18 -14 22 -8 5 -16 34 -20 69 -5 50 -3 64 10 75 14 11 18 10 31
-6 11 -14 14 -15 10 -4 -4 12 4 19 32 28 21 6 46 20 56 31 20 22 31 25 39 11z
m56 -43 c16 -11 43 -38 60 -59 l30 -38 -23 -16 c-28 -18 -54 -11 -62 15 -3 10
-15 20 -27 22 -33 5 -44 30 -28 67 7 17 14 31 17 31 2 0 17 -10 33 -22z m286
-54 c14 -77 -21 -168 -77 -196 -32 -17 -34 -17 -40 0 -4 12 -1 18 12 20 24 4
78 61 86 90 3 13 3 46 0 73 -7 56 9 67 19 13z m-446 -188 c0 -34 -23 -48 -75
-45 -32 2 -49 -1 -55 -11 -5 -8 -12 -11 -17 -7 -4 4 -2 17 5 27 17 27 15 35
-5 19 -14 -12 -16 -12 -11 1 3 9 22 17 51 20 25 3 49 9 53 13 4 4 18 7 31 7
18 0 23 -6 23 -24z m95 -55 c3 -5 1 -12 -5 -16 -5 -3 -10 1 -10 9 0 18 6 21
15 7z m-10 -63 c0 -34 -13 -48 -43 -48 -23 1 -25 2 -11 13 9 7 21 22 28 35 6
12 15 22 19 22 5 0 8 -10 7 -22z m205 -123 c30 -18 35 -27 38 -63 l3 -42 -156
0 c-143 0 -162 -2 -236 -27 -88 -30 -107 -27 -124 21 -18 53 36 107 127 126
23 5 104 8 178 7 116 -2 140 -5 170 -22z"/>
<path d="M3531 5579 c-26 -25 -31 -39 -31 -76 0 -38 5 -50 34 -79 57 -57 136
-41 170 34 15 34 16 46 6 76 -26 80 -121 104 -179 45z m121 -32 c33 -50 8
-107 -46 -107 -37 0 -51 12 -61 52 -10 39 34 83 73 73 15 -4 30 -12 34 -18z"/>
<path d="M3986 5364 c-156 -31 -288 -130 -354 -266 -74 -152 -100 -425 -53
-561 58 -169 198 -301 375 -352 46 -14 87 -16 185 -13 109 3 134 7 181 29 55
26 167 106 228 162 l32 31 0 369 0 368 -29 42 c-44 64 -126 136 -184 161 -106
47 -242 58 -381 30z m317 -55 c77 -25 149 -77 194 -141 l34 -47 -1 -353 0
-352 -26 -27 c-46 -48 -183 -141 -228 -154 -24 -7 -79 -16 -123 -20 -149 -13
-283 31 -388 127 -75 68 -109 120 -141 214 -25 74 -26 87 -21 199 12 252 84
405 235 502 111 71 331 96 465 52z"/>
<path d="M3892 6547 c-12 -13 -22 -30 -22 -38 1 -8 7 -2 15 13 31 56 125 41
125 -20 0 -26 -15 -52 -30 -52 -3 0 -5 16 -5 35 1 24 -2 32 -10 25 -14 -11
-40 4 -31 19 11 17 -11 13 -29 -6 -10 -9 -15 -26 -12 -39 2 -13 0 -21 -4 -18
-5 3 -9 0 -9 -5 0 -6 17 -11 38 -11 21 0 43 -5 49 -11 8 -8 21 -4 47 17 24 20
31 31 23 36 -7 4 -8 8 -4 8 8 0 -2 13 -35 51 -25 27 -79 25 -106 -4z"/>
<path d="M3950 6083 c-14 -7 -18 -13 -10 -13 17 0 47 17 40 23 -3 2 -16 -2
-30 -10z"/>
<path d="M3895 5830 c-3 -5 -2 -10 4 -10 5 0 13 5 16 10 3 6 2 10 -4 10 -5 0
-13 -4 -16 -10z"/>
<path d="M4067 5783 c-4 -3 -7 -11 -7 -17 0 -6 5 -5 12 2 6 6 9 14 7 17 -3 3
-9 2 -12 -2z"/>
<path d="M727 6796 c-55 -20 -139 -87 -181 -144 -72 -99 -68 -37 -61 -911 5
-540 3 -863 -5 -1031 -6 -135 -14 -353 -17 -486 -5 -208 -3 -247 11 -291 31
-92 124 -172 221 -188 22 -4 69 -21 105 -37 296 -140 688 -175 1091 -98 296
56 522 185 727 414 145 162 264 397 318 631 29 124 27 437 -5 559 -44 173
-121 339 -228 489 -72 101 -301 334 -408 414 -228 171 -448 291 -705 384 -144
52 -193 73 -407 174 -265 126 -368 154 -456 121z m229 -72 c49 -19 160 -69
247 -110 178 -84 256 -116 407 -171 138 -49 380 -172 505 -255 478 -320 747
-706 795 -1140 62 -552 -296 -1145 -802 -1329 -190 -70 -389 -100 -650 -100
-244 0 -442 40 -627 127 -51 24 -104 44 -118 44 -63 0 -146 60 -186 135 -20
37 -22 53 -20 215 1 96 7 274 14 395 13 237 17 859 9 1555 l-5 435 23 43 c33
62 98 129 157 163 72 41 136 40 251 -7z"/>
<path d="M780 6597 c-14 -7 -33 -29 -44 -51 -16 -32 -17 -44 -7 -75 16 -56 44
-76 103 -76 43 0 53 4 79 33 43 47 41 102 -5 148 -37 37 -80 44 -126 21z m105
-67 c24 -46 -3 -90 -54 -90 -53 0 -80 62 -44 102 9 10 30 18 49 18 27 0 36 -6
49 -30z"/>
<path d="M1007 6540 c-14 -11 -31 -36 -37 -55 -18 -54 5 -85 97 -132 43 -22
121 -63 173 -90 172 -92 327 -155 360 -148 41 9 80 62 80 109 0 76 -41 106
-302 222 -273 121 -321 133 -371 94z m248 -91 c220 -95 347 -161 370 -192 18
-25 18 -30 5 -54 -26 -46 -43 -50 -107 -23 -182 74 -506 247 -511 272 -2 10 8
29 23 44 32 32 37 31 220 -47z"/>
<path d="M1010 5165 l0 -975 58 -29 c118 -60 156 -66 392 -66 234 1 312 10
446 55 239 80 434 317 494 603 91 430 -167 831 -710 1102 -197 99 -629 285
-661 285 -18 0 -19 -28 -19 -975z m264 829 c407 -175 600 -282 764 -424 213
-184 317 -379 329 -616 11 -224 -67 -430 -225 -596 -138 -145 -265 -194 -565
-219 -211 -17 -362 2 -489 61 l-28 13 -2 934 c-2 521 1 933 6 933 4 0 99 -39
210 -86z"/>
<path d="M2545 3264 c-321 -30 -518 -78 -725 -177 -86 -42 -118 -64 -177 -122
-89 -88 -98 -116 -88 -265 5 -85 11 -114 31 -150 36 -65 54 -225 54 -490 0
-209 -1 -216 -25 -264 -28 -55 -33 -137 -14 -226 31 -146 256 -267 614 -333
106 -19 154 -22 405 -22 217 0 311 5 396 17 390 60 683 186 782 335 37 56 37
57 36 157 0 89 -3 107 -26 151 -34 64 -48 217 -48 514 0 191 2 213 21 256 19
44 21 59 14 159 -4 79 -12 123 -27 153 -59 126 -298 237 -623 290 -85 13 -508
26 -600 17z m547 -40 c413 -57 668 -193 668 -356 0 -81 -33 -135 -127 -207
-98 -75 -359 -173 -551 -207 -731 -128 -1502 44 -1502 336 0 185 348 368 820
430 180 24 535 26 692 4z m657 -578 c-67 -142 -379 -287 -734 -341 -552 -83
-1130 0 -1347 194 -55 49 -72 78 -81 135 l-6 40 47 -47 c275 -268 1171 -330
1755 -120 168 60 315 149 359 217 l23 35 3 -33 c2 -20 -6 -53 -19 -80z m-5
-636 l6 -65 -38 115 c-37 111 -122 316 -148 354 -11 16 -5 23 60 67 40 27 79
56 87 65 12 15 15 -17 20 -227 3 -134 9 -273 13 -309z m-1974 387 c65 -33 209
-82 292 -101 l27 -6 -25 -68 c-55 -145 -139 -488 -157 -637 -5 -42 -10 -22
-41 145 -41 217 -88 402 -165 648 -10 35 -16 62 -13 60 4 -2 41 -21 82 -41z
m-72 -107 c47 -159 85 -302 111 -420 26 -115 72 -373 67 -377 -9 -9 -126 59
-170 99 l-48 43 3 90 c7 161 4 548 -4 629 -4 44 -5 77 -3 75 2 -2 22 -65 44
-139z m1797 44 c-33 -178 -58 -402 -71 -638 l-7 -119 -42 124 c-57 169 -125
330 -196 469 -32 64 -59 120 -59 123 0 4 9 7 21 7 40 0 278 73 335 103 16 8
30 14 32 13 1 -2 -4 -38 -13 -82z m90 -28 c93 -199 199 -575 173 -615 -22 -34
-107 -94 -203 -141 l-100 -51 -3 58 c-5 79 15 367 38 543 24 182 42 300 47
300 3 0 24 -42 48 -94z m-529 -113 c-52 -183 -103 -443 -130 -663 l-12 -105
-13 55 c-42 191 -173 568 -251 719 l-20 40 53 5 c28 3 95 8 147 11 52 4 129
12 170 19 41 7 77 11 78 10 2 -1 -8 -42 -22 -91z m-786 68 c47 -6 138 -14 203
-17 64 -3 117 -8 117 -11 0 -2 -14 -44 -31 -91 -74 -209 -153 -489 -180 -639
-7 -39 -16 -70 -20 -67 -4 2 -10 30 -13 61 -17 141 -100 469 -171 672 -19 55
-35 103 -35 107 0 3 10 4 23 1 12 -3 60 -11 107 -16z m-107 -143 c71 -219 128
-449 161 -659 l13 -80 -46 6 c-91 12 -208 37 -289 61 -67 20 -82 28 -78 42 2
9 8 42 11 72 11 93 33 210 59 325 30 127 106 375 116 375 3 0 27 -64 53 -142z
m1011 0 c82 -171 123 -271 179 -441 64 -191 64 -187 -3 -210 -74 -25 -326 -77
-371 -77 l-37 0 5 48 c16 178 54 413 94 582 25 105 61 230 66 230 2 0 32 -60
67 -132z m-495 -54 c67 -163 145 -394 184 -552 l33 -131 -60 -6 c-34 -3 -149
-5 -256 -3 l-195 3 3 25 c23 189 207 819 233 793 4 -4 30 -62 58 -129z m-1052
-351 c-3 -10 -5 -4 -5 12 0 17 2 24 5 18 2 -7 2 -21 0 -30z m2173 -75 c-17
-62 -122 -161 -224 -211 -264 -129 -560 -187 -957 -187 -292 0 -450 22 -660
90 -206 68 -312 154 -336 272 l-6 33 60 -55 c103 -96 284 -168 533 -212 171
-30 607 -33 799 -5 297 44 548 132 708 250 34 26 67 56 74 69 17 32 22 7 9
-44z"/>
<path d="M2480 3190 c-223 -20 -478 -85 -627 -160 -261 -130 -283 -308 -53
-425 215 -109 574 -161 932 -136 325 23 521 66 723 160 142 67 225 154 225
236 0 43 -37 111 -78 143 -112 88 -337 158 -588 182 -122 11 -404 11 -534 0z
m658 -44 c259 -45 426 -117 486 -210 33 -50 33 -88 1 -142 -154 -262 -1080
-392 -1638 -230 -290 84 -386 212 -261 346 104 112 416 216 739 249 140 15
563 6 673 -13z"/>
<path d="M1014 1266 c-60 -26 -83 -95 -48 -144 39 -56 146 -74 203 -33 l33 24
461 -62 c550 -74 785 -106 927 -126 58 -8 148 -19 200 -26 52 -6 106 -15 120
-19 22 -6 20 -8 -20 -14 -25 -4 -142 -25 -260 -47 -118 -21 -242 -44 -275 -50
-322 -57 -349 -66 -361 -116 -9 -33 12 -72 48 -92 24 -14 43 -12 230 28 111
24 230 50 263 57 33 8 112 25 175 38 63 14 233 50 378 81 l262 57 130 -17
c158 -20 185 -11 200 65 4 21 14 27 60 36 79 16 275 58 505 108 198 43 199 43
230 25 67 -41 173 -14 208 54 16 32 17 38 3 70 -35 86 -169 91 -237 10 -20
-24 -38 -31 -119 -46 -484 -88 -610 -111 -710 -128 -63 -11 -120 -21 -127 -24
-7 -2 -119 7 -250 20 -513 52 -848 87 -1078 110 -465 49 -721 75 -834 86 -109
11 -116 13 -146 44 -46 45 -111 57 -171 31z m121 -30 c19 -8 40 -26 46 -39 10
-22 19 -24 147 -36 75 -7 175 -16 222 -21 47 -5 220 -23 385 -40 165 -17 386
-39 490 -50 373 -38 791 -81 860 -89 80 -9 80 -9 -112 -44 l-131 -24 -244 33
c-133 18 -328 45 -433 59 -104 14 -273 37 -375 50 -102 14 -232 32 -290 40
-58 8 -148 20 -200 26 -52 7 -143 20 -203 29 -102 16 -108 16 -123 -1 -31 -34
-80 -43 -130 -24 -24 9 -49 25 -54 35 -42 78 48 136 145 96z m3510 -61 c33
-32 31 -51 -9 -91 -45 -45 -107 -50 -159 -13 -16 12 -36 18 -44 15 -9 -4 -163
-38 -342 -76 -179 -39 -355 -77 -391 -85 -72 -16 -343 -74 -605 -130 -355 -76
-402 -86 -465 -100 -217 -49 -538 -115 -556 -115 -53 0 -70 79 -21 100 12 5
112 26 222 46 110 19 319 57 465 84 146 27 456 83 690 125 234 42 522 94 640
116 118 21 244 44 280 50 103 16 110 19 110 33 0 8 14 26 31 40 43 36 119 37
154 1z m-995 -304 c0 -42 -27 -53 -109 -46 -93 9 -110 21 -43 30 39 5 122 24
150 34 1 1 2 -8 2 -18z"/>
</g>
</svg>
