<?xml version="1.0" standalone="no"?>
<!DOCTYPE svg PUBLIC "-//W3C//DTD SVG 20010904//EN"
 "http://www.w3.org/TR/2001/REC-SVG-20010904/DTD/svg10.dtd">
<svg version="1.0" xmlns="http://www.w3.org/2000/svg"
 width="564.000000pt" height="752.000000pt" viewBox="0 0 564.000000 752.000000"
 preserveAspectRatio="xMidYMid meet">

<g transform="translate(0.000000,752.000000) scale(0.100000,-0.100000)"
fill="#000000" stroke="none">
<path d="M1730 6769 c-126 -12 -288 -37 -441 -69 l-137 -29 -51 20 c-63 24
-172 25 -238 3 -61 -20 -116 -73 -144 -138 -19 -43 -22 -69 -22 -161 0 -60 8
-162 18 -225 20 -132 17 -405 -10 -790 -40 -571 -47 -740 -42 -990 6 -336 33
-487 115 -645 84 -161 217 -234 515 -282 96 -15 173 -18 552 -17 524 1 667 13
772 64 98 49 143 125 143 244 0 83 -24 150 -71 197 -84 84 -175 107 -331 85
-77 -12 -221 -16 -580 -18 -425 -3 -479 -1 -493 13 -9 9 -21 47 -27 85 -12 77
-15 595 -4 661 l7 41 67 6 c197 17 436 39 672 61 146 14 338 31 427 39 178 16
233 33 291 88 98 96 94 310 -8 402 -82 74 -107 81 -280 80 -85 -1 -225 -8
-310 -17 -209 -22 -645 -65 -749 -73 l-84 -7 6 69 c4 38 10 200 13 360 l7 291
71 16 c187 44 313 59 516 64 247 6 360 -6 620 -69 188 -45 305 1 386 152 27
52 26 191 -3 245 -26 49 -75 97 -128 123 -198 99 -685 155 -1045 121z m645
-63 c128 -19 244 -47 335 -82 73 -28 93 -42 135 -98 28 -37 30 -45 30 -127 0
-81 -2 -90 -30 -131 -17 -23 -52 -57 -77 -74 -65 -44 -117 -50 -220 -24 -416
104 -747 106 -1175 9 -51 -12 -97 -26 -101 -33 -5 -6 -12 -188 -16 -405 l-7
-394 93 7 c51 4 154 13 228 21 74 7 189 19 255 25 66 6 158 15 205 20 262 28
468 40 514 30 87 -19 153 -69 181 -137 21 -50 19 -159 -4 -208 -45 -97 -100
-119 -351 -140 -107 -8 -283 -24 -390 -35 -107 -10 -276 -26 -375 -35 -99 -9
-225 -20 -279 -25 -54 -5 -103 -13 -109 -19 -15 -15 -21 -556 -8 -685 13 -128
32 -176 76 -189 40 -12 909 -9 999 4 163 22 212 23 265 3 133 -48 195 -166
157 -298 -21 -71 -74 -127 -142 -149 -94 -31 -212 -39 -646 -44 -371 -4 -457
-3 -569 12 -380 48 -507 135 -584 400 -46 160 -59 275 -59 555 0 243 7 386 39
815 8 105 20 314 26 465 11 261 11 283 -10 443 -25 201 -26 256 -5 328 41 137
192 195 341 129 l43 -19 167 34 c308 63 427 75 708 70 155 -2 292 -9 360 -19z"/>
<path d="M1989 6639 c-14 -5 -36 -27 -48 -49 -19 -35 -21 -44 -11 -80 29 -106
179 -102 206 6 20 80 -67 154 -147 123z m83 -56 c39 -35 11 -103 -43 -103 -30
0 -59 31 -59 62 0 25 35 58 62 58 12 0 30 -7 40 -17z"/>
<path d="M2203 6605 c-36 -15 -53 -41 -53 -80 0 -51 15 -62 147 -105 70 -23
167 -62 215 -86 124 -62 181 -56 214 22 21 51 18 61 -38 120 -55 58 -137 105
-228 129 -70 19 -215 19 -257 0z m226 -40 c116 -28 261 -121 261 -169 0 -17
-38 -66 -52 -66 -5 0 -58 23 -116 51 -59 28 -148 64 -199 80 -87 26 -133 45
-133 54 0 58 108 81 239 50z"/>
<path d="M3795 5676 c-415 -84 -717 -431 -811 -931 -23 -125 -24 -394 0 -490
53 -221 161 -383 342 -511 226 -161 601 -237 935 -189 314 44 582 170 674 315
82 129 63 299 -40 357 -94 52 -203 37 -374 -53 -150 -79 -245 -105 -411 -111
-171 -7 -271 10 -385 67 -93 47 -144 85 -130 99 9 8 160 76 480 216 271 118
547 261 617 319 173 143 225 292 176 496 -51 209 -270 364 -588 416 -104 17
-400 17 -485 0z m508 -51 c124 -22 247 -69 333 -127 146 -97 216 -240 200
-406 -8 -96 -44 -162 -134 -251 -115 -114 -170 -142 -1091 -549 -46 -20 -86
-43 -89 -51 -9 -23 103 -118 183 -156 118 -56 190 -69 365 -69 200 0 272 18
470 117 143 71 145 72 225 72 115 0 157 -34 171 -139 28 -198 -231 -388 -620
-455 -298 -52 -621 -11 -850 107 -228 117 -367 285 -432 522 -26 91 -26 398
-1 520 54 257 156 459 315 619 147 149 313 233 513 261 89 12 336 4 442 -15z"/>
<path d="M3854 5526 c-52 -52 -44 -127 18 -166 45 -28 94 -21 131 21 29 31 29
31 43 10 9 -12 30 -27 48 -35 39 -16 149 -36 203 -36 39 0 67 -12 183 -78 91
-52 164 -36 190 42 9 29 8 41 -8 73 -25 47 -51 72 -125 116 -80 48 -178 71
-312 71 -120 1 -167 -14 -180 -55 -7 -20 -8 -20 -23 10 -18 37 -58 61 -103 61
-22 0 -41 -10 -65 -34z m121 -40 c32 -49 -10 -107 -68 -93 -32 9 -51 51 -36
80 16 29 28 37 61 37 18 0 33 -8 43 -24z m370 4 c99 -16 174 -50 232 -106 57
-54 65 -80 33 -109 -31 -28 -62 -21 -157 33 -72 41 -100 51 -153 56 -95 10
-172 26 -198 43 -31 19 -27 63 8 80 30 15 151 17 235 3z"/>
<path d="M3890 5213 c-132 -36 -240 -127 -321 -271 -56 -100 -98 -217 -83
-232 8 -8 72 15 225 80 357 153 675 316 666 343 -2 7 -18 20 -36 31 -94 55
-333 81 -451 49z m280 -43 c81 -18 130 -32 130 -39 0 -8 -220 -128 -295 -162
-185 -82 -459 -198 -462 -195 -2 2 19 48 46 102 79 156 171 247 290 285 63 20
217 25 291 9z"/>
<path d="M1808 3166 c-134 -55 -220 -164 -264 -336 -19 -74 -15 -168 11 -240
8 -25 49 -92 91 -150 85 -119 96 -150 120 -323 21 -161 39 -201 100 -228 44
-20 48 -20 90 -4 35 13 55 33 108 104 36 48 73 95 83 104 18 15 19 14 32 -40
21 -90 81 -167 164 -209 17 -9 34 -18 35 -20 2 -1 -9 -22 -26 -46 -41 -60 -76
-125 -96 -180 -16 -41 -24 -49 -60 -61 -39 -13 -43 -13 -73 11 -55 41 -151 25
-187 -31 -41 -64 -19 -156 48 -199 35 -23 35 -24 29 -75 -5 -50 -4 -54 30 -88
46 -46 91 -48 136 -6 l30 28 15 -51 c16 -55 73 -156 111 -196 l23 -25 -24 -45
c-49 -91 -37 -157 34 -187 49 -21 250 -30 311 -13 63 17 103 60 99 107 -2 28
1 37 15 39 14 2 17 -5 17 -38 0 -32 7 -47 33 -73 27 -27 44 -34 92 -40 81 -11
243 0 287 18 63 27 79 96 39 174 l-21 42 45 47 c45 46 115 174 115 210 0 29
11 39 60 54 58 19 128 88 163 161 16 35 35 60 52 67 33 15 59 75 51 116 -4 17
-16 49 -27 73 -17 36 -19 47 -9 83 6 23 9 45 6 48 -9 8 -46 -29 -67 -68 -18
-35 -18 -35 -19 -7 0 15 -4 27 -9 27 -5 0 -28 -32 -51 -70 -37 -62 -42 -76
-37 -113 4 -31 14 -49 36 -68 17 -14 31 -30 31 -36 0 -26 -65 -96 -107 -115
-24 -11 -46 -18 -48 -16 -2 1 -8 47 -15 101 -17 146 -59 257 -142 379 l-38 57
62 31 c103 51 148 105 171 205 l13 58 42 -49 c23 -27 61 -74 85 -104 56 -72
97 -93 155 -78 81 20 93 50 131 321 13 91 32 133 113 244 77 108 100 162 106
248 12 192 -96 389 -256 463 -46 22 -75 27 -150 30 -151 6 -260 -38 -402 -164
-179 -158 -263 -192 -370 -150 -52 21 -137 17 -210 -9 -96 -35 -195 2 -340
126 -51 43 -113 94 -139 113 -113 83 -312 112 -433 62z m293 -26 c75 -23 130
-59 256 -168 95 -81 200 -142 247 -142 35 0 33 -11 -9 -38 -20 -12 -54 -47
-77 -76 l-42 -54 -81 82 c-151 155 -271 216 -424 216 -129 0 -234 -50 -266
-127 -20 -48 -18 -130 4 -178 10 -22 43 -74 74 -115 61 -82 83 -139 102 -263
13 -91 26 -123 54 -132 24 -7 42 1 126 56 39 26 80 50 93 53 22 7 22 6 16 -50
-6 -46 -13 -63 -34 -80 -14 -13 -57 -63 -95 -113 -78 -104 -110 -122 -167 -98
-48 20 -64 61 -83 203 -25 190 -32 210 -128 343 -112 156 -132 256 -81 409 44
134 135 239 239 276 61 22 201 20 276 -4z m1726 -2 c143 -53 253 -234 253
-414 0 -106 -17 -144 -139 -314 -51 -70 -77 -154 -96 -304 -18 -137 -33 -172
-81 -192 -58 -24 -88 -8 -157 86 -23 30 -62 78 -88 105 -35 38 -48 60 -51 90
-3 22 -8 48 -12 58 -8 16 -5 16 38 -2 25 -11 75 -41 112 -66 74 -50 83 -52
114 -27 17 14 25 37 36 107 20 138 39 186 107 282 35 48 69 103 77 122 18 45
16 131 -4 169 -39 75 -139 122 -260 122 -157 0 -278 -61 -431 -216 -79 -80
-82 -82 -93 -60 -5 12 -36 51 -67 84 -40 44 -52 62 -40 62 36 0 143 63 225
131 146 122 190 153 259 176 91 31 217 32 298 1z m-1709 -230 c79 -29 154 -82
248 -176 l94 -94 -20 -39 -20 -39 -42 31 c-71 51 -201 99 -310 114 -39 6 -48
4 -48 -8 0 -11 15 -17 53 -22 43 -6 176 -41 185 -50 1 -1 -14 -19 -33 -39 -19
-21 -35 -44 -35 -52 0 -23 26 -16 38 10 6 13 24 33 39 44 l30 21 34 -21 c19
-11 44 -29 56 -40 l21 -20 -20 -48 c-17 -41 -26 -50 -64 -65 -26 -10 -61 -36
-87 -65 -28 -31 -65 -58 -101 -74 -31 -14 -83 -44 -115 -66 -59 -41 -85 -45
-95 -12 -3 10 -10 51 -15 92 -16 120 -37 172 -104 267 -74 103 -90 139 -89
198 1 78 46 132 135 161 54 18 207 13 265 -8z m1686 1 c62 -23 100 -61 117
-118 17 -57 4 -102 -54 -186 -101 -148 -125 -205 -143 -353 -5 -49 -23 -82
-44 -82 -5 0 -23 12 -40 27 -18 15 -71 46 -117 69 -55 28 -98 57 -120 84 -34
40 -98 80 -127 80 -8 0 -19 14 -25 30 -9 28 -7 34 26 71 56 61 72 67 100 35
18 -21 23 -39 23 -82 0 -40 3 -54 13 -51 8 2 12 25 12 65 0 49 -4 65 -23 84
-12 14 -22 27 -22 30 0 9 96 48 117 48 25 0 59 25 46 33 -14 9 -100 -16 -158
-46 -28 -14 -74 -46 -103 -72 l-52 -47 -20 44 c-11 23 -20 50 -20 58 0 34 189
209 274 252 100 52 245 63 340 27z m-846 -75 c96 -48 200 -188 252 -339 l19
-55 -25 0 c-13 0 -27 -1 -31 -2 -3 -2 -8 21 -10 51 -4 74 -18 119 -53 174 -37
59 -82 87 -138 87 -37 0 -48 -5 -86 -44 l-43 -45 -14 25 c-38 73 -126 96 -195
54 -63 -40 -118 -150 -127 -258 -2 -23 -7 -42 -10 -42 -4 0 -27 0 -52 0 l-44
0 33 80 c90 213 242 337 417 339 40 1 69 -6 107 -25z m-180 -126 c21 -17 55
-96 47 -108 -4 -6 -7 -46 -7 -90 0 -77 -1 -80 -23 -80 -21 0 -22 3 -18 45 5
39 2 47 -25 75 -24 24 -39 30 -73 30 -40 0 -41 -1 -26 -18 35 -39 7 -84 -38
-64 -14 7 -25 16 -25 22 0 6 -4 8 -10 5 -5 -3 -10 -22 -10 -40 0 -26 9 -43 35
-69 44 -44 25 -52 -33 -13 l-43 29 7 57 c3 31 15 79 26 108 21 58 85 130 120
135 29 5 75 -7 96 -24z m283 -27 c40 -43 65 -106 75 -191 l6 -56 -61 -31 c-33
-17 -61 -27 -61 -22 0 5 4 9 9 9 4 0 20 12 35 26 61 61 14 164 -75 164 -41 0
-42 0 -24 -20 15 -17 16 -24 7 -45 -14 -30 -35 -32 -61 -6 -11 11 -22 17 -25
14 -10 -10 -7 -53 4 -74 9 -16 7 -19 -14 -19 -31 0 -41 38 -31 113 15 111 67
177 138 177 34 0 46 -6 78 -39z m-551 -281 c19 -6 44 -17 54 -25 18 -14 19
-16 2 -34 -26 -29 -1 -36 35 -10 131 93 296 92 443 -2 32 -19 52 -27 58 -21 7
7 1 16 -16 27 -34 23 -22 37 50 60 61 19 136 15 183 -10 91 -47 145 -183 121
-302 -29 -138 -97 -201 -262 -244 -94 -24 -91 -25 -83 14 12 57 14 62 54 84
45 26 93 94 112 158 12 39 16 44 36 39 28 -7 31 11 4 25 -10 6 -37 13 -60 17
-34 5 -41 4 -41 -10 0 -11 9 -16 26 -16 29 0 28 -10 -9 -89 -19 -41 -79 -111
-95 -111 -4 0 -7 37 -8 83 0 110 -45 259 -70 234 -3 -2 7 -44 21 -92 14 -48
25 -89 25 -92 0 -2 -19 11 -41 31 -51 43 -122 68 -185 64 -68 -4 -71 -28 -3
-28 76 0 125 -18 180 -68 40 -36 49 -50 49 -77 0 -35 -27 -175 -35 -184 -3 -3
-24 14 -48 37 -44 43 -116 81 -154 82 -40 0 -25 -18 29 -36 37 -12 68 -33 106
-70 l53 -54 -38 -72 c-25 -49 -64 -99 -117 -153 l-80 -80 -7 42 c-10 53 -30
91 -67 127 -48 45 -58 21 -12 -31 39 -45 55 -88 48 -134 -2 -17 -18 -32 -53
-51 -54 -29 -189 -81 -242 -93 l-32 -6 10 31 c12 33 6 99 -12 132 -17 32 -30
7 -17 -34 14 -46 2 -125 -20 -137 -9 -4 -39 -13 -67 -20 -80 -19 -103 -31
-125 -65 -53 -86 -101 -107 -147 -64 -30 28 -29 66 3 150 30 79 29 99 -8 112
-25 9 -57 -2 -33 -11 36 -13 39 -20 25 -62 -7 -23 -15 -41 -18 -41 -16 0 -62
46 -77 76 -42 88 51 183 135 139 28 -14 30 -19 24 -50 -7 -40 6 -46 28 -12 9
12 39 30 69 41 174 61 330 177 382 286 38 78 53 183 39 267 -10 58 -9 70 5 85
12 13 13 22 6 29 -13 13 -56 -38 -49 -57 10 -25 18 -154 12 -179 -6 -22 -9
-24 -27 -14 -71 37 -133 122 -145 196 -5 35 -3 40 20 51 27 12 35 32 14 32
-26 -1 -96 -39 -111 -61 -23 -31 -10 -45 18 -19 l23 22 7 -34 c19 -86 83 -171
158 -209 l37 -19 -15 -36 c-8 -20 -15 -38 -15 -40 0 -7 -67 8 -146 32 -154 48
-224 141 -224 298 0 88 20 149 63 194 58 61 161 87 247 62z m3 -607 c20 -3 37
-9 37 -14 0 -4 -24 -32 -52 -62 -54 -55 -210 -155 -216 -138 -5 14 55 129 96
184 32 45 38 48 66 43 17 -4 48 -9 69 -13z m720 -29 c182 -258 206 -594 57
-782 -47 -59 -66 -69 -80 -41 -9 15 -7 31 6 64 19 50 13 115 -12 115 -11 0
-13 -9 -8 -37 3 -23 -1 -55 -10 -81 -17 -46 -15 -52 30 -132 50 -87 56 -162 9
-110 -23 26 -67 26 -90 0 l-18 -20 -14 20 c-18 26 -64 26 -87 1 -17 -18 -18
-18 -42 6 -33 33 -72 28 -100 -14 -45 -68 -47 14 -2 103 l32 64 -19 57 c-20
58 -21 90 -4 107 13 15 11 36 -4 36 -36 0 -48 -96 -20 -155 16 -33 16 -36 -7
-85 -21 -45 -27 -50 -57 -50 -28 0 -35 6 -53 40 -24 47 -25 68 -5 106 21 40
19 97 -4 125 -22 28 -41 18 -23 -11 16 -26 15 -79 -3 -110 -21 -37 -18 -61 15
-132 30 -64 38 -112 20 -123 -6 -3 -13 2 -17 12 -20 56 -77 71 -111 28 -19
-24 -20 -24 -37 -5 -22 24 -62 26 -87 3 -17 -15 -19 -15 -36 0 -25 23 -65 21
-87 -3 -10 -11 -22 -20 -28 -20 -19 0 4 84 40 141 30 50 34 63 28 96 -4 21 -8
62 -9 91 0 31 -5 52 -12 52 -27 0 -32 -66 -10 -127 21 -60 5 -72 -33 -26 -41
49 -89 149 -100 208 -12 63 3 75 126 105 149 35 300 87 369 125 134 75 243
188 305 316 31 62 37 70 69 75 19 3 40 7 45 9 30 10 48 1 78 -41z m459 -214
c21 -73 -30 -124 -97 -96 -56 24 -71 80 -38 137 l18 30 11 -33 c13 -41 25 -42
36 -3 5 17 14 41 20 55 10 25 10 25 25 -15 8 -22 19 -56 25 -75z m-101 -193
c-10 -9 -11 -8 -5 6 3 10 9 15 12 12 3 -3 0 -11 -7 -18z m-20 -34 c-21 -40
-110 -103 -144 -103 -32 0 -12 24 32 40 24 8 60 29 80 47 42 38 45 39 32 16z
m-1131 -594 c19 -34 13 -50 -17 -43 -16 4 -36 11 -46 16 -18 9 -18 11 3 33 24
25 45 23 60 -6z m254 -1 c12 -34 8 -38 -44 -45 l-41 -6 7 29 c4 16 11 35 17
42 17 21 51 10 61 -20z m272 -8 c11 -33 10 -35 -10 -38 -12 -2 -34 2 -49 7
-27 11 -27 11 -12 41 22 43 56 38 71 -10z m236 23 c24 -21 23 -40 -2 -47 -11
-3 -29 -9 -40 -12 -25 -7 -27 21 -4 54 18 26 22 27 46 5z m-635 -30 l13 -33
-51 0 c-48 0 -50 1 -43 23 17 57 59 62 81 10z m528 7 c8 -16 15 -31 15 -35 0
-3 -22 -5 -49 -5 -46 0 -49 1 -44 23 14 54 54 64 78 17z"/>
<path d="M2485 889 c-54 -7 -115 -33 -115 -49 0 -14 15 -12 58 6 57 25 166 23
226 -4 58 -26 56 -26 56 -7 0 34 -134 66 -225 54z"/>
<path d="M2989 889 c-46 -7 -103 -31 -114 -48 -12 -21 17 -21 57 0 56 29 163
31 231 5 46 -18 65 -17 53 3 -8 13 -92 39 -141 43 -22 2 -61 1 -86 -3z"/>
</g>
</svg>
